<svg xmlns="http://www.w3.org/2000/svg" xmlns:xlink="http://www.w3.org/1999/xlink" width="100" height="100" viewBox="0 0 100 100"><g><g transform="translate(50 50) scale(0.69 0.69) rotate(0) translate(-50 -50)" style="fill:#283f5c"><svg fill="#283f5c" xmlns="http://www.w3.org/2000/svg" xmlns:xlink="http://www.w3.org/1999/xlink" xml:space="preserve" style="shape-rendering:geometricPrecision;text-rendering:geometricPrecision;image-rendering:optimizeQuality;" viewBox="0 0 2048 2048" x="0px" y="0px" fill-rule="evenodd" clip-rule="evenodd"><defs><style type="text/css">
   
    .fil2 {fill:none}
    .fil1 {fill:#283f5c}
    .fil0 {fill:#283f5c;fill-rule:nonzero}
   
  </style></defs><g><g><path class="fil0" d="M467.774 908.633l474.898 -456.591c9.33426,-8.97875 24.0709,-8.87599 33.2811,0.0933072l0.00944883 0.00944883 0.144095 0.13937 306.219 297.449c9.47481,9.21615 9.68505,24.3697 0.468898,33.8445 -4.33819,4.45985 -9.99213,6.86575 -15.7512,7.20355l0.0011811 0.0153543c-118.18,7.05709 -224.078,59.765 -300.291,140.734 -75.7146,80.4426 -122.112,188.844 -122.112,308.134 0,71.6339 16.6925,139.275 46.3855,199.245 30.8705,62.3481 75.802,116.529 130.651,158.406 10.5095,8.02442 12.5244,23.0528 4.5,33.5622 -4.70788,6.16654 -11.8276,9.40749 -19.0311,9.41221l0 0.056693 -534.033 0c-13.2543,0 -24,-10.7457 -24,-24l0 -679.638c0,-7.4256 3.37205,-14.0634 8.6693,-18.4654l9.99095 -9.61182zm491.407 -406.056l-458.221 440.556 -3.84685 3.70158 0 645.513 446.203 0c-38.5382,-38.3551 -70.8378,-82.9914 -95.2276,-132.25 -32.9339,-66.515 -51.4477,-141.358 -51.4477,-220.432 0,-131.907 51.3839,-251.86 135.236,-340.948 73.0796,-77.6398 170.844,-131.79 280.758,-149.946l-253.454 -246.195z"></path><path class="fil0" d="M296.469 997.061c-9.57757,9.11221 -24.7311,8.73426 -33.8433,-0.843308 -9.11221,-9.57757 -8.73426,-24.7311 0.843308,-33.8433l679.336 -645.109c9.2882,-8.83701 23.8193,-8.74725 33,0l477.15 453.109c9.57757,9.11221 9.95552,24.2658 0.843308,33.8433 -9.11221,9.57757 -24.2658,9.95552 -33.8433,0.843308l-460.65 -437.44 -662.836 629.441z"></path><path class="fil0" d="M1294.3 742.002c137.424,0 261.841,55.7044 351.9,145.763 90.0615,90.0603 145.765,214.477 145.765,351.9 0,137.424 -55.7056,261.84 -145.765,351.899 -90.0603,90.0615 -214.477,145.765 -351.9,145.765 -137.421,0 -261.839,-55.7032 -351.899,-145.765 -90.0615,-90.0603 -145.765,-214.475 -145.765,-351.899 0,-137.424 55.7044,-261.841 145.763,-351.9 90.0615,-90.0603 214.477,-145.763 351.9,-145.763zm317.962 179.701c-81.3709,-81.3709 -193.79,-131.701 -317.962,-131.701 -124.173,0 -236.59,50.3304 -317.962,131.701 -81.3709,81.3709 -131.701,193.79 -131.701,317.962 0,124.173 50.3304,236.59 131.702,317.961 81.3709,81.3721 193.79,131.702 317.961,131.702 124.173,0 236.592,-50.3304 317.962,-131.702 81.3709,-81.3709 131.702,-193.788 131.702,-317.961 0,-124.173 -50.3304,-236.592 -131.702,-317.962z"></path><path class="fil1" d="M1290.05 1571.37l0 -65.9894c-32.8701,-4.12441 -59.6162,-11.4992 -80.2383,-22.1221 -20.6221,-10.624 -38.3693,-27.8705 -53.367,-51.4926 -14.9976,-23.7461 -23.6209,-52.617 -26.1213,-86.8607l65.9906 -12.7488c5.12363,35.6197 14.1225,61.741 27.1205,78.3627 18.4973,23.4969 40.7433,36.6201 66.6154,39.3697l0 -207.093c-27.1217,-6.99922 -54.7418,-18.4973 -82.9879,-34.3701 -20.9965,-11.6232 -37.1197,-27.8705 -48.4926,-48.6166 -11.3728,-20.8725 -16.9973,-44.3693 -16.9973,-70.7398 0,-46.8674 16.6228,-84.8623 49.7422,-113.982 22.1221,-19.4965 55.1162,-31.4953 98.7355,-35.8689l0 -31.4953 38.9941 0 0 31.4953c38.1189,3.62362 68.3634,14.9976 90.7359,33.8693 28.6205,23.9965 45.867,56.9906 51.7418,98.8595l-67.4894 10.4988c-3.8752,-26.1213 -11.9988,-46.2426 -24.3721,-60.1158 -12.248,-13.9984 -29.1201,-23.1213 -50.6162,-27.6213l0 189.971c33.1193,8.49922 54.991,15.1228 65.739,19.7469 20.4969,8.99883 37.1197,19.9973 49.9926,32.9953 12.998,12.8728 22.8721,28.2461 29.8701,46.1174 6.87402,17.7473 10.3736,37.1197 10.3736,57.867 0,45.6178 -14.498,83.6115 -43.4929,114.232 -28.9961,30.4961 -66.4902,46.7433 -112.482,48.9933l0 66.7394 -38.9941 0zm0 -577.412c-25.4965,3.8752 -45.7429,14.1236 -60.3662,30.8705 -14.7473,16.6228 -22.1221,36.2445 -22.1221,58.9914 0,22.4965 6.24922,41.3681 18.7477,56.491 12.4984,15.1228 33.7453,26.6209 63.7406,34.3701l0 -180.723zm38.9941 455.931c25.6205,-3.1252 46.7422,-14.2476 63.4902,-33.3697 16.6217,-18.998 24.9957,-42.6189 24.9957,-70.6146 0,-23.9965 -5.87363,-43.1185 -17.7473,-57.7406 -11.8736,-14.498 -35.4945,-26.2465 -70.7386,-35.3705l0 197.095z"></path></g></g><rect class="fil2" width="2048" height="2048"></rect></svg></g></g></svg>