<svg xmlns="http://www.w3.org/2000/svg" xmlns:xlink="http://www.w3.org/1999/xlink" width="100" height="100" viewBox="0 0 100 100"><g><g transform="translate(50 50) scale(0.69 0.69) rotate(0) translate(-50 -50)" style="fill:#283f5c"><svg fill="#283f5c" xmlns="http://www.w3.org/2000/svg" xmlns:xlink="http://www.w3.org/1999/xlink" version="1.1" x="0px" y="0px" viewBox="0 0 100 100" style="enable-background:new 0 0 100 100;" xml:space="preserve"><path d="M82,70.5v-51H18v51h31.6v8H41v2h19v-2h-8.4v-8H82z M20,21.5h60v47H20V21.5z"></path><path d="M40,27.5c-2.5,0-4.7,0.5-7,1.5l0,0c-4.6,2.1-7.8,5.6-9.4,10.4c-2.3,7.2,0.1,14.8,6.2,19.2l0,0c0.5,0.4,1,0.7,1.5,1  c2.7,1.6,5.6,2.3,8.6,2.3c5.9,0,11.7-3.1,14.9-8.6c1.6-2.7,2.3-5.5,2.3-8.6C57.2,35.2,49.5,27.5,40,27.5z M39,29.5V40l-4.2-9.5  C36.2,29.9,37.5,29.6,39,29.5z M32.9,31.2L38.2,43l-6.7-2.2L25.9,39C27.3,35.6,29.6,33,32.9,31.2z M25.3,40.9l13.1,4.3l-8.1,11.1  C25.7,52.6,23.8,46.7,25.3,40.9z M43.9,59.3c-3.9,1.1-8,0.5-11.5-1.5c-0.2-0.1-0.3-0.2-0.5-0.3L40.3,46l6.8,3.9l5.5,3.2  C50.6,56.2,47.5,58.4,43.9,59.3z M53.6,51.4L41,44.1V29.5c7.9,0.5,14.2,7.1,14.2,15.1C55.2,47.2,54.7,49.3,53.6,51.4z"></path><rect x="61" y="37.5" width="14" height="2"></rect><rect x="61" y="41.5" width="14" height="2"></rect><rect x="61" y="45.5" width="14" height="2"></rect><rect x="61" y="49.5" width="14" height="2"></rect></svg></g></g></svg>