<svg xmlns="http://www.w3.org/2000/svg" xmlns:xlink="http://www.w3.org/1999/xlink" width="100" height="100" viewBox="0 0 100 100"><g><g transform="translate(50 50) scale(0.69 0.69) rotate(0) translate(-50 -50)" style="fill:#283f5c"><svg fill="#283f5c" xmlns="http://www.w3.org/2000/svg" xmlns:xlink="http://www.w3.org/1999/xlink" version="1.1" x="0px" y="0px" viewBox="0 0 100 100" enable-background="new 0 0 100 100" xml:space="preserve"><path d="M49.999,55.055c-19.351,0-35.094,15.743-35.094,35.094h70.189C85.096,70.798,69.352,55.055,49.999,55.055z"></path><path d="M50,10.262c-11.047,0-19.998,8.954-19.998,19.998c0,11.045,8.951,20,19.998,20c11.044,0,20-8.955,20-20  C70,19.216,61.044,10.262,50,10.262z M56.801,33.779c0,3.082-2.021,5.001-5.06,5.485v2.41h-4.035l0.002-2.55  c-2.407-0.395-4.353-1.909-4.353-1.909l2.25-2.973c0,0,2.071,1.629,4.629,1.629c1.627,0,2.61-0.646,2.61-1.707v-0.053  c0-1.008-0.621-1.523-3.646-2.301c-3.645-0.93-5.999-1.938-5.999-5.532v-0.05c0-2.712,1.801-4.661,4.508-5.262v-2.121l4.033-0.003  V21c2.123,0.212,3.533,1.375,3.533,1.375l-1.991,3.128c0,0-1.581-1.216-3.8-1.216c-1.525,0-2.327,0.696-2.327,1.576v0.053  c0,1.191,0.775,1.577,3.904,2.379c3.67,0.958,5.74,2.273,5.74,5.43v0.054H56.801z"></path></svg></g></g></svg>