<svg xmlns="http://www.w3.org/2000/svg" xmlns:xlink="http://www.w3.org/1999/xlink" width="100" height="100" viewBox="0 0 100 100"><g><g transform="translate(50 50) scale(0.69 0.69) rotate(0) translate(-50 -50)" style="fill:#283f5c"><svg fill="#283f5c" xmlns="http://www.w3.org/2000/svg" xmlns:xlink="http://www.w3.org/1999/xlink" viewBox="0 0 100 100" version="1.1" x="0px" y="0px"><title>5.3</title><desc>Created with Sketch.</desc><g stroke="none" stroke-width="1" fill="none" fill-rule="evenodd"><g fill="#283f5c"><polygon points="48 48 33 48 33 51 48 51 48 66 51 66 51 51 66 51 66 48 51 48 51 33 48 33"></polygon><path d="M49.5,77 C64.6878306,77 77,64.6878306 77,49.5 C77,34.3121694 64.6878306,22 49.5,22 C34.3121694,22 22,34.3121694 22,49.5 C22,64.6878306 34.3121694,77 49.5,77 Z M49.5,80 C32.6553151,80 19,66.3446849 19,49.5 C19,32.6553151 32.6553151,19 49.5,19 C66.3446849,19 80,32.6553151 80,49.5 C80,66.3446849 66.3446849,80 49.5,80 Z" fill-rule="nonzero"></path></g></g></svg></g></g></svg>