<svg xmlns="http://www.w3.org/2000/svg" xmlns:xlink="http://www.w3.org/1999/xlink" width="100" height="100" viewBox="0 0 100 100"><g><g transform="translate(50 50) scale(0.69 0.69) rotate(0) translate(-50 -50)" style="fill:#283f5c"><svg fill="#283f5c" xmlns="http://www.w3.org/2000/svg" xmlns:xlink="http://www.w3.org/1999/xlink" version="1.1" x="0px" y="0px" viewBox="0 0 100 100" style="enable-background:new 0 0 100 100;" xml:space="preserve"><path d="M35.2,66.7l6.1,6.1c0.2,0.2,0.4,0.3,0.7,0.3s0.5-0.1,0.7-0.3l22-22c0.2-0.2,0.3-0.4,0.3-0.7c0-0.3-0.1-0.5-0.3-0.7l-22-22  c-0.4-0.4-1-0.4-1.4,0l-6.1,6.1c-0.4,0.4-0.4,1,0,1.4L50.5,50L35.2,65.2C34.8,65.6,34.8,66.3,35.2,66.7z M52.6,50.7  c0.4-0.4,0.4-1,0-1.4L37.4,34.1l4.7-4.7L62.6,50L42,70.6l-4.7-4.7L52.6,50.7z"></path></svg></g></g></svg>