<svg xmlns="http://www.w3.org/2000/svg" xmlns:xlink="http://www.w3.org/1999/xlink" width="100" height="100" viewBox="0 0 100 100"><g><g transform="translate(50 50) scale(0.69 0.69) rotate(0) translate(-50 -50)" style="fill:#283f5c"><svg fill="#283f5c" xmlns="http://www.w3.org/2000/svg" xmlns:xlink="http://www.w3.org/1999/xlink" viewBox="0 0 100 100" version="1.1" x="0px" y="0px"><title>i8 copy 2</title><desc>Created with Sketch.</desc><g stroke="none" stroke-width="1" fill="none" fill-rule="evenodd"><path d="M64.0127713,65.8237718 L38.1669932,46.7886127 C35.1114305,44.2631084 30.9110337,48.0536546 33.1114051,51.351922 L49.4104104,79.0053934 C50.0503727,79.9647645 50.787646,80.8462869 51.6062025,81.6362226 C60.2645839,89.9912229 73.8331595,77.7426413 66.4066197,68.2771517 C65.7036915,67.3830361 64.9011626,66.5587554 64.0127713,65.8237718 M95,59.9988552 C95,60.7613148 94.9805378,61.5180502 94.9427583,62.2713512 L79.4050678,62.2713512 L79.4050678,57.7091867 L90.3519729,57.7091867 C89.8230595,48.2860559 86.0508306,39.7192612 80.1377617,33.0998295 L72.7741878,40.4634035 L69.5365965,37.2258122 L76.8990256,29.8622383 C70.2807388,23.9491694 61.7127992,20.1769405 52.2908133,19.6480271 L52.2908133,30.2514819 L47.7114763,30.2514819 L47.7114763,19.6480271 C38.2883456,20.1769405 29.720406,23.9491694 23.1009744,29.8622383 L31.0049101,37.766174 L27.7673188,41.0037652 L19.8633831,33.1009744 C13.9503142,39.7192612 10.1780853,48.2860559 9.6491719,57.7091867 L20.596077,57.7091867 L20.596077,62.2713512 L5.05838655,62.2713512 C5.02060702,61.5180502 5,60.7613148 5,59.9988552 C5,35.1857176 25.1880072,15 50.0011448,15 C74.8131376,15 95,35.1857176 95,59.9988552" fill="#283f5c"></path></g></svg></g></g></svg>