<?xml version="1.0" encoding="utf-8"?>
<!-- Generator: Adobe Illustrator 23.0.3, SVG Export Plug-In . SVG Version: 6.00 Build 0)  -->
<svg version="1.1" id="Layer_1" xmlns="http://www.w3.org/2000/svg" xmlns:xlink="http://www.w3.org/1999/xlink" width="120" height="120" x="0px" y="0px"
	 viewBox="0 0 100 100" style="enable-background:new 0 0 100 100;" xml:space="preserve">
<style type="text/css">
	.st0{fill:#FFFFFF;}
</style>
<g>
	<g transform="translate(50 50) scale(0.69 0.69) rotate(0) translate(-50 -50)">
		<g>
			<path class="st0" d="M10.8,59.1c4,0,7.4-2.6,8.6-6.1h11.5c0.5,3.1,1.7,5.8,3.4,8.3l-8.1,8.1c-3.4-1.5-7.5-1.1-10.4,1.8
				c-3.5,3.5-3.5,9.4,0,13c3.5,3.5,9.4,3.5,13,0c2.9-2.9,3.4-7.1,1.7-10.4l8.1-8.1c2.5,1.8,5.2,2.9,8.4,3.5v11.5
				c-3.5,1.2-6.1,4.6-6.1,8.6c0,5.1,4.1,9.2,9.2,9.2s9.2-4.1,9.2-9.2c0-4-2.6-7.4-6.1-8.6V69.3c3.1-0.5,5.8-1.7,8.3-3.4l8.1,8.1
				c-1.7,3.4-1.1,7.7,1.7,10.4c3.5,3.5,9.4,3.5,13,0c3.5-3.5,3.5-9.4,0-13c-2.8-2.8-7.1-3.4-10.4-1.8l-8.1-8.1
				c1.7-2.5,2.9-5.2,3.4-8.3h11.5c1.2,3.5,4.6,6.1,8.6,6.1c5.1,0,9.2-4.1,9.2-9.2s-4.1-9.2-9.2-9.2c-4,0-7.4,2.6-8.6,6.1H69.2
				c-0.5-3.1-1.7-5.8-3.4-8.3l8.1-8.1c3.4,1.7,7.7,1.1,10.4-1.7c3.5-3.5,3.5-9.4,0-13c-3.5-3.5-9.4-3.5-13,0
				c-2.8,2.8-3.4,7.1-1.8,10.4l-8.1,8.1c-2.3-1.7-5.2-2.9-8.1-3.4V19.5c3.5-1.2,6.1-4.6,6.1-8.6c0-5.1-4.1-9.2-9.2-9.2
				s-9.2,4.1-9.2,9.2c0,4,2.6,7.4,6.1,8.6V31c-3.1,0.5-5.8,1.7-8.3,3.4l-8.1-8.1c1.5-3.4,1.1-7.5-1.8-10.4c-3.5-3.5-9.4-3.5-13,0
				c-3.5,3.5-3.5,9.4,0,13c2.9,2.9,7.1,3.4,10.4,1.7l8.1,8.1c-1.7,2.5-2.9,5.2-3.4,8.3H19.4c-1.2-3.5-4.6-6.1-8.6-6.1
				c-5.1,0-9.2,4.1-9.2,9.2C1.6,55,5.8,59.1,10.8,59.1z M24.6,80c-1.2,1.2-3.4,1.2-4.8,0c-1.2-1.2-1.2-3.4,0-4.8
				c1.2-1.2,3.4-1.2,4.8,0C26,76.5,25.9,78.6,24.6,80z M75.3,75.3c1.2-1.2,3.4-1.2,4.8,0c1.2,1.2,1.2,3.4,0,4.8
				c-1.2,1.2-3.4,1.2-4.8,0C74.1,78.6,74.1,76.6,75.3,75.3z M89.1,46.5c1.8,0,3.4,1.5,3.4,3.4s-1.5,3.4-3.4,3.4s-3.4-1.5-3.4-3.4
				C85.9,48.1,87.3,46.5,89.1,46.5z M75.3,19.8c1.2-1.2,3.4-1.2,4.8,0c1.2,1.2,1.2,3.4,0,4.8c-1.2,1.2-3.4,1.2-4.8,0
				C74.1,23.2,74.1,21.2,75.3,19.8z M53.4,89.1c0,1.8-1.5,3.4-3.4,3.4s-3.4-1.5-3.4-3.4c0-1.8,1.5-3.4,3.4-3.4
				C51.8,85.8,53.4,87.2,53.4,89.1z M46.6,10.8c0-1.8,1.5-3.4,3.4-3.4s3.4,1.5,3.4,3.4s-1.5,3.4-3.4,3.4
				C48.1,14,46.6,12.6,46.6,10.8z M43.2,57.6c0.2-0.6,0.3-1.2,0.6-1.8c0.2-0.8,0.5-0.8,1.1-0.5c1.1,0.6,2.3,0.9,3.7,1.1
				c0.8,0.2,1.7,0,2.5-0.3c1.4-0.6,1.7-2.3,0.5-3.2c-0.5-0.3-0.9-0.6-1.4-0.8c-1.2-0.6-2.6-0.9-3.7-1.7c-1.8-1.1-3.1-2.8-2.9-5.1
				c0.2-2.6,1.7-4.3,4-5.1c0.9-0.3,0.9-0.3,1.1-1.4c0-0.3,0-0.8,0-1.1c0-0.8,0.2-0.9,0.9-0.9c0.3,0,0.5,0,0.8,0c1.7,0,1.7,0,1.7,1.7
				c0,1.2,0,1.2,1.2,1.4c0.9,0.2,1.7,0.5,2.6,0.8c0.5,0.2,0.6,0.5,0.5,1.1c-0.2,0.8-0.5,1.4-0.6,2.1c-0.2,0.6-0.5,0.8-1.1,0.5
				c-1.2-0.6-2.6-0.9-4.1-0.8c-0.3,0-0.8,0-1.1,0.2c-1.2,0.6-1.4,1.8-0.5,2.8c0.5,0.5,1.1,0.8,1.8,0.9c1.1,0.5,2.1,0.9,3.2,1.5
				c3.4,1.8,4.1,6,1.8,8.8c-0.8,1.1-2,1.7-3.2,2c-0.8,0-1.1,0.3-1.1,0.9c0,0.6,0,1.1,0,1.7c0,0.5-0.3,0.8-0.8,0.8
				c-0.6,0-1.2,0-1.8,0c-0.6,0-0.8-0.3-0.8-0.8c0-0.5,0-0.8,0-1.2c0-0.9,0-0.9-0.9-1.1c-1.1-0.2-2.3-0.5-3.2-0.9
				C43.1,58.7,43.1,58.4,43.2,57.6z M24.6,24.6c-1.2,1.2-3.4,1.2-4.8,0c-1.2-1.2-1.2-3.4,0-4.8c1.2-1.2,3.4-1.2,4.8,0
				C25.9,21.2,25.9,23.2,24.6,24.6z M10.8,46.5c1.8,0,3.4,1.5,3.4,3.4s-1.5,3.4-3.4,3.4s-3.4-1.5-3.4-3.4S9,46.5,10.8,46.5z"/>
		</g>
	</g>
</g>
</svg>
