<svg xmlns="http://www.w3.org/2000/svg" xmlns:xlink="http://www.w3.org/1999/xlink" width="100" height="100" viewBox="0 0 100 100"><g><g transform="translate(50 50) scale(0.69 0.69) rotate(0) translate(-50 -50)" style="fill:#283f5c"><svg fill="#283f5c" xmlns="http://www.w3.org/2000/svg" xmlns:xlink="http://www.w3.org/1999/xlink" version="1.1" x="0px" y="0px" viewBox="0 0 512 512" enable-background="new 0 0 512 512" xml:space="preserve"><path d="M503.551,366.273l-53.309-53.777c-2-2.031-4.75-3.156-7.594-3.156h-74.651c-5.905,0-10.655,4.766-10.655,10.656  v11.873l-8.094-7.998l-0.188-26.406c22.374-29.92,38.342-67.276,38.342-105.969c0,0,15.093-64.309-20.999-124.836v-0.273  c-0.031,0-0.094,0.008-0.156,0.008c-7.812-13.062-17.999-25.952-31.279-37.967c-13.905-12.577-48.153-28.412-89.486-28.412  c-28.295,0-59.902,7.429-90.541,28.412c-59.435,40.708-53.435,143.366-53.435,143.366s4.156,1.047,11.64,2.039  c-0.547,5.742-0.828,11.632-0.828,17.663c0,38.692,15.983,76.049,38.342,105.969l-0.203,27.811l-32.826,32.467  c-6.359,3-13.937,6.234-22.952,9.672c-11.78,4.484-20.732,11.312-47.2,18.422l-1.828,0.531  c-24.092,7.951-40.294,30.295-40.294,55.512v70.105h244.517h223.181l0,0h22.937c5.874,0,10.655-4.781,10.655-10.656V373.773  C506.645,370.961,505.551,368.273,503.551,366.273z M470.396,363.117h-17.061V345.9l5.062,5.109L470.396,363.117z M161.736,384.305  l-22.857-17.562l22.373-22.139l57.513,115.602l-57.419-47.418l4.25-17.516C166.596,391.178,165.08,386.867,161.736,384.305z   M335.53,395.271l4.25,17.531l-57.247,47.371l3.281-6.578c0.344-0.562,0.625-1.172,0.875-1.779l53.185-107.197l17.468,17.248v8.656  l-17.937,13.781C336.062,386.867,334.53,391.178,335.53,395.271z M206.89,388.443l10.984-5.982v12.201  c0,0.734,0.062,1.453,0.203,2.141c0.781,3.812,3.608,6.906,7.28,8.031l-3.672,13.375L206.89,388.443z M279.627,418.084l-3.78-13.828  c2.937-1.422,5.124-4.156,5.812-7.453c0.125-0.688,0.219-1.406,0.219-2.141v-13.029l12.438,6.795L279.627,418.084z M250.669,364.586  l9.858,5.406v14H239.2v-13.156L250.669,364.586z M247.341,405.334h6.671l11.359,41.467l-14.718,29.654l-14.702-29.561  L247.341,405.334z M303.813,369.32l-24.28-13.266c15.625-6.842,32.123-18.373,47.373-33.246L303.813,369.32z M197.375,369.336  l-21.858-43.967c14.765,13.906,30.561,24.656,45.56,31.061L197.375,369.336z M357.342,425.957v64.699h-78.152L357.342,425.957z   M357.186,126.664c-4.688-5.289-9.906-9.625-15.625-12.968c4.312-10.461,9.75-16.733,14.594-20.491  c5.875,13.374,9.812,27.873,11.718,43.161c0.312,2.383,0.562,4.719,0.75,6.992C365.185,136.937,361.404,131.453,357.186,126.664z   M127.051,118.523c3.109-15.726,7.719-29.607,13.687-41.278c6.953-13.546,15.796-24.054,26.249-31.217  c23.92-16.374,50.325-24.679,78.495-24.679c36.333,0,65.394,14.039,75.175,22.89c9.938,8.999,18.405,19.046,25.373,29.998  c-8.468,5.672-17.842,15.421-24.529,32.154c-3.5-0.594-7.125-0.906-10.812-0.906c-15.904,0-33.061,5.383-52.441,16.452  c-46.669,26.67-89.838,32.264-117.837,32.264c-6.702,0-12.593-0.32-17.482-0.758C123.349,144.101,124.441,131.758,127.051,118.523z   M134.426,175.458c1.938,0.047,3.922,0.078,5.983,0.078c31.218,0,78.012-6.273,128.414-35.076  c16.96-9.694,30.679-13.64,41.864-13.64c26.874,0,39.029,22.787,46.342,43.419c2.5,7.062,5.656,11.921,8.937,15.249  c0.062,1.992,0.125,3.992,0.125,6.008c0,35.139-15.999,73.494-43.872,105.25c-12.25,13.969-25.967,25.641-39.654,33.779  c-12.241,7.25-23.865,11.25-32.692,11.25c-8.844,0-20.452-4-32.701-11.25c-13.702-8.139-27.421-19.811-39.67-33.779  c-27.873-31.756-43.856-70.111-43.856-105.25C133.645,186.051,133.926,180.699,134.426,175.458z M26.683,441.879  c0-15.891,10.171-29.982,25.326-35.154l1.203-0.344c19.937-5.375,30.951-10.641,39.81-14.891c3.422-1.625,6.375-3.047,9.25-4.139  c5.812-2.203,12.14-4.734,18.546-7.578l22.42,17.217l-4.187,17.25c-0.969,3.969,0.422,8.139,3.562,10.748l79.495,65.668H26.683  V441.879z M378.652,490.656v-159.99h53.341v43.107c0,5.906,4.78,10.672,10.655,10.672h42.686v106.211H378.652z"></path></svg></g></g></svg>