<?xml version="1.0" encoding="UTF-8"?>
<svg width="14px" height="14px" viewBox="0 0 14 14" version="1.1" xmlns="http://www.w3.org/2000/svg" xmlns:xlink="http://www.w3.org/1999/xlink">
    <!-- Generator: Sketch 54.1 (76490) - https://sketchapp.com -->
    <title>Combined Shape</title>
    <desc>Created with Sketch.</desc>
    <g id="Symbols" stroke="none" stroke-width="1" fill="none" fill-rule="evenodd">
        <g id="Search-field" transform="translate(-42.000000, -33.000000)" fill="#283F5C" fill-rule="nonzero">
            <g id="search-field">
                <path d="M53.1376669,43.037723 L55.7721942,45.6722503 C56.0759353,45.9759914 56.0759353,46.468453 55.7721942,46.7721942 C55.468453,47.0759353 54.9759914,47.0759353 54.6722503,46.7721942 L52.037723,44.1376669 C50.9840801,44.9567143 49.6601089,45.4444444 48.2222222,45.4444444 C44.7857838,45.4444444 42,42.6586607 42,39.2222222 C42,35.7857838 44.7857838,33 48.2222222,33 C51.6586607,33 54.4444444,35.7857838 54.4444444,39.2222222 C54.4444444,40.6601089 53.9567143,41.9840801 53.1376669,43.037723 Z M48.2222222,43.8888889 C50.7995511,43.8888889 52.8888889,41.7995511 52.8888889,39.2222222 C52.8888889,36.6448934 50.7995511,34.5555556 48.2222222,34.5555556 C45.6448934,34.5555556 43.5555556,36.6448934 43.5555556,39.2222222 C43.5555556,41.7995511 45.6448934,43.8888889 48.2222222,43.8888889 Z" id="Combined-Shape"></path>
            </g>
        </g>
    </g>
</svg>