<svg xmlns="http://www.w3.org/2000/svg" xmlns:xlink="http://www.w3.org/1999/xlink" width="100" height="100" viewBox="0 0 100 100"><g><g transform="translate(50 50) scale(0.69 0.69) rotate(0) translate(-50 -50)" style="fill:#283f5c"><svg fill="#283f5c" xmlns="http://www.w3.org/2000/svg" xmlns:xlink="http://www.w3.org/1999/xlink" version="1.1" x="0px" y="0px" viewBox="0 0 24 24" enable-background="new 0 0 24 24" xml:space="preserve"><g><path d="M10.929,19.795H2.541c-0.359,0-0.65-0.291-0.65-0.65V0.802c0-0.359,0.291-0.65,0.65-0.65h15.332   c0.359,0,0.65,0.291,0.65,0.65v11.421c0,0.359-0.291,0.65-0.65,0.65s-0.65-0.291-0.65-0.65V1.451H3.191v17.044h7.738   c0.359,0,0.65,0.291,0.65,0.65S11.288,19.795,10.929,19.795z"></path><g><path d="M14.281,5.276H6.134c-0.359,0-0.65-0.291-0.65-0.65s0.291-0.65,0.65-0.65h8.147c0.359,0,0.65,0.291,0.65,0.65    S14.639,5.276,14.281,5.276z"></path><path d="M14.281,8.664H6.134c-0.359,0-0.65-0.291-0.65-0.65s0.291-0.65,0.65-0.65h8.147c0.359,0,0.65,0.291,0.65,0.65    S14.639,8.664,14.281,8.664z"></path><path d="M14.281,12.052H6.134c-0.359,0-0.65-0.291-0.65-0.65s0.291-0.65,0.65-0.65h8.147c0.359,0,0.65,0.291,0.65,0.65    S14.639,12.052,14.281,12.052z"></path></g><g><path d="M14.999,19.651c-1.904,0-3.454-1.549-3.454-3.454c0-1.904,1.549-3.454,3.454-3.454s3.454,1.549,3.454,3.454    C18.453,18.101,16.904,19.651,14.999,19.651z M14.999,14.043c-1.188,0-2.154,0.966-2.154,2.154s0.966,2.154,2.154,2.154    s2.154-0.966,2.154-2.154C17.154,15.009,16.187,14.043,14.999,14.043z"></path><path d="M21.459,23.848c-0.167,0-0.333-0.063-0.459-0.19l-3.293-3.293c-0.254-0.254-0.254-0.665,0-0.919s0.665-0.254,0.919,0    l3.293,3.293c0.254,0.254,0.254,0.665,0,0.919C21.791,23.785,21.625,23.848,21.459,23.848z"></path></g></g></svg></g></g></svg>