<svg xmlns="http://www.w3.org/2000/svg" xmlns:xlink="http://www.w3.org/1999/xlink" width="100" height="100" viewBox="0 0 100 100"><g><g transform="translate(50 50) scale(0.69 0.69) rotate(0) translate(-50 -50)" style="fill:#283f5c"><svg fill="#283f5c" xmlns="http://www.w3.org/2000/svg" xmlns:xlink="http://www.w3.org/1999/xlink" version="1.1" x="0px" y="0px" viewBox="0 0 100 100" enable-background="new 0 0 100 100" xml:space="preserve"><g><path d="M82.516,34.206h-12.31c-0.802,0-1.452,0.65-1.452,1.452c0,0.802,0.65,1.452,1.452,1.452v0h12.31   c2.653,0.001,5.038,1.07,6.776,2.805c1.735,1.738,2.804,4.123,2.805,6.776v35.768c0,2.653-1.071,5.057-2.808,6.808   c-1.74,1.75-4.125,2.829-6.772,2.83H17.542c-2.648,0-5.051-1.082-6.805-2.834c-1.752-1.754-2.833-4.157-2.834-6.805V46.69   c0.001-2.648,1.08-5.032,2.83-6.772c1.752-1.737,4.156-2.808,6.809-2.808h12.252c0.802,0,1.451-0.65,1.451-1.451   c0-0.802-0.65-1.451-1.451-1.451l-12.252,0C10.648,34.208,5.004,39.781,5,46.69v35.768C5.006,89.363,10.636,94.994,17.542,95   h64.974c6.91-0.004,12.482-5.648,12.484-12.542V46.69C95,39.792,89.414,34.207,82.516,34.206z"></path><path d="M39.157,76.175c2.778,2.749,6.626,4.45,10.86,4.449c4.234,0.001,8.082-1.7,10.86-4.449c2.78-2.746,4.508-6.56,4.507-10.76   c0.001-4.2-1.727-8.015-4.507-10.761c-2.778-2.749-6.626-4.45-10.86-4.449c-4.234-0.001-8.082,1.7-10.86,4.449   c-2.78,2.746-4.508,6.56-4.507,10.761C34.65,69.615,36.377,73.429,39.157,76.175z M41.199,56.719   c2.258-2.231,5.368-3.61,8.819-3.61c3.451,0.001,6.561,1.38,8.819,3.61c2.256,2.233,3.644,5.298,3.645,8.696   c-0.001,3.398-1.388,6.462-3.645,8.696c-2.258,2.231-5.368,3.61-8.819,3.61c-3.451-0.001-6.561-1.38-8.819-3.61   c-2.256-2.233-3.644-5.298-3.645-8.696C37.555,62.017,38.942,58.952,41.199,56.719z"></path><path d="M78.22,52.91c0.802,0,1.452-0.65,1.452-1.452c0-0.802-0.65-1.452-1.452-1.452h-3.434c-0.802,0-1.452,0.65-1.452,1.452   c0,0.802,0.65,1.452,1.452,1.452H78.22z"></path><path d="M50.018,37.117c0.802,0,1.452-0.65,1.452-1.452V9.956l9.336,9.336c0.567,0.567,1.486,0.567,2.053,0   c0.567-0.567,0.567-1.486,0-2.053L51.044,5.425l0,0C50.91,5.291,50.748,5.184,50.57,5.11l-0.025-0.008   C50.382,5.039,50.206,5.001,50.02,5h-0.005c-0.186,0-0.362,0.038-0.525,0.102L49.465,5.11c-0.178,0.073-0.339,0.181-0.474,0.315   l0,0L37.178,17.239c-0.567,0.567-0.567,1.486,0,2.053c0.567,0.567,1.486,0.567,2.053,0v0l9.336-9.336v25.709   C48.566,36.467,49.216,37.117,50.018,37.117z"></path></g></svg></g></g></svg>