<?xml version="1.0" encoding="UTF-8"?>
<svg width="80px" viewBox="0 0 60 33" version="1.1" xmlns="http://www.w3.org/2000/svg" xmlns:xlink="http://www.w3.org/1999/xlink">
    <!-- Generator: Sketch 54.1 (76490) - https://sketchapp.com -->
    <title>icon-partnership</title>
    <desc>Created with Sketch.</desc>
    <g id="Page-1" stroke="none" stroke-width="1" fill="none" fill-rule="evenodd">
        <g id="icon-partnership" fill="#283F5C" fill-rule="nonzero">
            <path d="M58.6121739,9.92869565 C54.7421739,11.4586957 51.6821739,14.7886957 50.5121739,16.1386957 C50.2421739,16.4086957 49.9721739,16.4086957 49.7921739,16.4086957 C49.5221739,16.4086957 49.3421739,16.3186957 49.1621739,16.1386957 L41.6921739,5.33869565 C41.6021739,5.24869565 41.6021739,5.06869565 41.6021739,4.88869565 C41.6921739,4.61869565 41.8721739,4.25869565 42.2321739,4.07869565 C42.5021739,3.89869565 42.9521739,3.71869565 43.4921739,3.44869565 C44.2121739,3.08869565 45.1121739,2.72869565 46.1921739,2.18869565 L45.5621739,1.01869565 C44.5721739,1.55869565 43.6721739,1.91869565 42.9521739,2.27869565 C42.3221739,2.54869565 41.8721739,2.81869565 41.5121739,2.99869565 C40.8821739,3.44869565 40.3421739,3.98869565 40.2521739,4.70869565 C40.2521739,4.88869565 40.2521739,5.06869565 40.2521739,5.24869565 L27.4721739,5.24869565 L26.3021739,5.24869565 L19.4621739,5.24869565 C19.4621739,5.06869565 19.4621739,4.88869565 19.4621739,4.70869565 C19.2821739,4.07869565 18.8321739,3.44869565 18.2021739,2.99869565 C17.8421739,2.81869565 17.3921739,2.54869565 16.7621739,2.27869565 C15.9521739,1.91869565 14.9621739,1.46869565 13.7021739,0.838695652 L12.8921739,2.00869565 C14.1521739,2.72869565 15.2321739,3.17869565 16.0421739,3.53869565 C16.5821739,3.80869565 17.1221739,3.98869565 17.3021739,4.16869565 C17.6621739,4.34869565 17.9321739,4.70869565 17.9321739,4.97869565 C17.9321739,5.15869565 17.9321739,5.24869565 17.8421739,5.42869565 L10.3721739,16.2286957 C10.2821739,16.4086957 10.0121739,16.4986957 9.74217391,16.4986957 C9.56217391,16.4986957 9.29217391,16.4986957 9.02217391,16.2286957 C7.85217391,14.8786957 4.79217391,11.5486957 0.922173913,10.0186957 L0.652173913,11.1886957 C4.34217391,12.7186957 7.40217391,16.0486957 8.21217391,17.0386957 C8.66217391,17.5786957 9.20217391,17.8486957 9.92217391,17.8486957 C9.92217391,17.8486957 10.0121739,17.8486957 10.0121739,17.8486957 C10.6421739,17.8486957 11.1821739,17.5786957 11.5421739,17.1286957 C11.9921739,17.5786957 12.7121739,18.2086957 12.9821739,18.8386957 C13.0721739,19.1086957 13.1621739,19.1986957 13.2521739,19.3786957 C13.2521739,19.4686957 13.3421739,19.5586957 13.3421739,19.6486957 C13.0721739,19.8286957 12.8021739,20.0086957 12.6221739,20.2786957 C11.6321739,21.5386957 11.9021739,23.4286957 13.2521739,24.3286957 L13.3421739,24.4186957 C13.8821739,24.7786957 14.4221739,24.9586957 15.0521739,24.9586957 C15.2321739,24.9586957 15.4121739,24.9586957 15.5921739,24.8686957 C15.5921739,25.0486957 15.5921739,25.1386957 15.5921739,25.3186957 C15.6821739,26.1286957 16.1321739,26.8486957 16.7621739,27.2986957 C17.3021739,27.6586957 17.9321739,27.9286957 18.5621739,27.9286957 C18.8321739,27.9286957 19.1021739,27.9286957 19.2821739,27.8386957 C19.2821739,27.9286957 19.2821739,28.0186957 19.2821739,28.1086957 C19.3721739,28.9186957 19.8221739,29.6386957 20.4521739,30.0886957 C20.9921739,30.4486957 21.6221739,30.7186957 22.2521739,30.7186957 C22.5221739,30.7186957 22.7921739,30.6286957 23.0621739,30.5386957 C23.1521739,31.2586957 23.5121739,31.9786957 24.1421739,32.4286957 C24.5921739,32.7886957 25.1321739,32.9686957 25.7621739,32.9686957 C26.5721739,32.9686957 27.2921739,32.6086957 27.8321739,31.9786957 C28.3721739,32.2486957 28.9121739,32.4286957 29.4521739,32.4286957 C29.6321739,32.4286957 29.8121739,32.4286957 29.9921739,32.3386957 C30.8021739,32.1586957 31.5221739,31.7086957 31.9721739,31.0786957 C32.3321739,30.5386957 32.5121739,29.9086957 32.5121739,29.3686957 L33.2321739,29.9086957 C33.7721739,30.2686957 34.4021739,30.4486957 34.9421739,30.4486957 C35.9321739,30.4486957 36.9221739,29.9986957 37.4621739,29.0986957 C37.8221739,28.5586957 38.0021739,27.9286957 38.0021739,27.3886957 L38.1821739,27.4786957 C38.7221739,27.8386957 39.3521739,28.0186957 39.8921739,28.0186957 C40.0721739,28.0186957 40.2521739,28.0186957 40.4321739,27.9286957 C41.2421739,27.7486957 41.9621739,27.2986957 42.4121739,26.6686957 C42.7721739,26.1286957 42.9521739,25.4986957 42.9521739,24.8686957 L43.3121739,25.1386957 C43.8521739,25.4986957 44.4821739,25.6786957 45.0221739,25.6786957 C46.0121739,25.6786957 47.0021739,25.2286957 47.5421739,24.3286957 C48.5321739,22.8886957 48.1721739,20.9986957 46.7321739,20.0086957 L36.6521739,13.1686957 L34.6721739,13.1686957 C31.4321739,13.1686957 30.9821739,10.7386957 30.9821739,10.4686957 L31.2521739,9.92869565 L24.4121739,9.92869565 L24.3221739,10.4686957 C24.0521739,12.0886957 23.5121739,13.1686957 22.7021739,13.6186957 C22.2521739,13.8886957 21.8021739,13.9786957 21.4421739,13.9786957 L21.4421739,9.47869565 L26.6621739,6.59869565 L27.4721739,6.59869565 L41.0621739,6.59869565 L48.1721739,17.0386957 C48.5321739,17.5786957 49.1621739,17.8486957 49.7921739,17.9386957 C49.7921739,17.9386957 49.8821739,17.9386957 49.8821739,17.9386957 C50.5121739,17.9386957 51.1421739,17.6686957 51.5921739,17.1286957 C52.4021739,16.1386957 55.4621739,12.8086957 59.1521739,11.2786957 L58.6121739,9.92869565 Z M14.1521739,23.3386957 L14.0621739,23.2486957 C13.7021739,22.9786957 13.5221739,22.6186957 13.4321739,22.2586957 C13.3421739,21.8086957 13.4321739,21.4486957 13.7021739,21.0886957 C13.9721739,20.7286957 14.4221739,20.4586957 14.9621739,20.4586957 C15.3221739,20.4586957 15.5921739,20.5486957 15.8621739,20.7286957 L15.9521739,20.8186957 C16.3121739,21.0886957 16.4921739,21.4486957 16.5821739,21.8086957 C16.5821739,22.0786957 16.5821739,22.3486957 16.4921739,22.6186957 L16.1321739,23.0686957 C16.1321739,23.0686957 16.1321739,23.1586957 16.1321739,23.1586957 C15.5921739,23.6986957 14.7821739,23.6986957 14.1521739,23.3386957 Z M17.5721739,26.2186957 C16.8521739,25.6786957 16.6721739,24.6886957 17.2121739,23.9686957 C17.3021739,23.8786957 17.3921739,23.7886957 17.3921739,23.6986957 C17.4821739,23.6086957 17.5721739,23.4286957 17.6621739,23.3386957 L18.2921739,22.5286957 C18.5621739,22.0786957 19.1021739,21.8986957 19.6421739,21.8986957 C20.0021739,21.8986957 20.3621739,21.9886957 20.6321739,22.2586957 C21.3521739,22.7986957 21.5321739,23.7886957 20.9921739,24.5086957 L20.0021739,25.8586957 C19.3721739,26.5786957 18.2921739,26.7586957 17.5721739,26.2186957 Z M21.3521739,29.0086957 C20.9921739,28.7386957 20.8121739,28.3786957 20.7221739,27.9286957 C20.6321739,27.4786957 20.7221739,27.0286957 20.9921739,26.7586957 L21.9821739,25.4086957 C21.9821739,25.4086957 21.9821739,25.4086957 21.9821739,25.4086957 L22.8821739,24.1486957 C23.1521739,23.6986957 23.6921739,23.5186957 24.2321739,23.5186957 C24.5921739,23.5186957 24.9521739,23.6086957 25.2221739,23.8786957 C25.5821739,24.1486957 25.7621739,24.5086957 25.8521739,24.9586957 C25.9421739,25.4086957 25.8521739,25.8586957 25.5821739,26.1286957 L23.6921739,28.7386957 C23.0621739,29.3686957 21.9821739,29.4586957 21.3521739,29.0086957 Z M27.1121739,30.7186957 L26.8421739,31.0786957 C26.3921739,31.6186957 25.5821739,31.7986957 24.9521739,31.3486957 C24.3221739,30.8986957 24.2321739,30.0886957 24.6821739,29.4586957 L24.9521739,29.0986957 C25.2221739,28.7386957 25.5821739,28.5586957 26.0321739,28.5586957 C26.3021739,28.5586957 26.5721739,28.6486957 26.8421739,28.8286957 C27.4721739,29.2786957 27.5621739,30.0886957 27.1121739,30.7186957 Z M20.0021739,8.66869565 L20.0021739,15.0586957 L20.4521739,15.2386957 C20.5421739,15.2386957 21.8921739,15.6886957 23.2421739,14.8786957 C24.3221739,14.2486957 25.0421739,13.0786957 25.4021739,11.2786957 L29.9921739,11.2786957 C30.4421739,12.6286957 31.7921739,14.6086957 34.9421739,14.6086957 L36.4721739,14.6086957 L46.1921739,21.1786957 C47.0021739,21.7186957 47.1821739,22.7986957 46.6421739,23.6086957 C46.1021739,24.4186957 45.0221739,24.5986957 44.2121739,24.0586957 L41.7821739,22.3486957 L41.7821739,22.3486957 L34.8521739,17.5786957 L34.0421739,18.6586957 L40.9721739,23.4286957 C41.3321739,23.6986957 41.6021739,24.0586957 41.6921739,24.5086957 C41.7821739,24.9586957 41.6921739,25.4086957 41.4221739,25.7686957 C41.1521739,26.1286957 40.7921739,26.3986957 40.3421739,26.4886957 C39.8921739,26.5786957 39.4421739,26.4886957 38.9921739,26.2186957 L36.9221739,24.8686957 C36.8321739,24.7786957 36.8321739,24.7786957 36.7421739,24.6886957 L36.7421739,24.6886957 L33.3221739,22.3486957 L32.6921739,23.6086957 L36.2921739,26.0386957 C36.9221739,26.5786957 37.1021739,27.5686957 36.5621739,28.2886957 C36.0221739,29.0986957 34.9421739,29.2786957 34.1321739,28.7386957 L29.6321739,25.5886957 L28.8221739,26.6686957 L30.4421739,27.8386957 L30.4421739,27.9286957 C30.8021739,28.1986957 31.0721739,28.5586957 31.1621739,29.0086957 C31.2521739,29.4586957 31.1621739,29.9086957 30.8921739,30.2686957 C30.6221739,30.6286957 30.2621739,30.8986957 29.8121739,30.9886957 C29.3621739,31.0786957 28.9121739,30.9886957 28.5521739,30.7186957 C28.9121739,29.6386957 28.6421739,28.3786957 27.6521739,27.6586957 C27.2921739,27.3886957 26.7521739,27.2086957 26.3021739,27.2086957 L26.5721739,26.8486957 C27.0221739,26.2186957 27.2021739,25.4086957 27.1121739,24.5986957 C27.0221739,23.7886957 26.5721739,23.0686957 25.9421739,22.6186957 C25.4021739,22.2586957 24.7721739,21.9886957 24.1421739,21.9886957 C23.5121739,21.9886957 22.8821739,22.1686957 22.3421739,22.6186957 C22.1621739,21.9886957 21.8021739,21.4486957 21.2621739,21.0886957 C20.7221739,20.7286957 20.0921739,20.4586957 19.4621739,20.4586957 C18.8321739,20.4586957 18.2021739,20.6386957 17.7521739,20.9986957 C17.5721739,20.4586957 17.2121739,19.9186957 16.7621739,19.5586957 L16.6721739,19.4686957 C16.0421739,19.0186957 15.3221739,18.8386957 14.6021739,18.9286957 C14.5121739,18.8386957 14.5121739,18.7486957 14.4221739,18.5686957 C14.3321739,18.3886957 14.2421739,18.2086957 14.1521739,17.9386957 C13.7021739,17.0386957 12.8021739,16.2286957 12.2621739,15.7786957 L18.7421739,6.50869565 L23.7821739,6.50869565 L20.0021739,8.66869565 Z" id="Shape"></path>
        </g>
    </g>
</svg>