<svg xmlns="http://www.w3.org/2000/svg" xmlns:xlink="http://www.w3.org/1999/xlink" width="100" height="100" viewBox="0 0 100 100"><g><g transform="translate(50 50) scale(0.69 0.69) rotate(0) translate(-50 -50)" style="fill:#283f5c"><svg fill="#283f5c" xmlns="http://www.w3.org/2000/svg" xmlns:xlink="http://www.w3.org/1999/xlink" version="1.1" x="0px" y="0px" viewBox="0 0 60 60" style="enable-background:new 0 0 60 60;" xml:space="preserve"><path d="M47.097168,28.1949463v-5.1051025l-4.6791992-1.1035156c-0.3427734-1.1948242-0.8198242-2.3447266-1.4228516-3.4321289  l2.5288086-4.090332l-4.890625-4.890625l-4.090332,2.5288086c-1.0874023-0.6030273-2.237793-1.0800781-3.4326172-1.4228516  L30.0068359,6h-6.9169922l-1.1035156,4.6791992c-1.1953125,0.3432617-2.3452148,0.8198242-3.4321289,1.4223633l-4.0898438-2.5283203  l-4.8916016,4.890625l2.5288086,4.0898438c-0.6025391,1.0859375-1.0791016,2.2363281-1.4223633,3.4326172L6,23.0898438v6.9169922  l4.6791992,1.1040039c0.3432617,1.1962891,0.8198242,2.3461914,1.4223633,3.4326172l-2.5283203,4.0898438l4.890625,4.890625  l4.0898438-2.5283203c1.0869141,0.6025391,2.2373047,1.0791016,3.4326172,1.4223633l1.1035156,4.6791992h5.1051025  C30.5961914,51.2174072,35.0518188,54,40.1547852,54C47.7890625,54,54,47.7890625,54,40.1547852  C54,35.0518188,51.2174072,30.5961914,47.097168,28.1949463z M24.6728516,45.097168l-1.0175781-4.3149414l-0.5932617-0.1464844  c-1.4140625-0.3496094-2.762207-0.9082031-4.0073242-1.6611328L18.53125,38.6577148l-3.7724609,2.3330078l-2.6523438-2.6523438  l2.3330078-3.7729492l-0.3168945-0.5229492c-0.7524414-1.2436523-1.3115234-2.5917969-1.6611328-4.0073242l-0.1464844-0.5932617  L8,28.4238281v-3.7509766l4.3149414-1.0175781l0.1464844-0.5932617c0.3496094-1.4155273,0.9086914-2.7636719,1.6611328-4.0073242  l0.3168945-0.5229492l-2.3325195-3.7729492l2.6523438-2.6523438l3.7719727,2.3330078l0.5234375-0.3168945  c1.2451172-0.7529297,2.59375-1.3115234,4.0073242-1.6606445l0.5932617-0.1464844L24.6728516,8h3.7509766l1.0175781,4.315918  l0.59375,0.1459961c1.4125977,0.3486328,2.7612305,0.9077148,4.0073242,1.6611328l0.5234375,0.315918l3.7724609-2.3325195  l2.6523438,2.6523438L38.6582031,18.53125l0.315918,0.5234375c0.753418,1.2460938,1.3125,2.5942383,1.6611328,4.0073242  l0.1464844,0.5932617l4.3154297,1.0175781v2.5644531c-1.5375366-0.5904541-3.199585-0.9277344-4.9423828-0.9277344  c-1.1895142,0-2.3380737,0.1668091-3.4403687,0.4502563c0.0014648-0.0703735,0.0092163-0.140625,0.0092163-0.2109985  c0-5.6108398-4.5644531-10.175293-10.175293-10.175293c-5.6103516,0-10.1748047,4.5644531-10.1748047,10.175293  c0,5.6103516,4.5644531,10.1748047,10.1748047,10.1748047c0.0705566,0,0.1407471-0.0072632,0.2113037-0.008728  c-0.2833862,1.1021118-0.4500732,2.2505493-0.4500732,3.4398804c0,1.7427979,0.3372803,3.4048462,0.9277344,4.9423828H24.6728516z   M27.458252,34.6484985c-0.3024292,0.0335083-0.6040649,0.0751343-0.9099121,0.0751343  c-4.5078125,0-8.1748047-3.6669922-8.1748047-8.1748047s3.6669922-8.175293,8.1748047-8.175293  s8.175293,3.6674805,8.175293,8.175293c0,0.3010254-0.0223389,0.6011963-0.0551147,0.8997803  C31.4472656,28.8449707,28.8596802,31.4298706,27.458252,34.6484985z M32.1577759,48.8673096  c0.1593628-4.2785034,3.6801758-7.7125244,7.9970093-7.7125244s7.8376465,3.434021,7.9970093,7.7125244  C46.0419922,50.805481,43.2386475,52,40.1547852,52S34.2675781,50.805481,32.1577759,48.8673096z M36.9907227,35.9907227  c0-1.7446289,1.4194336-3.1635742,3.1640625-3.1635742s3.1635742,1.4189453,3.1635742,3.1635742  s-1.4189453,3.1640625-3.1635742,3.1640625S36.9907227,37.7353516,36.9907227,35.9907227z M49.8933716,46.8809204  c-0.7703247-3.2798462-3.1538086-5.9364014-6.2676392-7.0929565c1.0327759-0.9448853,1.692627-2.2902832,1.692627-3.7972412  c0-2.847168-2.3164063-5.1635742-5.1635742-5.1635742c-2.8476563,0-5.1640625,2.3164063-5.1640625,5.1635742  c0,1.507019,0.6599121,2.8525391,1.6928101,3.7973633c-3.1137085,1.1566162-5.4970093,3.8131104-6.267334,7.0928345  c-1.3250732-1.9124756-2.1066284-4.2285767-2.1066284-6.7261353c0-6.53125,5.3139648-11.8452148,11.8452148-11.8452148  S52,33.6235352,52,40.1547852C52,42.6523438,51.2184448,44.9684448,49.8933716,46.8809204z"></path></svg></g></g></svg>