<?xml version="1.0" encoding="UTF-8"?>
<svg width="30px" viewBox="0 0 75 142" version="1.1" xmlns="http://www.w3.org/2000/svg" xmlns:xlink="http://www.w3.org/1999/xlink">
    <!-- Generator: Sketch 54.1 (76490) - https://sketchapp.com -->
    <title>icon-invest 2</title>
    <desc>Created with Sketch.</desc>
    <g id="Page-1" stroke="none" stroke-width="1" fill="none" fill-rule="evenodd">
        <g id="icon-invest-2" transform="translate(-3.000000, -4.000000)" fill="#283F5C" fill-rule="nonzero">
            <path d="M54.2,100.873333 C66.9025492,100.873333 77.2,90.5758826 77.2,77.8733333 L63.4,77.8733333 C54.5528328,77.898378 46.5042617,82.9958063 42.7,90.9833333 L42.7,69.1333333 C59.9914486,67.895067 73.1989604,53.1895015 72.5794315,35.8648462 C71.9599025,18.5401908 57.735729,4.81558123 40.4,4.81558123 C23.064271,4.81558123 8.84009746,18.5401908 8.22056854,35.8648462 C7.60103963,53.1895015 20.8085514,67.895067 38.1,69.1333333 L38.1,105.013333 C34.3089594,97.0078849 26.2576561,91.8908343 17.4,91.8573333 L3.6,91.8573333 C3.6,104.559883 13.8974508,114.857333 26.6,114.857333 L38.1,114.857333 L38.1,140.617333 L22,140.617333 C20.7297451,140.617333 19.7,141.647078 19.7,142.917333 C19.7244725,144.177312 20.7400211,145.192861 22,145.217333 L58.8,145.217333 C60.0702549,145.217333 61.1,144.187588 61.1,142.917333 C61.1,141.647078 60.0702549,140.617333 58.8,140.617333 L42.7,140.617333 L42.7,100.873333 L54.2,100.873333 Z M37.64,54.8733333 C32.1450662,54.8480108 27.7039417,50.3863254 27.704,44.8913333 C27.704,43.6210784 28.7337451,42.5913333 30.004,42.5913333 C31.2742549,42.5913333 32.304,43.6210784 32.304,44.8913333 C32.3038921,47.845858 34.6855832,50.248081 37.64,50.2733333 L42.792,50.2733333 C45.5599459,50.0166131 47.6769658,47.6941589 47.6769658,44.9143333 C47.6769658,42.1345078 45.5599459,39.8120536 42.792,39.5553333 L37.64,39.5553333 C32.4020464,39.199142 28.3352319,34.8463838 28.3352319,29.5963333 C28.3352319,24.3462829 32.4020464,19.9935246 37.64,19.6373333 L37.916,19.6373333 L37.916,16.7393333 C37.916,15.4690784 38.9457451,14.4393333 40.216,14.4393333 C41.4862549,14.4393333 42.516,15.4690784 42.516,16.7393333 L42.516,19.6373333 L42.792,19.6373333 C48.2795013,19.6373333 52.728,24.0858321 52.728,29.5733333 C52.728,30.8435883 51.6982549,31.8733333 50.428,31.8733333 C49.1577451,31.8733333 48.128,30.8435883 48.128,29.5733333 C48.128,28.1581381 47.5658159,26.8009057 46.5651218,25.8002115 C45.5644277,24.7995174 44.2071952,24.2373333 42.792,24.2373333 L37.64,24.2373333 C34.8720541,24.4940536 32.7550342,26.8165078 32.7550342,29.5963333 C32.7550342,32.3761589 34.8720541,34.6986131 37.64,34.9553333 L42.792,34.9553333 C48.0299536,35.3115246 52.0967681,39.6642829 52.0967681,44.9143333 C52.0967681,50.1643838 48.0299536,54.517142 42.792,54.8733333 L42.516,54.8733333 L42.516,57.6793333 C42.516,58.9495883 41.4862549,59.9793333 40.216,59.9793333 C38.9457451,59.9793333 37.916,58.9495883 37.916,57.6793333 L37.916,54.8733333 L37.64,54.8733333 Z" id="Shape"></path>
        </g>
    </g>
</svg>