<svg xmlns="http://www.w3.org/2000/svg" xmlns:xlink="http://www.w3.org/1999/xlink" width="100" height="100" viewBox="0 0 100 100"><g><g transform="translate(50 50) scale(0.69 0.69) rotate(0) translate(-50 -50)" style="fill:#ffffff"><svg fill="#ffffff" xmlns="http://www.w3.org/2000/svg" xmlns:xlink="http://www.w3.org/1999/xlink" version="1.1" x="0px" y="0px" viewBox="0 0 100 100" style="enable-background:new 0 0 100 100;" xml:space="preserve"><g><path d="M91.09,67.407c-0.069-0.261-0.24-0.482-0.474-0.617l-2.424-1.399c0.03-0.329,0.044-0.634,0.044-0.934   c0-0.677-0.065-1.368-0.193-2.065l2.046-1.181c0.233-0.135,0.404-0.357,0.474-0.617c0.07-0.261,0.033-0.538-0.101-0.771   l-3.469-6.009c-0.281-0.486-0.902-0.654-1.389-0.372l-2.426,1.4c-0.83-0.574-1.724-1.034-2.67-1.374v-2.36   c0-0.561-0.455-1.016-1.016-1.016h-2.848V34.873c0.004-0.035,0.02-0.065,0.02-0.101c0-0.34-0.168-0.642-0.425-0.827l-8.601-8.686   c0.019-0.078,0.048-0.152,0.048-0.236V13.485c0-0.561-0.455-1.016-1.016-1.016h-8.337V5.883c0-0.561-0.455-1.016-1.016-1.016H9.891   c-0.561,0-1.016,0.455-1.016,1.016V71.62c0,0.561,0.455,1.016,1.016,1.016h8.337v6.586c0,0.561,0.455,1.016,1.016,1.016h7.941   v6.833c0,0.561,0.455,1.016,1.016,1.016H46.69c0.106,0.542,0.62,0.906,1.172,0.807l2.125-0.377   c0.444,0.607,0.955,1.156,1.527,1.645l-0.609,1.683c-0.192,0.528,0.081,1.111,0.609,1.302l5.31,1.925   c0.114,0.042,0.231,0.062,0.346,0.062c0.415,0,0.806-0.257,0.955-0.671l0.736-2.03c0.228-0.022,0.443-0.052,0.652-0.089   c0.511-0.091,1.025-0.229,1.536-0.412l1.153,1.37c0.361,0.429,1.002,0.485,1.432,0.124l4.323-3.636   c0.43-0.361,0.485-1.003,0.124-1.432l-0.228-0.271h7.775c0.561,0,1.016-0.455,1.016-1.016v-8.249h3.902   c0.561,0,1.016-0.455,1.016-1.016v-2.796c0.91-0.432,1.755-0.978,2.525-1.63l2.044,1.18c0.486,0.28,1.107,0.114,1.389-0.372   l3.469-6.009C91.124,67.945,91.16,67.668,91.09,67.407z M63.339,23.806l9.852,9.949h-9.852V23.806z M10.908,70.603V6.9H56.3v5.569   H19.245c-0.561,0-1.016,0.455-1.016,1.016v57.118H10.908z M20.261,78.205v-6.583c0-0.001,0-0.002,0-0.002s0-0.002,0-0.002V14.502   h45.392v8.752l-2.609-2.635c0,0-0.001,0-0.001-0.001c-0.006-0.006-0.014-0.009-0.02-0.015c-0.081-0.077-0.173-0.137-0.271-0.183   c-0.032-0.015-0.066-0.024-0.1-0.036c-0.086-0.03-0.174-0.048-0.265-0.054c-0.022-0.001-0.041-0.013-0.064-0.013h-34.12   c-0.561,0-1.016,0.455-1.016,1.016v56.871H20.261z M63.104,91.217l-0.972-1.156c-0.29-0.347-0.777-0.457-1.191-0.274   c-0.593,0.264-1.192,0.451-1.782,0.556c-0.312,0.056-0.65,0.088-1.063,0.104c-0.414,0.016-0.777,0.28-0.918,0.669l-0.616,1.698   l-3.4-1.232l0.514-1.417c0.155-0.426,0.008-0.903-0.359-1.169c-0.803-0.582-1.475-1.299-1.998-2.134   c-0.22-0.35-0.626-0.536-1.039-0.46l-1.772,0.315l-0.632-3.56l1.483-0.264c0.447-0.079,0.787-0.445,0.833-0.896   c0.101-0.978,0.388-1.918,0.852-2.793c0.195-0.366,0.147-0.814-0.12-1.131l-1.161-1.38l2.767-2.328l0.972,1.155   c0.291,0.347,0.778,0.459,1.191,0.274c0.593-0.264,1.192-0.451,1.782-0.555c0.315-0.056,0.653-0.089,1.064-0.104   c0.413-0.016,0.776-0.28,0.917-0.67l0.616-1.698l3.399,1.232l-0.514,1.418c-0.155,0.426-0.008,0.903,0.359,1.169   c0.802,0.581,1.474,1.299,1.998,2.135c0.22,0.35,0.632,0.534,1.039,0.46l1.772-0.315l0.632,3.56l-1.483,0.263   c-0.447,0.079-0.787,0.445-0.833,0.896c-0.101,0.978-0.388,1.917-0.852,2.793c-0.194,0.366-0.147,0.813,0.12,1.131l1.161,1.381   L63.104,91.217z M74.611,86.055h-7.679c0.176-0.488,0.326-0.983,0.42-1.493l1.761-0.313c0.553-0.098,0.921-0.625,0.823-1.178   l-0.988-5.562c-0.047-0.265-0.198-0.501-0.418-0.656c-0.222-0.154-0.495-0.217-0.76-0.167l-2.125,0.377   c-0.444-0.606-0.954-1.156-1.528-1.645l0.61-1.683c0.192-0.528-0.081-1.111-0.609-1.302l-5.31-1.925   c-0.524-0.192-1.11,0.081-1.302,0.609l-0.736,2.03c-0.227,0.022-0.441,0.052-0.651,0.088c-0.511,0.091-1.025,0.229-1.536,0.412   l-1.153-1.37c-0.361-0.43-1.001-0.484-1.432-0.124l-4.323,3.637c-0.207,0.174-0.336,0.422-0.358,0.69   c-0.023,0.269,0.061,0.536,0.235,0.742l1.392,1.654c-0.305,0.689-0.527,1.406-0.664,2.143l-1.761,0.313   c-0.553,0.098-0.921,0.625-0.823,1.178l0.63,3.545H29.219V22.351h32.087v12.421c0,0.561,0.455,1.016,1.016,1.016h12.289v14.302   h-2.057c-0.561,0-1.016,0.455-1.016,1.016v2.796c-0.909,0.432-1.755,0.978-2.525,1.63l-2.044-1.18   c-0.234-0.135-0.513-0.172-0.771-0.101c-0.261,0.07-0.483,0.24-0.618,0.474l-3.469,6.009c-0.134,0.233-0.171,0.511-0.101,0.771   c0.07,0.261,0.24,0.482,0.474,0.617l2.424,1.399c-0.03,0.33-0.044,0.635-0.044,0.934c0,0.676,0.064,1.368,0.193,2.065l-2.046,1.181   c-0.233,0.135-0.404,0.357-0.474,0.617c-0.07,0.261-0.033,0.538,0.101,0.771l3.469,6.009c0.135,0.233,0.357,0.404,0.617,0.473   c0.259,0.07,0.537,0.033,0.771-0.101l2.426-1.401c0.83,0.574,1.724,1.035,2.67,1.375v2.36c0,0.561,0.455,1.016,1.016,1.016h1.003   V86.055z M86.268,72.291l-1.804-1.042c-0.394-0.227-0.889-0.166-1.214,0.149c-0.897,0.866-1.935,1.541-3.085,2.005   c-0.384,0.155-0.635,0.528-0.635,0.942v2.443h-4.905v-2.083c0-0.454-0.301-0.852-0.737-0.977c-1.191-0.341-2.292-0.903-3.273-1.671   c-0.326-0.255-0.776-0.286-1.135-0.08l-2.12,1.224l-2.453-4.248l1.807-1.043c0.393-0.227,0.588-0.685,0.478-1.125   c-0.197-0.792-0.296-1.576-0.296-2.33c0-0.4,0.033-0.825,0.105-1.341c0.057-0.41-0.14-0.813-0.498-1.02L64.38,60.87l2.453-4.248   l1.804,1.042c0.394,0.227,0.89,0.165,1.214-0.149c0.897-0.866,1.935-1.541,3.085-2.006c0.384-0.155,0.635-0.528,0.635-0.942v-2.443   h4.905v2.083c0,0.454,0.301,0.852,0.736,0.977c1.19,0.341,2.292,0.903,3.273,1.671c0.327,0.255,0.776,0.286,1.135,0.08l2.12-1.224   l2.453,4.248l-1.807,1.043c-0.392,0.227-0.588,0.685-0.478,1.125c0.196,0.791,0.296,1.575,0.296,2.331   c0,0.402-0.033,0.828-0.104,1.341c-0.057,0.41,0.14,0.813,0.498,1.02l2.122,1.225L86.268,72.291z"></path><path d="M76.55,58.305c-3.392,0-6.151,2.76-6.151,6.152c0,3.392,2.759,6.152,6.151,6.152c3.392,0,6.152-2.76,6.152-6.152   C82.701,61.065,79.942,58.305,76.55,58.305z M76.55,68.575c-2.271,0-4.118-1.847-4.118-4.119c0-2.271,1.847-4.119,4.118-4.119   c2.271,0,4.119,1.847,4.119,4.119C80.668,66.728,78.821,68.575,76.55,68.575z"></path><path d="M57.821,77.592c-0.304,0-0.611,0.027-0.913,0.081c-2.821,0.501-4.709,3.204-4.208,6.026   c0.441,2.485,2.592,4.289,5.113,4.289c0.304,0,0.612-0.027,0.913-0.081c2.821-0.501,4.709-3.204,4.208-6.025   C62.492,79.396,60.342,77.592,57.821,77.592z M58.37,85.906c-1.757,0.312-3.368-0.868-3.669-2.562   c-0.305-1.718,0.845-3.364,2.562-3.669c0.188-0.033,0.374-0.049,0.558-0.049c1.534,0,2.843,1.098,3.112,2.612   C61.237,83.954,60.087,85.6,58.37,85.906z"></path><path d="M33.604,45.01h13.093c0.561,0,1.016-0.455,1.016-1.016v-15.94c0-0.561-0.455-1.016-1.016-1.016H33.604   c-0.561,0-1.016,0.455-1.016,1.016v15.94C32.588,44.555,33.043,45.01,33.604,45.01z M34.621,29.07h11.06v13.907h-11.06V29.07z"></path><path d="M64.008,51.898c0-0.561-0.455-1.016-1.016-1.016H33.604c-0.561,0-1.016,0.455-1.016,1.016c0,0.561,0.455,1.016,1.016,1.016   h29.387C63.552,52.914,64.008,52.459,64.008,51.898z"></path><path d="M54.945,62.606H33.604c-0.561,0-1.016,0.455-1.016,1.016c0,0.561,0.455,1.016,1.016,1.016h21.341   c0.561,0,1.016-0.455,1.016-1.016C55.962,63.061,55.507,62.606,54.945,62.606z"></path><path d="M44.736,74.437H33.604c-0.561,0-1.016,0.455-1.016,1.016c0,0.561,0.455,1.016,1.016,1.016h11.132   c0.561,0,1.016-0.455,1.016-1.016C45.752,74.892,45.297,74.437,44.736,74.437z"></path></g></svg></g></g></svg>