<svg xmlns="http://www.w3.org/2000/svg" xmlns:xlink="http://www.w3.org/1999/xlink" width="100" height="100" viewBox="0 0 100 100"><g><g transform="translate(50 50) scale(0.69 0.69) rotate(0) translate(-50 -50)" style="fill:#283f5c"><svg fill="#283f5c" xmlns="http://www.w3.org/2000/svg" xmlns:xlink="http://www.w3.org/1999/xlink" version="1.1" x="0px" y="0px" viewBox="0 0 1024 1024" style="enable-background:new 0 0 1024 1024;" xml:space="preserve"><path d="M689.3,473.8c-21.8,21.8-43.6,43.6-65.4,65.4C589,574.1,454,709.1,419.1,744c-10.9,10.9-21.9,21.9-32.8,32.8  l-8.5,8.5c-0.6,0.6-1.2,1.2-1.8,1.8c-5.5,5.2-11.2,7-18.5,7.7c-38,3.7-76,6.9-114.1,10.4c-12.5,1.1-26.3-12.4-25.1-25.1  c0.2-2.2,0.4-4.4,0.7-6.6c3-29.8,6-59.6,9-89.4c0.5-4.9,1-9.7,1.5-14.6c0.1-0.9,0.2-1.9,0.3-2.8c0.8-7.2,2.5-12.7,7.4-18  c2.1-2.3,4.4-4.4,6.6-6.6c13.1-13.1,26.2-26.1,39.2-39.2c20.9-20.9,41.9-41.9,62.8-62.8c24.1-24.1,148.1-148.1,172.2-172.2  c10.9-10.9,21.8-21.8,32.6-32.7l17.7,17.7c5.7,5.7,11.3,11.3,17,17c0.2,0.2,0.5,0.5,0.7,0.7l67.7,67.7c5.9,5.9,11.8,11.8,17.7,17.7  L689.3,473.8z"></path><path d="M804.9,332.9c-1.8-9-7.7-16.9-14-23.4c-1.8-1.9-3.7-3.7-5.6-5.6c-10.3-10.3-20.6-20.6-30.9-30.9  c-10.7-10.7-21.3-21.3-32-32c-2.4-2.4-4.8-4.8-7.2-7.2c-13.6-13.5-32.6-20.2-50.4-10.4c-5.7,3.1-10,7.6-14.5,12.1  c-4.7,4.7-9.4,9.4-14,14c-16.7,16.7-33.4,33.4-50.1,50.1c5.9,5.9,11.8,11.8,17.7,17.7c5.9,5.9,11.8,11.8,17.7,17.7  c2.2,2.2,4.3,4.5,6.5,6.7c20.3,20.3,40.9,40.7,60.9,61v0c0,0.2,0.6,0.5,0.9,0.7c5.7,5.7,11.4,11.3,17,17c0,0,0,0,0.1,0  c5.9,5.9,11.8,11.8,17.7,17.7c3-3,6.1-6.1,9.1-9.1c19.5-19.5,39.3-38.8,58.6-58.6l0.1-0.1c0.3-0.3,0.6-0.5,0.8-0.8  c0.3-0.3,0.5-0.5,0.7-0.8c0.2-0.2,0.3-0.3,0.4-0.5C803.4,358.5,807.6,346.4,804.9,332.9z"></path><g><g><path d="M855.7,891.7c-6.2,0-12.4,0-18.7,0c-16.9,0-33.8,0-50.8,0c-24.9,0-49.7,0-74.6,0c-30.4,0-60.9,0-91.3,0    c-33.3,0-66.6,0-99.8,0c-33.5,0-67,0-100.5,0c-31.1,0-62.2,0-93.3,0c-26.1,0-52.1,0-78.2,0c-18.3,0-36.7,0-55,0    c-8.2,0-16.4,0-24.6,0c-3.9,0-7.8-0.2-11.6-0.7c4.4,0.6,8.9,1.2,13.3,1.8c-7.6-1-14.9-3-22-5.9c4,1.7,8,3.4,11.9,5    c-6.9-3-13.3-6.7-19.3-11.3c3.4,2.6,6.7,5.2,10.1,7.8c-5.9-4.6-11.1-9.8-15.7-15.7c2.6,3.4,5.2,6.7,7.8,10.1    c-4.5-6-8.3-12.4-11.3-19.3c1.7,4,3.4,8,5,11.9c-2.9-7.1-4.9-14.4-5.9-22c0.6,4.4,1.2,8.9,1.8,13.3c-1.1-9-0.7-18.1-0.7-27.2    c0-16.4,0-32.9,0-49.3c0-24.7,0-49.4,0-74.1c0-30.5,0-61,0-91.6c0-33.4,0-66.7,0-100.1c0-33.7,0-67.4,0-101.1c0-31.5,0-63,0-94.5    c0-26.3,0-52.7,0-79c0-18.7,0-37.5,0-56.2c0-8.3,0-16.5,0-24.8c0-3.9,0.2-7.8,0.7-11.6c-0.6,4.4-1.2,8.9-1.8,13.3    c1-7.6,3-14.9,5.9-22c-1.7,4-3.4,8-5,11.9c3-6.9,6.7-13.3,11.3-19.3c-2.6,3.4-5.2,6.7-7.8,10.1c4.6-5.9,9.8-11.1,15.7-15.7    c-3.4,2.6-6.7,5.2-10.1,7.8c6-4.5,12.4-8.3,19.3-11.3c-4,1.7-8,3.4-11.9,5c7.1-2.9,14.4-4.9,22-5.9c-4.4,0.6-8.9,1.2-13.3,1.8    c9-1.1,18.1-0.7,27.2-0.7c16.4,0,32.9,0,49.3,0c24.7,0,49.4,0,74.1,0c30.5,0,61,0,91.6,0c33.4,0,66.7,0,100.1,0    c33.7,0,67.4,0,101.1,0c31.5,0,63,0,94.5,0c26.3,0,52.7,0,79,0c18.7,0,37.5,0,56.2,0c8.3,0,16.5,0,24.8,0c3.9,0,7.8,0.2,11.6,0.7    c-4.4-0.6-8.9-1.2-13.3-1.8c7.6,1,14.9,3,22,5.9c-4-1.7-8-3.4-11.9-5c6.9,3,13.3,6.7,19.3,11.3c-3.4-2.6-6.7-5.2-10.1-7.8    c5.9,4.6,11.1,9.8,15.7,15.7c-2.6-3.4-5.2-6.7-7.8-10.1c4.5,6,8.3,12.4,11.3,19.3c-1.7-4-3.4-8-5-11.9c2.9,7.1,4.9,14.4,5.9,22    c-0.6-4.4-1.2-8.9-1.8-13.3c1.1,9,0.7,18.1,0.7,27.2c0,16.4,0,32.9,0,49.3c0,24.7,0,49.4,0,74.1c0,30.5,0,61,0,91.6    c0,33.4,0,66.7,0,100.1c0,33.7,0,67.4,0,101.1c0,31.5,0,63,0,94.5c0,26.3,0,52.7,0,79c0,18.7,0,37.5,0,56.2c0,8.3,0,16.5,0,24.8    c0,3.9-0.2,7.8-0.7,11.6c0.6-4.4,1.2-8.9,1.8-13.3c-1,7.6-3,14.9-5.9,22c1.7-4,3.4-8,5-11.9c-3,6.9-6.7,13.3-11.3,19.3    c2.6-3.4,5.2-6.7,7.8-10.1c-4.6,5.9-9.8,11.1-15.7,15.7c3.4-2.6,6.7-5.2,10.1-7.8c-6,4.5-12.4,8.3-19.3,11.3c4-1.7,8-3.4,11.9-5    c-7.1,2.9-14.4,4.9-22,5.9c4.4-0.6,8.9-1.2,13.3-1.8C863,891.4,859.4,891.6,855.7,891.7c-12.9,0.1-26.2,5.5-35.4,14.6    c-8.7,8.7-15.2,22.9-14.6,35.4c0.6,12.9,4.8,26.3,14.6,35.4c9.7,8.9,21.8,14.8,35.4,14.6c36.4-0.3,72.8-15.1,97.9-41.8    c24.1-25.6,37.9-59,38.1-94.2c0.1-8,0-15.9,0-23.9c0-20.3,0-40.7,0-61c0-29.3,0-58.5,0-87.8c0-34.8,0-69.5,0-104.3    c0-37,0-74,0-111c0-35.5,0-70.9,0-106.4c0-30.7,0-61.3,0-92c0-22.4,0-44.8,0-67.3c0-10.8,0-21.5,0-32.3c0-22.3-5.4-42.1-14.5-62.1    c-2.5-5.4-5.5-10.5-9-15.3c-5.8-8-11.9-16.1-19.2-22.8c-15.3-14-31.8-23.5-51.2-30.4c-18.2-6.5-37.4-6.8-56.4-6.8    c-17.6,0-35.3,0-52.9,0c-27.5,0-55.1,0-82.6,0c-33.8,0-67.5,0-101.3,0c-36.7,0-73.3,0-110,0c-36.1,0-72.2,0-108.3,0    c-32.1,0-64.3,0-96.4,0c-24.8,0-49.7,0-74.5,0c-13.8,0-27.7,0-41.5,0c-2.7,0-5.4,0-8.2,0c-36.1,1.2-72.6,16.4-96.9,43.7    c-22.8,25.7-36.1,57.7-36.3,92.3c0,2.3,0,4.7,0,7c0,14.8,0,29.7,0,44.5c0,25.4,0,50.8,0,76.2c0,32.5,0,65.1,0,97.6    c0,36.3,0,72.5,0,108.8c0,36.6,0,73.1,0,109.7c0,33.6,0,67.1,0,100.7c0,26.8,0,53.6,0,80.5c0,16.8,0,33.6,0,50.4    c0,3.6,0,7.1,0,10.7c0,22.8,5.6,44,15.7,64.3c3.5,7.1,8.1,13.3,13,19.5c5,6.4,9.9,12.6,16.1,17.9c15.7,13.5,32,23.2,51.8,29.6    c13.4,4.3,27.8,5.9,41.8,5.9c11.7,0,23.4,0,35.1,0c23.1,0,46.3,0,69.4,0c31.1,0,62.2,0,93.4,0c35.8,0,71.7,0,107.5,0    c36.8,0,73.6,0,110.4,0c34.5,0,69,0,103.5,0c28.7,0,57.5,0,86.2,0c19.6,0,39.2,0,58.9,0c6.9,0,13.8,0,20.7,0    c12.8,0,26.3-5.6,35.4-14.6c8.7-8.7,15.2-22.9,14.6-35.4c-0.6-12.9-4.8-26.3-14.6-35.4C881.2,897.3,869.2,891.7,855.7,891.7z"></path></g></g></svg></g></g></svg>