<?xml version="1.0" encoding="UTF-8"?>
<svg width="7px" viewBox="0 0 9 12" version="1.1" xmlns="http://www.w3.org/2000/svg" xmlns:xlink="http://www.w3.org/1999/xlink">
    <!-- Generator: Sketch 50.2 (55047) - http://www.bohemiancoding.com/sketch -->
    <title>Page-1</title>
    <desc>Created with Sketch.</desc>
    <defs></defs>
    <g id="Dashboard" stroke="none" stroke-width="1" fill="none" fill-rule="evenodd">
        <g id="Engaging-Content" transform="translate(-494.000000, -434.000000)" fill="#283F5C" fill-rule="nonzero">
            <g id="Group-4" transform="translate(20.000000, 253.000000)">
                <g id="arrow" transform="translate(462.461538, 271.538462) rotate(-90.000000) translate(-462.461538, -271.538462) translate(372.461538, 251.538462)">
                    <path d="M170.600459,40.5142103 L170.600459,31.3204571 C170.600459,31.0953125 170.716176,30.8895777 170.907266,30.7814417 C171.104195,30.6533426 171.353149,30.6644337 171.539463,30.8075057 L178.320044,35.3907956 C178.502112,35.4972676 178.609866,35.7030029 178.59978,35.9214928 C178.604026,36.1405365 178.497866,36.3462719 178.320044,36.461062 L171.539463,41.0293796 C171.442324,41.0986977 171.330324,41.1402879 171.211949,41.1530423 C171.102072,41.1596971 170.994318,41.1247611 170.905142,41.0576614 C170.714053,40.9495254 170.598336,40.7393543 170.600459,40.5142103 Z" id="Page-1" transform="translate(174.600430, 35.923077) rotate(-270.000000) translate(-174.600430, -35.923077) "></path>
                </g>
            </g>
        </g>
    </g>
</svg>