<?xml version="1.0" encoding="UTF-8"?>
<svg width="80px" height="63px" viewBox="0 0 80 63" version="1.1" xmlns="http://www.w3.org/2000/svg" xmlns:xlink="http://www.w3.org/1999/xlink">
    <!-- Generator: Sketch 54.1 (76490) - https://sketchapp.com -->
    <title>logo-light-w-mark</title>
    <desc>Created with Sketch.</desc>
    <g id="New-User-Acct-Sett-'Acct-Verification-Flow'-" stroke="none" stroke-width="1" fill="none" fill-rule="evenodd">
        <g id="Sign-Up-Screen" transform="translate(-679.000000, -216.000000)">
            <g id="logo-light-w-mark" transform="translate(679.676000, 216.000000)">
                <g id="logo-light" transform="translate(21.324000, 0.000000)">
                    <polygon id="Line" stroke="#8E9385" fill="#8E9385" fill-rule="nonzero" points="19.2821924 24 21.2666667 24.0234764 20.9844743 34.9803922 19 34.9569158"></polygon>
                    <polygon id="Line" stroke="#8E9385" fill="#8E9385" fill-rule="nonzero" points="27.589744 22.3656374 27.5682874 24.019608 12 23.6539706 12.0214566 22"></polygon>
                    <circle id="Oval-1" fill="#FFFFFF" opacity="0.476283482" cx="20" cy="20" r="20"></circle>
                    <polygon id="Line" fill="#FFFFFF" fill-rule="nonzero" points="8.78837109 27.6078431 7 26.5908071 18.288552 8 20.0769231 9.01703605"></polygon>
                    <polygon id="Line" fill="#FFFFFF" fill-rule="nonzero" transform="translate(25.538462, 17.803922) scale(-1, 1) translate(-25.538462, -17.803922) " points="20.7756126 27.6078431 19 26.5858335 30.3013105 8 32.0769231 9.02200959"></polygon>
                    <ellipse id="Oval-10" stroke="#9B9B9B" stroke-width="0.5" fill="#FFFFFF" cx="19.7307692" cy="34.7843137" rx="1.73076923" ry="1"></ellipse>
                    <ellipse id="Oval-10" stroke="#9B9B9B" stroke-width="0.5" fill="#FFFFFF" cx="19.5384615" cy="7.78431373" rx="1.53846154" ry="1"></ellipse>
                    <ellipse id="Oval-10" stroke="#9B9B9B" stroke-width="0.5" fill="#FFFFFF" transform="translate(7.725812, 26.431837) rotate(29.000000) translate(-7.725812, -26.431837) " cx="7.72581162" cy="26.4318372" rx="1.53846154" ry="1"></ellipse>
                    <ellipse id="Oval-10" stroke="#9B9B9B" stroke-width="0.5" fill="#FFFFFF" transform="translate(31.724504, 26.448466) rotate(-30.000000) translate(-31.724504, -26.448466) " cx="31.7245036" cy="26.4484664" rx="1.53846154" ry="1"></ellipse>
                </g>
                <path d="M6.96,62 L6.468,60.656 L3.072,60.656 L2.568,62 L3.41060513e-13,62 L3.588,53.588 L6.156,53.588 L9.624,62 L6.96,62 Z M3.768,58.832 L5.808,58.832 L4.8,56.084 L3.768,58.832 Z M16.024,53.588 C16.6720032,53.588 17.2399976,53.6739991 17.728,53.846 C18.2160024,54.0180009 18.5919987,54.2639984 18.856,54.584 C19.1200013,54.9040016 19.252,55.2799978 19.252,55.712 C19.252,56.1360021 19.1240013,56.5119984 18.868,56.84 C18.6119987,57.1680016 18.2640022,57.3959994 17.824,57.524 C18.3360026,57.6280005 18.7459985,57.8739981 19.054,58.262 C19.3620015,58.6500019 19.516,59.1119973 19.516,59.648 C19.516,60.1200024 19.3800014,60.5339982 19.108,60.89 C18.8359986,61.2460018 18.4500025,61.519999 17.95,61.712 C17.4499975,61.904001 16.8680033,62 16.204,62 L11.896,62 L11.896,53.588 L16.024,53.588 Z M15.892,56.888 C16.1400012,56.888 16.3359993,56.8220007 16.48,56.69 C16.6240007,56.5579993 16.696,56.3800011 16.696,56.156 C16.696,55.9399989 16.6240007,55.7700006 16.48,55.646 C16.3359993,55.5219994 16.1400012,55.46 15.892,55.46 L14.38,55.46 L14.38,56.888 L15.892,56.888 Z M15.892,60.128 C16.2120016,60.136 16.4659991,60.0680007 16.654,59.924 C16.8420009,59.7799993 16.936,59.5840012 16.936,59.336 C16.936,59.1039988 16.8420009,58.9220007 16.654,58.79 C16.4659991,58.6579993 16.2120016,58.596 15.892,58.604 L14.38,58.604 L14.38,60.128 L15.892,60.128 Z M28.244,56.3 C27.7959978,56.0359987 27.3040027,55.8120009 26.768,55.628 C26.2319973,55.4439991 25.7920017,55.352 25.448,55.352 C25.2319989,55.352 25.0620006,55.3939996 24.938,55.478 C24.8139994,55.5620004 24.752,55.6839992 24.752,55.844 C24.752,56.0680011 24.8719988,56.2419994 25.112,56.366 C25.3520012,56.4900006 25.7319974,56.6239993 26.252,56.768 C26.844003,56.9360008 27.3319981,57.1059991 27.716,57.278 C28.1000019,57.4500009 28.4339986,57.7119982 28.718,58.064 C29.0020014,58.4160018 29.144,58.8799971 29.144,59.456 C29.144,60.0400029 28.9900015,60.533998 28.682,60.938 C28.3739985,61.342002 27.9580026,61.643999 27.434,61.844 C26.9099974,62.044001 26.3240032,62.144 25.676,62.144 C24.9559964,62.144 24.2340036,62.0220012 23.51,61.778 C22.7859964,61.5339988 22.1600026,61.2000021 21.632,60.776 L22.568,58.88 C22.9920021,59.2480018 23.5099969,59.5579987 24.122,59.81 C24.7340031,60.0620013 25.2599978,60.188 25.7,60.188 C25.9720014,60.188 26.1839992,60.1360005 26.336,60.032 C26.4880008,59.9279995 26.564,59.780001 26.564,59.588 C26.564,59.3559988 26.4400012,59.1780006 26.192,59.054 C25.9439988,58.9299994 25.5600026,58.8000007 25.04,58.664 C24.4559971,58.5119992 23.9720019,58.3540008 23.588,58.19 C23.2039981,58.0259992 22.8720014,57.7720017 22.592,57.428 C22.3119986,57.0839983 22.172,56.6320028 22.172,56.072 C22.172,55.5279973 22.3159986,55.054002 22.604,54.65 C22.8920014,54.245998 23.2979974,53.9360011 23.822,53.72 C24.3460026,53.5039989 24.9559965,53.396 25.652,53.396 C26.2840032,53.396 26.9119969,53.4859991 27.536,53.666 C28.1600031,53.8460009 28.7039977,54.0839985 29.168,54.38 L28.244,56.3 Z M31.08,53.588 L38.472,53.588 L38.472,55.58 L36.024,55.58 L36.024,62 L33.516,62 L33.516,55.58 L31.08,55.58 L31.08,53.588 Z M45.844,62 L44.728,59.732 L43.408,59.732 L43.408,62 L40.912,62 L40.912,53.588 L44.836,53.588 C45.9640056,53.588 46.8379969,53.8479974 47.458,54.368 C48.0780031,54.8880026 48.388,55.6239952 48.388,56.576 C48.388,57.1920031 48.2660012,57.7259977 48.022,58.178 C47.7779988,58.6300023 47.4280023,58.9879987 46.972,59.252 L48.676,62 L45.844,62 Z M43.408,57.812 L44.836,57.812 C45.2120019,57.812 45.501999,57.712001 45.706,57.512 C45.910001,57.311999 46.012,57.0240019 46.012,56.648 C46.012,56.2799982 45.910001,55.998001 45.706,55.802 C45.501999,55.605999 45.2120019,55.508 44.836,55.508 L43.408,55.508 L43.408,57.812 Z M57.428,62 L56.936,60.656 L53.54,60.656 L53.036,62 L50.468,62 L54.056,53.588 L56.624,53.588 L60.092,62 L57.428,62 Z M54.236,58.832 L56.276,58.832 L55.268,56.084 L54.236,58.832 Z M68.208,56.648 C67.9439987,56.2959982 67.6300018,56.018001 67.266,55.814 C66.9019982,55.609999 66.5480017,55.508 66.204,55.508 C65.8279981,55.508 65.4880015,55.603999 65.184,55.796 C64.8799985,55.988001 64.6400009,56.2539983 64.464,56.594 C64.2879991,56.9340017 64.2,57.3159979 64.2,57.74 C64.2,58.1640021 64.2879991,58.5459983 64.464,58.886 C64.6400009,59.2260017 64.8799985,59.493999 65.184,59.69 C65.4880015,59.886001 65.8279981,59.984 66.204,59.984 C66.5240016,59.984 66.8659982,59.8960009 67.23,59.72 C67.5940018,59.5439991 67.9199986,59.3040015 68.208,59 L69.648,60.536 C69.1919977,61.0320025 68.6420032,61.4279985 67.998,61.724 C67.3539968,62.0200015 66.7160032,62.168 66.084,62.168 C65.2439958,62.168 64.4860034,61.9780019 63.81,61.598 C63.1339966,61.2179981 62.6040019,60.6920034 62.22,60.02 C61.8359981,59.3479966 61.644,58.5960042 61.644,57.764 C61.644,56.9479959 61.839998,56.2100033 62.232,55.55 C62.624002,54.8899967 63.1639966,54.3720019 63.852,53.996 C64.5400034,53.6199981 65.3119957,53.432 66.168,53.432 C66.8000032,53.432 67.4319968,53.5679986 68.064,53.84 C68.6960032,54.1120014 69.2239979,54.4759977 69.648,54.932 L68.208,56.648 Z M71.428,53.588 L78.82,53.588 L78.82,55.58 L76.372,55.58 L76.372,62 L73.864,62 L73.864,55.58 L71.428,55.58 L71.428,53.588 Z" id="ABSTRACT" fill="#FFFFFF" fill-rule="nonzero"></path>
            </g>
        </g>
    </g>
</svg>