<?xml version="1.0" encoding="UTF-8"?>
<svg width="40px" height="40px" viewBox="0 0 40 40" version="1.1" xmlns="http://www.w3.org/2000/svg" xmlns:xlink="http://www.w3.org/1999/xlink">
    <!-- Generator: Sketch 54.1 (76490) - https://sketchapp.com -->
    <title>logo-light</title>
    <desc>Created with Sketch.</desc>
    <g id="New-User-Acct-Sett-'Acct-Verification-Flow'-" stroke="none" stroke-width="1" fill="none" fill-rule="evenodd">
        <g id="Sign-Up-Screen" transform="translate(-701.000000, -216.000000)">
            <g id="logo-light" transform="translate(701.000000, 216.000000)">
                <polygon id="Line" stroke="#8E9385" fill="#8E9385" fill-rule="nonzero" points="19.2821924 24 21.2666667 24.0234764 20.9844743 34.9803922 19 34.9569158"></polygon>
                <polygon id="Line" stroke="#8E9385" fill="#8E9385" fill-rule="nonzero" points="27.589744 22.3656374 27.5682874 24.019608 12 23.6539706 12.0214566 22"></polygon>
                <circle id="Oval-1" fill="#FFFFFF" opacity="0.476283482" cx="20" cy="20" r="20"></circle>
                <polygon id="Line" fill="#FFFFFF" fill-rule="nonzero" points="8.78837109 27.6078431 7 26.5908071 18.288552 8 20.0769231 9.01703605"></polygon>
                <polygon id="Line" fill="#FFFFFF" fill-rule="nonzero" transform="translate(25.538462, 17.803922) scale(-1, 1) translate(-25.538462, -17.803922) " points="20.7756126 27.6078431 19 26.5858335 30.3013105 8 32.0769231 9.02200959"></polygon>
                <ellipse id="Oval-10" stroke="#9B9B9B" stroke-width="0.5" fill="#FFFFFF" cx="19.7307692" cy="34.7843137" rx="1.73076923" ry="1"></ellipse>
                <ellipse id="Oval-10" stroke="#9B9B9B" stroke-width="0.5" fill="#FFFFFF" cx="19.5384615" cy="7.78431373" rx="1.53846154" ry="1"></ellipse>
                <ellipse id="Oval-10" stroke="#9B9B9B" stroke-width="0.5" fill="#FFFFFF" transform="translate(7.725812, 26.431837) rotate(29.000000) translate(-7.725812, -26.431837) " cx="7.72581162" cy="26.4318372" rx="1.53846154" ry="1"></ellipse>
                <ellipse id="Oval-10" stroke="#9B9B9B" stroke-width="0.5" fill="#FFFFFF" transform="translate(31.724504, 26.448466) rotate(-30.000000) translate(-31.724504, -26.448466) " cx="31.7245036" cy="26.4484664" rx="1.53846154" ry="1"></ellipse>
            </g>
        </g>
    </g>
</svg>