<?xml version="1.0" encoding="UTF-8"?>
<svg width="79px" height="71px" viewBox="0 0 79 71" version="1.1" xmlns="http://www.w3.org/2000/svg" xmlns:xlink="http://www.w3.org/1999/xlink">
    <!-- Generator: Sketch 54.1 (76490) - https://sketchapp.com -->
    <title>logo-dark-w-type</title>
    <desc>Created with Sketch.</desc>
    <defs>
        <path d="M7.136,70 L6.644,68.656 L3.248,68.656 L2.744,70 L0.176,70 L3.764,61.588 L6.332,61.588 L9.8,70 L7.136,70 Z M3.944,66.832 L5.984,66.832 L4.976,64.084 L3.944,66.832 Z M16.2,61.588 C16.8480032,61.588 17.4159976,61.6739991 17.904,61.846 C18.3920024,62.0180009 18.7679987,62.2639984 19.032,62.584 C19.2960013,62.9040016 19.428,63.2799978 19.428,63.712 C19.428,64.1360021 19.3000013,64.5119984 19.044,64.84 C18.7879987,65.1680016 18.4400022,65.3959994 18,65.524 C18.5120026,65.6280005 18.9219985,65.8739981 19.23,66.262 C19.5380015,66.6500019 19.692,67.1119973 19.692,67.648 C19.692,68.1200024 19.5560014,68.5339982 19.284,68.89 C19.0119986,69.2460018 18.6260025,69.519999 18.126,69.712 C17.6259975,69.904001 17.0440033,70 16.38,70 L12.072,70 L12.072,61.588 L16.2,61.588 Z M16.068,64.888 C16.3160012,64.888 16.5119993,64.8220007 16.656,64.69 C16.8000007,64.5579993 16.872,64.3800011 16.872,64.156 C16.872,63.9399989 16.8000007,63.7700006 16.656,63.646 C16.5119993,63.5219994 16.3160012,63.46 16.068,63.46 L14.556,63.46 L14.556,64.888 L16.068,64.888 Z M16.068,68.128 C16.3880016,68.136 16.6419991,68.0680007 16.83,67.924 C17.0180009,67.7799993 17.112,67.5840012 17.112,67.336 C17.112,67.1039988 17.0180009,66.9220007 16.83,66.79 C16.6419991,66.6579993 16.3880016,66.596 16.068,66.604 L14.556,66.604 L14.556,68.128 L16.068,68.128 Z M28.42,64.3 C27.9719978,64.0359987 27.4800027,63.8120009 26.944,63.628 C26.4079973,63.4439991 25.9680017,63.352 25.624,63.352 C25.4079989,63.352 25.2380006,63.3939996 25.114,63.478 C24.9899994,63.5620004 24.928,63.6839992 24.928,63.844 C24.928,64.0680011 25.0479988,64.2419994 25.288,64.366 C25.5280012,64.4900006 25.9079974,64.6239993 26.428,64.768 C27.020003,64.9360008 27.5079981,65.1059991 27.892,65.278 C28.2760019,65.4500009 28.6099986,65.7119982 28.894,66.064 C29.1780014,66.4160018 29.32,66.8799971 29.32,67.456 C29.32,68.0400029 29.1660015,68.533998 28.858,68.938 C28.5499985,69.342002 28.1340026,69.643999 27.61,69.844 C27.0859974,70.044001 26.5000032,70.144 25.852,70.144 C25.1319964,70.144 24.4100036,70.0220012 23.686,69.778 C22.9619964,69.5339988 22.3360026,69.2000021 21.808,68.776 L22.744,66.88 C23.1680021,67.2480018 23.6859969,67.5579987 24.298,67.81 C24.9100031,68.0620013 25.4359978,68.188 25.876,68.188 C26.1480014,68.188 26.3599992,68.1360005 26.512,68.032 C26.6640008,67.9279995 26.74,67.780001 26.74,67.588 C26.74,67.3559988 26.6160012,67.1780006 26.368,67.054 C26.1199988,66.9299994 25.7360026,66.8000007 25.216,66.664 C24.6319971,66.5119992 24.1480019,66.3540008 23.764,66.19 C23.3799981,66.0259992 23.0480014,65.7720017 22.768,65.428 C22.4879986,65.0839983 22.348,64.6320028 22.348,64.072 C22.348,63.5279973 22.4919986,63.054002 22.78,62.65 C23.0680014,62.245998 23.4739974,61.9360011 23.998,61.72 C24.5220026,61.5039989 25.1319965,61.396 25.828,61.396 C26.4600032,61.396 27.0879969,61.4859991 27.712,61.666 C28.3360031,61.8460009 28.8799977,62.0839985 29.344,62.38 L28.42,64.3 Z M31.256,61.588 L38.648,61.588 L38.648,63.58 L36.2,63.58 L36.2,70 L33.692,70 L33.692,63.58 L31.256,63.58 L31.256,61.588 Z M46.02,70 L44.904,67.732 L43.584,67.732 L43.584,70 L41.088,70 L41.088,61.588 L45.012,61.588 C46.1400056,61.588 47.0139969,61.8479974 47.634,62.368 C48.2540031,62.8880026 48.564,63.6239952 48.564,64.576 C48.564,65.1920031 48.4420012,65.7259977 48.198,66.178 C47.9539988,66.6300023 47.6040023,66.9879987 47.148,67.252 L48.852,70 L46.02,70 Z M43.584,65.812 L45.012,65.812 C45.3880019,65.812 45.677999,65.712001 45.882,65.512 C46.086001,65.311999 46.188,65.0240019 46.188,64.648 C46.188,64.2799982 46.086001,63.998001 45.882,63.802 C45.677999,63.605999 45.3880019,63.508 45.012,63.508 L43.584,63.508 L43.584,65.812 Z M57.604,70 L57.112,68.656 L53.716,68.656 L53.212,70 L50.644,70 L54.232,61.588 L56.8,61.588 L60.268,70 L57.604,70 Z M54.412,66.832 L56.452,66.832 L55.444,64.084 L54.412,66.832 Z M68.384,64.648 C68.1199987,64.2959982 67.8060018,64.018001 67.442,63.814 C67.0779982,63.609999 66.7240017,63.508 66.38,63.508 C66.0039981,63.508 65.6640015,63.603999 65.36,63.796 C65.0559985,63.988001 64.8160009,64.2539983 64.64,64.594 C64.4639991,64.9340017 64.376,65.3159979 64.376,65.74 C64.376,66.1640021 64.4639991,66.5459983 64.64,66.886 C64.8160009,67.2260017 65.0559985,67.493999 65.36,67.69 C65.6640015,67.886001 66.0039981,67.984 66.38,67.984 C66.7000016,67.984 67.0419982,67.8960009 67.406,67.72 C67.7700018,67.5439991 68.0959986,67.3040015 68.384,67 L69.824,68.536 C69.3679977,69.0320025 68.8180032,69.4279985 68.174,69.724 C67.5299968,70.0200015 66.8920032,70.168 66.26,70.168 C65.4199958,70.168 64.6620034,69.9780019 63.986,69.598 C63.3099966,69.2179981 62.7800019,68.6920034 62.396,68.02 C62.0119981,67.3479966 61.82,66.5960042 61.82,65.764 C61.82,64.9479959 62.015998,64.2100033 62.408,63.55 C62.800002,62.8899967 63.3399966,62.3720019 64.028,61.996 C64.7160034,61.6199981 65.4879957,61.432 66.344,61.432 C66.9760032,61.432 67.6079968,61.5679986 68.24,61.84 C68.8720032,62.1120014 69.3999979,62.4759977 69.824,62.932 L68.384,64.648 Z M71.604,61.588 L78.996,61.588 L78.996,63.58 L76.548,63.58 L76.548,70 L74.04,70 L74.04,63.58 L71.604,63.58 L71.604,61.588 Z" id="path-1"></path>
    </defs>
    <g id="New-User-Acct-Sett-'Acct-Verification-Flow'-" stroke="none" stroke-width="1" fill="none" fill-rule="evenodd">
        <g id="User-Types" transform="translate(-40.000000, -16.000000)">
            <g id="Group-2" transform="translate(40.000000, 16.000000)">
                <g id="Group">
                    <g id="logo-dark-w-type">
                        <circle id="Oval-1" fill="#283F5C" cx="38.5" cy="27.5" r="27.5"></circle>
                        <g id="ABSTRACT" fill-rule="nonzero">
                            <use fill="#FFFFFF" xlink:href="#path-1"></use>
                            <use fill="#283F5C" xlink:href="#path-1"></use>
                        </g>
                        <polygon id="Line" stroke="#8E9385" fill="#8E9385" fill-rule="nonzero" points="37.7842761 32.2666667 40.2857143 32.2980244 39.9300096 46.9333333 37.4285714 46.9019756"></polygon>
                        <polygon id="Line" stroke="#8E9385" fill="#8E9385" fill-rule="nonzero" points="49.9399999 30.5977284 49.9085347 33 27.0783333 32.4689383 27.1097985 30.0666667"></polygon>
                        <polygon id="Line" fill="#FFFFFF" fill-rule="nonzero" points="24.1563891 38.1333333 21.7142857 36.7259588 37.1293252 11 39.5714286 12.4073745"></polygon>
                        <polygon id="Line" fill="#FFFFFF" fill-rule="nonzero" transform="translate(46.357143, 24.566667) scale(-1, 1) translate(-46.357143, -24.566667) " points="39.8532525 38.1333333 37.4285714 36.7190765 52.8610332 11 55.2857143 12.4142569"></polygon>
                        <ellipse id="Oval-10" stroke-opacity="0.72766644" stroke="#000000" stroke-width="0.25" fill="#FFFFFF" cx="38.5" cy="10.6333333" rx="2.14285714" ry="1.1"></ellipse>
                        <ellipse id="Oval-10" stroke-opacity="0.72766644" stroke="#000000" stroke-width="0.25" fill="#FFFFFF" cx="38.5836571" cy="47.1533333" rx="2.14285714" ry="1.1"></ellipse>
                        <ellipse id="Oval-10" stroke-opacity="0.72766644" stroke="#000000" stroke-width="0.25" fill="#FFFFFF" transform="translate(23.142857, 37.033333) rotate(29.000000) translate(-23.142857, -37.033333) " cx="23.1428571" cy="37.0333333" rx="2.14285714" ry="1.1"></ellipse>
                        <ellipse id="Oval-10" stroke-opacity="0.72766644" stroke="#000000" stroke-width="0.25" fill="#FFFFFF" transform="translate(53.857143, 37.033333) rotate(-30.000000) translate(-53.857143, -37.033333) " cx="53.8571429" cy="37.0333333" rx="2.14285714" ry="1.1"></ellipse>
                    </g>
                </g>
            </g>
        </g>
    </g>
</svg>