<svg id="Layer_1" data-name="Layer 1" xmlns="http://www.w3.org/2000/svg" viewBox="0 0 154.13 47.16"><defs><style>.cls-1{fill:#3764ae;}.cls-2{fill:#d32027;}.cls-3{fill:#231f20;}</style></defs><title>acg_logo_b01-outlines</title><path class="cls-1" d="M12.42,8.24A32.34,32.34,0,0,0,5.5,10L3.21,15.64a32.19,32.19,0,0,1,6.92-1.73Z"/><path class="cls-1" d="M15.63,0.26A32.24,32.24,0,0,0,8.71,2L6.43,7.66a32.24,32.24,0,0,1,6.92-1.73Z"/><path class="cls-2" d="M0,23.61a32.27,32.27,0,0,1,6.92-1.73l2.28-5.67a32.22,32.22,0,0,0-6.92,1.73Z"/><path class="cls-2" d="M9.15,21.67a34.13,34.13,0,0,1,6.14.22l2.28-5.67A34.22,34.22,0,0,0,11.44,16Z"/><path class="cls-1" d="M14.65,8l-2.28,5.67a33.93,33.93,0,0,1,6.14.22l2.28-5.67A34.12,34.12,0,0,0,14.65,8Z"/><path class="cls-1" d="M24,0.27A34.22,34.22,0,0,0,17.87.05L15.58,5.72a34.11,34.11,0,0,1,6.14.22Z"/><path class="cls-1" d="M22.82,8.54l-2.28,5.67c1.95,0.32,3.85.75,5.74,1.2l2.29-5.67C26.66,9.29,24.76,8.86,22.82,8.54Z"/><path class="cls-2" d="M17.32,22.18c1.94,0.32,3.85.75,5.74,1.2l2.28-5.67c-1.9-.45-3.8-0.87-5.74-1.2Z"/><path class="cls-1" d="M31.77,1.76C29.88,1.32,28,.89,26,0.57L23.75,6.23c1.95,0.32,3.85.75,5.74,1.2Z"/><path class="cls-2" d="M25,23.84c1.9,0.45,3.8.88,5.74,1.2L33,19.38c-1.94-.32-3.85-0.75-5.74-1.2Z"/><path class="cls-2" d="M39.48,3.43c-1.95-.32-3.85-0.75-5.74-1.2L31.45,7.89c1.9,0.45,3.8.87,5.74,1.2Z"/><path class="cls-2" d="M30.52,10.2l-2.28,5.67c1.9,0.44,3.8.87,5.74,1.2l2.28-5.67C34.32,11.08,32.42,10.65,30.52,10.2Z"/><path class="cls-2" d="M32.79,25.34a34.22,34.22,0,0,0,6.14.22l2.28-5.67a34.31,34.31,0,0,1-6.14-.22Z"/><path class="cls-2" d="M38.29,11.69L36,17.36a34.2,34.2,0,0,0,6.14.22l2.29-5.67A34.31,34.31,0,0,1,38.29,11.69Z"/><path class="cls-2" d="M47.64,3.94a34.29,34.29,0,0,1-6.14-.22L39.22,9.39a34.2,34.2,0,0,0,6.14.22Z"/><path class="cls-2" d="M56.8,2a32.2,32.2,0,0,1-6.93,1.73L47.59,9.4a32.24,32.24,0,0,0,6.92-1.73Z"/><path class="cls-2" d="M46.66,11.7l-2.28,5.67a32.25,32.25,0,0,0,6.92-1.73L53.58,10A32.13,32.13,0,0,1,46.66,11.7Z"/><path class="cls-2" d="M41.16,25.35a32.12,32.12,0,0,0,6.92-1.73l2.28-5.67a32.17,32.17,0,0,1-6.92,1.73Z"/><path class="cls-3" d="M72.71,30.74H54.52l-6.25,15.8H44.81l18-45h2l17.64,45H78.93ZM55.65,27.93h16l-6.1-16.14q-0.77-1.9-1.84-5.27a49.14,49.14,0,0,1-1.81,5.33Z"/><path class="cls-3" d="M104.39,3.94Q96,3.94,91.13,9.33T86.29,24.1q0,9.59,4.56,14.89t13,5.3a35.34,35.34,0,0,0,10.35-1.44V45.6a33.8,33.8,0,0,1-11.09,1.56q-9.44,0-14.86-6.09T82.89,24a26.7,26.7,0,0,1,2.59-12,18.74,18.74,0,0,1,7.44-8,22,22,0,0,1,11.29-2.83,27.1,27.1,0,0,1,11.73,2.45l-1.26,2.82A22.7,22.7,0,0,0,104.39,3.94Z"/><path class="cls-3" d="M137.62,24h16.51V44.4a37,37,0,0,1-14.61,2.76q-10.6,0-16.25-6t-5.65-17a25.46,25.46,0,0,1,2.8-12.11,19.63,19.63,0,0,1,8-8.16,24.44,24.44,0,0,1,12-2.88,30.92,30.92,0,0,1,13.14,2.7l-1.26,2.82a28.41,28.41,0,0,0-12.07-2.7q-8.85,0-14,5.47T121,24.1q0,10.11,4.93,15.21t14.49,5.1a28.06,28.06,0,0,0,10.51-1.75V26.92H137.63V24h0Z"/></svg>