<?xml version="1.0" encoding="UTF-8"?>
<svg width="101px" height="31px" viewBox="0 0 101 31" version="1.1" xmlns="http://www.w3.org/2000/svg" xmlns:xlink="http://www.w3.org/1999/xlink">
    <!-- Generator: Sketch 55.1 (78136) - https://sketchapp.com -->
    <title>acg_logo_b01-outlines_no-name</title>
    <desc>Created with Sketch.</desc>
    <g id="FOR-JUNE-15-Launch:--SubDomain-Investor-Servicing-Login" stroke="none" stroke-width="1" fill="none" fill-rule="evenodd">
        <g id="I.-Dash-/-Sub-Domain/ACG/Your-Investments/Choose" transform="translate(-25.000000, -28.000000)" fill-rule="nonzero">
            <g id="acg_logo_b01-outlines_no-name" transform="translate(25.000000, 28.000000)">
                <path d="M8,5 C6.45957071,5.22259774 4.94764332,5.6214244 3.49185668,6.18918919 L2,10 C3.45632249,9.43835003 4.96831726,9.04630409 6.50814332,8.83108108 L8,5 Z" id="Path" fill="#3764AE"></path>
                <path d="M10,0 C8.45829851,0.217682214 6.94468288,0.611988426 5.48695652,1.17567568 L4,5 C5.45798516,4.43861657 6.97159443,4.04657813 8.51304348,3.83108108 L10,0 Z" id="Path" fill="#3764AE"></path>
                <path d="M0,15 C1.45803285,14.4387761 2.97162481,14.0467421 4.51304348,13.8310811 L6,10 C4.45853068,10.2153875 2.94490983,10.607429 1.48695652,11.1689189 L0,15 Z" id="Path" fill="#D32027"></path>
                <path d="M6,13.851843 C7.21681625,13.7768172 8.43711962,13.8264037 9.64608076,14 L11,10.1815896 C9.79297646,10.0087248 8.5747026,9.95913998 7.35985748,10.0334326 L6,13.851843 Z" id="Path" fill="#D32027"></path>
                <path d="M9.35391924,5.03391374 L8,8.85186095 C9.21681015,8.77610741 10.4371722,8.82569031 11.6460808,9 L13,5.18205279 C11.7910415,5.00844106 10.5707352,4.95886042 9.35391924,5.03391374 L9.35391924,5.03391374 Z" id="Path" fill="#3764AE"></path>
                <path d="M15,0.181589572 C13.7929765,0.00872480133 12.5747026,-0.0408600215 11.3598575,0.0334325539 L10,3.85184298 C11.2168157,3.7767439 12.4371248,3.82633067 13.6460808,4 L15,0.181589572 Z" id="Path" fill="#3764AE"></path>
                <path d="M15.4196762,6 L14,9.30131004 C15.2141968,9.48762737 16.3972603,9.73799127 17.5740971,10 L19,6.69868996 C17.8107098,6.43668122 16.6276463,6.18631732 15.4196762,6 Z" id="Path" fill="#3764AE"></path>
                <path d="M11,14.30131 C12.2094763,14.4876274 13.4002494,14.7379913 14.5785536,15 L16,11.69869 C14.8154613,11.4366812 13.6309227,11.1921397 12.4214464,11 L11,14.30131 Z" id="Path" fill="#D32027"></path>
                <path d="M21,1.69387755 C19.8216958,1.43731778 18.6496259,1.18658892 17.4027431,1 L16,4.30029155 C17.2157107,4.48688047 18.4002494,4.73760933 19.5785536,5 L21,1.69387755 Z" id="Path" fill="#3764AE"></path>
                <path d="M16,15.3002915 C17.1875,15.5626822 18.375,15.8134111 19.5875,16 L21,12.6997085 C19.7875,12.5131195 18.59375,12.2623907 17.4125,12 L16,15.3002915 Z" id="Path" fill="#D32027"></path>
                <path d="M26,2.69970845 C24.7858032,2.51311953 23.6027397,2.26239067 22.4259029,2 L21,5.30029155 C22.1830635,5.56268222 23.366127,5.80758017 24.5740971,6 L26,2.69970845 Z" id="Path" fill="#D32027"></path>
                <path d="M20.4214464,7 L19,10.30131 C20.1845387,10.5574964 21.3690773,10.8078603 22.5785536,11 L24,7.69868996 C22.7905237,7.51237263 21.605985,7.26200873 20.4214464,7 Z" id="Path" fill="#D32027"></path>
                <path d="M22,16.8181672 C23.2089845,16.9914246 24.4292618,17.041007 25.6460808,16.9663147 L27,13.1481476 C25.7831785,13.2225128 24.562927,13.1729315 23.3539192,13 L22,16.8181672 Z" id="Path" fill="#D32027"></path>
                <path d="M25.3582444,7 L24,10.8181233 C25.2075452,10.9914515 26.4263807,11.0410334 27.6417556,10.9662692 L29,7.14814588 C27.7846219,7.2225102 26.565818,7.17292951 25.3582444,7 L25.3582444,7 Z" id="Path" fill="#D32027"></path>
                <path d="M31,2.14814588 C29.783179,2.22258273 28.5629219,2.1730018 27.3539192,2 L26,5.8181233 C27.2089794,5.99145147 28.4292624,6.04103345 29.6460808,5.96626917 L31,2.14814588 Z" id="Path" fill="#D32027"></path>
                <path d="M37,1 C35.5415666,1.56208086 34.0273672,1.95413188 32.485342,2.16891892 L31,6 C32.5397754,5.78450295 34.0517412,5.39246451 35.5081433,4.83108108 L37,1 Z" id="Path" fill="#D32027"></path>
                <path d="M30.4869565,7.15332429 L29,11 C30.5414389,10.7835708 32.0550424,10.3899381 33.5130435,9.82632293 L35,6 C33.541413,6.55732026 32.0277588,6.94413997 30.4869565,7.15332429 L30.4869565,7.15332429 Z" id="Path" fill="#D32027"></path>
                <path d="M27,16 C28.541571,15.7851621 30.0552501,15.3931056 31.5130435,14.8310811 L33,11 C31.5421265,11.5617568 30.0284766,11.9538058 28.4869565,12.1689189 L27,16 Z" id="Path" fill="#D32027"></path>
                <path d="M47.5308183,19.8177778 L35.4492561,19.8177778 L31.2980871,30 L29,30 L40.9553666,1 L42.2837407,1 L54,30 L51.6620616,30 L47.5308183,19.8177778 Z M36.1997875,18.0068889 L46.82678,18.0068889 L42.7752391,7.60555556 C42.4342898,6.78925926 42.0269217,5.65718519 41.553135,4.20933333 C41.2203797,5.37564326 40.8189952,6.52248727 40.3509564,7.64422222 L36.1997875,18.0068889 Z" id="Shape" fill="#FFFFFF"></path>
                <path d="M68.3128173,2.80973839 C64.5901354,2.80973839 61.6483737,3.9812887 59.4875322,6.32438933 C57.3266907,8.66748996 56.2529254,11.8778421 56.2662366,15.9554458 C56.2662366,20.1243391 57.2778831,23.360774 59.3011763,25.6647505 C61.3244694,27.968727 64.2085495,29.1207153 67.9534165,29.1207153 C70.2843941,29.1438871 72.6059387,28.8274355 74.8419309,28.1817362 L74.8419309,29.9749254 C72.4564411,30.713761 69.9618642,31.0575549 67.4609044,30.9921528 C63.2723327,30.9921528 59.9756073,29.6684531 57.5707282,27.0210537 C55.1658491,24.3736543 53.9767207,20.6633827 54.003343,15.8902389 C53.949804,13.1861921 54.5400005,10.5071079 55.7271355,8.06541308 C56.8122658,5.88332235 58.5361143,4.0672867 60.6788791,2.84886252 C62.9690766,1.58398511 65.5646309,0.946557548 68.193017,1.00350776 C70.8844186,0.958605707 73.5519523,1.50447192 76,2.60107637 L75.1613982,4.43991044 C73.0416353,3.37514779 70.6949284,2.81655967 68.3128173,2.80973839 Z" id="Path" fill="#FFFFFF"></path>
                <path d="M90.1485026,15.9448346 L101,15.9448346 L101,29.2032868 C97.9548266,30.437561 94.6879815,31.0478105 91.3973121,30.9970774 C86.7526171,30.9970774 83.1924146,29.6972292 80.7167045,27.0975327 C78.2409944,24.4978362 77.0031394,20.8149328 77.0031394,16.0488225 C76.9495882,13.3152421 77.5818801,10.6111359 78.8434902,8.1782413 C80.0255403,5.93394055 81.8558241,4.08791086 84.1016355,2.87486042 C86.525496,1.59405261 89.2411409,0.94958028 91.9888535,1.00307893 C94.9628658,0.95601411 97.9110752,1.55504164 100.625357,2.75787408 L99.7971993,4.59066012 C97.3152062,3.43672907 94.6066183,2.83760123 91.8639725,2.83586497 C87.9860904,2.83586497 84.9188389,4.0208933 82.6622182,6.39094995 C80.4055975,8.76100661 79.25976,11.967299 79.2247057,16.009827 C79.2247057,20.3903157 80.3048164,23.685431 82.4650378,25.895173 C84.6252592,28.1049151 87.7998644,29.2097861 91.9888535,29.2097861 C94.3438106,29.2703928 96.6887046,28.8843116 98.8967419,28.0724189 L98.8967419,17.8426131 L90.1550753,17.8426131 L90.1550753,15.9448346 L90.1550753,15.9448346 L90.1485026,15.9448346 Z" id="Path" fill="#FFFFFF"></path>
            </g>
        </g>
    </g>
</svg>