<svg xmlns="http://www.w3.org/2000/svg" xmlns:xlink="http://www.w3.org/1999/xlink" width="100" height="100" viewBox="0 0 100 100"><g><g transform="translate(50 50) scale(0.69 0.69) rotate(0) translate(-50 -50)" style="fill:#283f5c"><svg fill="#283f5c" xmlns="http://www.w3.org/2000/svg" xmlns:xlink="http://www.w3.org/1999/xlink" version="1.1" x="0px" y="0px" viewBox="0 0 70 70" style="enable-background:new 0 0 70 70;" xml:space="preserve"><style type="text/css">
	.st0{stroke:#283f5c;stroke-width:2;stroke-linecap:round;stroke-linejoin:round;stroke-miterlimit:10;}
</style><g><g><g><g><path d="M35,10c-13.7799683,0-25,11.2199707-25,25c0,13.789978,11.2200317,25,25,25c13.7900391,0,25-11.210022,25-25      C60,21.2199707,48.7900391,10,35,10z M50.1699829,28.2800293L32.0100098,46.4500122      c-0.4099731,0.3999634-0.9400024,0.6099854-1.4699707,0.6099854c-0.5300293,0-1.0700073-0.210022-1.4700317-0.6099854      l-9.2399902-9.2399902C19.2399902,36.6199951,18.9199829,35.8400269,18.9199829,35      c0-0.8300171,0.3300171-1.6199951,0.9200439-2.210022c1.2199707-1.2199707,3.2000122-1.2099609,4.4099731,0l6.2299805,6.2300415      c0,0,0.0700073,0,0.1000366,0c0.0100098,0,0.0100098,0,0.0100098,0L45.75,23.8699951      c1.2200317-1.2199707,3.2000122-1.2199707,4.4199829-0.0100098c0.5900269,0.5900269,0.9200439,1.3800049,0.9200439,2.210022      C51.0900269,26.9099731,50.7600098,27.6900024,50.1699829,28.2800293z"></path></g></g></g></g></svg></g></g></svg>