<?xml version="1.0" encoding="UTF-8"?>
<svg width="7px" viewBox="0 0 9 12" version="1.1" xmlns="http://www.w3.org/2000/svg" xmlns:xlink="http://www.w3.org/1999/xlink">
    <!-- Generator: Sketch 50.2 (55047) - http://www.bohemiancoding.com/sketch -->
    <title>Page-1 Copy 3</title>
    <desc>Created with Sketch.</desc>
    <defs></defs>
    <g id="Dashboard" stroke="none" stroke-width="1" fill="none" fill-rule="evenodd">
        <g id="Engaging-Content" transform="translate(-494.000000, -457.000000)" fill="#283F5C" fill-rule="nonzero">
            <g id="Group-4" transform="translate(20.000000, 253.000000)">
                <g id="arrow" transform="translate(462.461538, 271.538462) rotate(-90.000000) translate(-462.461538, -271.538462) translate(372.461538, 251.538462)">
                    <path d="M147.538226,40.5142103 L147.538226,31.3204571 C147.538226,31.0953125 147.653943,30.8895777 147.845033,30.7814417 C148.041962,30.6533426 148.290916,30.6644337 148.47723,30.8075057 L155.257811,35.3907956 C155.439879,35.4972676 155.547633,35.7030029 155.537547,35.9214928 C155.541793,36.1405365 155.435633,36.3462719 155.257811,36.461062 L148.47723,41.0293796 C148.380091,41.0986977 148.268091,41.1402879 148.149716,41.1530423 C148.039839,41.1596971 147.932085,41.1247611 147.84291,41.0576614 C147.65182,40.9495254 147.536103,40.7393543 147.538226,40.5142103 Z" id="Page-1-Copy-3" transform="translate(151.538198, 35.923077) rotate(-90.000000) translate(-151.538198, -35.923077) "></path>
                </g>
            </g>
        </g>
    </g>
</svg>