<svg xmlns="http://www.w3.org/2000/svg" xmlns:xlink="http://www.w3.org/1999/xlink" width="100" height="100" viewBox="0 0 100 100"><g><g transform="translate(50 50) scale(0.69 0.69) rotate(0) translate(-50 -50)" style="fill:#283f5c"><svg fill="#283f5c" xmlns="http://www.w3.org/2000/svg" xmlns:xlink="http://www.w3.org/1999/xlink" version="1.1" x="0px" y="0px" viewBox="0 0 512 512" enable-background="new 0 0 512 512" xml:space="preserve"><path d="M512,107.625c0-13.219-10.75-23.969-23.938-23.969H23.922C10.734,83.656,0,94.406,0,107.625v296.75  c0,13.219,10.734,23.969,23.922,23.969h464.141c13.188,0,23.938-10.75,23.938-23.969V107.625z M480.688,101.906L256,288.672  L31.297,101.906H480.688z M493.781,410.094H18.203V114.719l163.141,135.578c40.328,33.531,68.172,56.672,68.844,57.234  c3.328,2.75,8.344,2.719,11.594,0.016l232-192.828V410.094z"></path></svg></g></g></svg>