<?xml version="1.0" encoding="UTF-8"?>
<svg width="100px" height="100px" viewBox="0 0 100 100" version="1.1" xmlns="http://www.w3.org/2000/svg" xmlns:xlink="http://www.w3.org/1999/xlink">
    <!-- Generator: Sketch 46.2 (44496) - http://www.bohemiancoding.com/sketch -->
    <title>icon-building-white-menu</title>
    <desc>Created with Sketch.</desc>
    <defs></defs>
    <g id="Page-1" stroke="none" stroke-width="1" fill="none" fill-rule="evenodd">
        <g id="icon-building-white-menu" fill-rule="nonzero" fill="#FFFFFF">
            <g transform="translate(19.000000, 19.000000)">
                <path d="M0.571,61.291 C0.571,61.705 0.916,62.05 1.33,62.05 L61.222,62.05 C61.636,62.05 61.981,61.705 61.981,61.291 C61.981,60.877 61.636,60.532 61.222,60.532 L58.324,60.532 L58.324,0.916 C58.324,0.502 57.979,0.157 57.565,0.157 L38.659,0.157 C38.245,0.157 37.9,0.502 37.9,0.916 L37.9,42.799 C37.831,42.868 37.831,42.937 37.762,42.937 L34.381,42.937 L34.381,17.89 C34.381,17.476 34.036,17.131 33.622,17.131 L24.79,17.131 L24.79,10.507 C24.79,10.231 24.583,9.955 24.307,9.817 L5.401,0.985 C5.125,0.847 4.849,0.916 4.642,1.054 C4.435,1.192 4.297,1.468 4.297,1.744 L4.297,60.532 L1.399,60.532 C0.985,60.532 0.571,60.877 0.571,61.291 Z M23.203,17.131 L18.373,17.131 C17.959,17.131 17.614,17.476 17.614,17.89 L17.614,60.463 L5.884,60.463 L5.884,2.917 L23.203,11.059 L23.203,17.131 Z M32.794,18.718 L32.794,60.532 L29.896,60.532 L29.896,54.598 C29.896,52.735 28.378,51.148 26.446,51.148 C24.583,51.148 22.996,52.666 22.996,54.598 L22.996,60.532 L19.201,60.532 L19.201,18.718 L32.794,18.718 Z M24.583,54.598 C24.583,53.563 25.411,52.735 26.446,52.735 C27.481,52.735 28.309,53.563 28.309,54.598 L28.309,60.532 L24.583,60.532 L24.583,54.598 L24.583,54.598 Z M37.072,44.524 C37.072,44.662 37.003,44.869 37.003,45.007 C37.003,45.904 37.348,46.663 37.9,47.284 C36.244,48.112 35.14,49.837 35.14,51.838 C35.14,54.391 37.003,56.53 39.487,56.875 L39.487,60.463 L34.381,60.463 L34.381,44.524 L37.072,44.524 Z M40.246,46.732 C39.349,46.732 38.59,45.973 38.59,45.076 C38.59,44.179 39.349,43.42 40.246,43.42 C41.143,43.42 41.902,44.179 41.902,45.076 C41.902,45.973 41.143,46.732 40.246,46.732 Z M43.765,51.838 C43.765,53.77 42.178,55.357 40.246,55.357 C38.314,55.357 36.727,53.77 36.727,51.838 C36.727,49.906 38.314,48.319 40.246,48.319 C42.178,48.319 43.765,49.906 43.765,51.838 Z M56.806,60.532 L51.838,60.532 L51.838,56.944 C54.253,56.53 56.185,54.46 56.185,51.907 C56.185,49.078 53.908,46.801 51.079,46.801 C48.25,46.801 45.973,49.078 45.973,51.907 C45.973,54.46 47.836,56.599 50.32,56.944 L50.32,60.532 L41.005,60.532 L41.005,56.944 C43.42,56.53 45.352,54.46 45.352,51.907 C45.352,49.906 44.248,48.181 42.592,47.353 C43.144,46.801 43.489,45.973 43.489,45.076 C43.489,43.282 42.04,41.833 40.246,41.833 C39.97,41.833 39.694,41.902 39.487,41.971 L39.487,1.744 L56.806,1.744 L56.806,60.532 L56.806,60.532 Z M47.491,51.838 C47.491,49.906 49.078,48.319 51.01,48.319 C52.942,48.319 54.529,49.906 54.529,51.838 C54.529,53.77 52.942,55.357 51.01,55.357 C49.078,55.426 47.491,53.839 47.491,51.838 Z" id="Shape"></path>
                <path d="M30.172,23.479 L21.823,23.479 C21.409,23.479 21.064,23.134 21.064,22.72 C21.064,22.306 21.409,21.961 21.823,21.961 L30.241,21.961 C30.655,21.961 31,22.306 31,22.72 C31,23.134 30.655,23.479 30.172,23.479 Z" id="Shape"></path>
                <path d="M30.172,27.55 L21.823,27.55 C21.409,27.55 21.064,27.205 21.064,26.791 C21.064,26.377 21.409,26.032 21.823,26.032 L30.241,26.032 C30.655,26.032 31,26.377 31,26.791 C31,27.205 30.655,27.55 30.172,27.55 Z" id="Shape"></path>
                <path d="M30.172,31.621 L21.823,31.621 C21.409,31.621 21.064,31.276 21.064,30.862 C21.064,30.448 21.409,30.103 21.823,30.103 L30.241,30.103 C30.655,30.103 31,30.448 31,30.862 C31,31.276 30.655,31.621 30.172,31.621 Z" id="Shape"></path>
                <path d="M30.172,35.623 L21.823,35.623 C21.409,35.623 21.064,35.278 21.064,34.864 C21.064,34.45 21.409,34.105 21.823,34.105 L30.241,34.105 C30.655,34.105 31,34.45 31,34.864 C31,35.278 30.655,35.623 30.172,35.623 Z" id="Shape"></path>
                <path d="M30.172,39.694 L21.823,39.694 C21.409,39.694 21.064,39.349 21.064,38.935 C21.064,38.521 21.409,38.176 21.823,38.176 L30.241,38.176 C30.655,38.176 31,38.521 31,38.935 C31,39.349 30.655,39.694 30.172,39.694 Z" id="Shape"></path>
                <path d="M30.172,43.765 L21.823,43.765 C21.409,43.765 21.064,43.42 21.064,43.006 C21.064,42.592 21.409,42.247 21.823,42.247 L30.241,42.247 C30.655,42.247 31,42.592 31,43.006 C31,43.42 30.655,43.765 30.172,43.765 Z" id="Shape"></path>
                <path d="M30.172,47.836 L21.823,47.836 C21.409,47.836 21.064,47.491 21.064,47.077 C21.064,46.663 21.409,46.318 21.823,46.318 L30.241,46.318 C30.655,46.318 31,46.663 31,47.077 C31,47.491 30.655,47.836 30.172,47.836 Z" id="Shape"></path>
                <rect id="Rectangle-path" x="50.803" y="5.47" width="2.415" height="5.175"></rect>
                <rect id="Rectangle-path" x="46.87" y="5.47" width="2.415" height="5.175"></rect>
                <rect id="Rectangle-path" x="42.868" y="5.47" width="2.415" height="5.175"></rect>
                <rect id="Rectangle-path" x="50.803" y="13.336" width="2.415" height="5.175"></rect>
                <rect id="Rectangle-path" x="46.87" y="13.336" width="2.415" height="5.175"></rect>
                <rect id="Rectangle-path" x="42.868" y="13.336" width="2.415" height="5.175"></rect>
                <rect id="Rectangle-path" x="50.803" y="20.443" width="2.415" height="5.175"></rect>
                <rect id="Rectangle-path" x="46.87" y="20.443" width="2.415" height="5.175"></rect>
                <rect id="Rectangle-path" x="42.868" y="20.443" width="2.415" height="5.175"></rect>
                <rect id="Rectangle-path" x="50.803" y="28.585" width="2.415" height="5.175"></rect>
                <rect id="Rectangle-path" x="46.87" y="28.585" width="2.415" height="5.175"></rect>
                <rect id="Rectangle-path" x="42.868" y="28.585" width="2.415" height="5.175"></rect>
                <rect id="Rectangle-path" x="50.803" y="35.554" width="2.415" height="5.175"></rect>
                <rect id="Rectangle-path" x="46.87" y="35.554" width="2.415" height="5.175"></rect>
                <rect id="Rectangle-path" x="42.868" y="35.554" width="2.415" height="5.175"></rect>
                <rect id="Rectangle-path" x="8.506" y="36.244" width="2.415" height="5.175"></rect>
                <rect id="Rectangle-path" x="8.506" y="43.282" width="2.415" height="5.175"></rect>
                <rect id="Rectangle-path" x="8.506" y="29.275" width="2.415" height="5.175"></rect>
                <rect id="Rectangle-path" x="8.506" y="21.892" width="2.415" height="5.175"></rect>
                <rect id="Rectangle-path" x="8.506" y="14.509" width="2.415" height="5.175"></rect>
                <rect id="Rectangle-path" x="12.37" y="36.244" width="2.415" height="5.175"></rect>
                <rect id="Rectangle-path" x="12.37" y="43.282" width="2.415" height="5.175"></rect>
                <rect id="Rectangle-path" x="12.37" y="29.275" width="2.415" height="5.175"></rect>
                <rect id="Rectangle-path" x="12.37" y="21.892" width="2.415" height="5.175"></rect>
                <rect id="Rectangle-path" x="12.37" y="14.509" width="2.415" height="5.175"></rect>
                <rect id="Rectangle-path" x="8.506" y="50.527" width="2.415" height="5.175"></rect>
                <rect id="Rectangle-path" x="12.37" y="50.527" width="2.415" height="5.175"></rect>
            </g>
        </g>
    </g>
</svg>