<?xml version="1.0" encoding="UTF-8"?>
<svg width="47px" height="51px" viewBox="0 0 47 51" version="1.1" xmlns="http://www.w3.org/2000/svg" xmlns:xlink="http://www.w3.org/1999/xlink">
    <!-- Generator: Sketch 54.1 (76490) - https://sketchapp.com -->
    <title>water-tap</title>
    <desc>Created with Sketch.</desc>
    <g id="Sponsor-View---Investor-Servicing" stroke="none" stroke-width="1" fill="none" fill-rule="evenodd">
        <g id="S.-Dash-/-Investor-Servicing/Distributions" transform="translate(-343.000000, -582.000000)" fill="#FFFFFF" fill-rule="nonzero">
            <g id="water-tap" transform="translate(343.000000, 581.363636)">
                <path d="M9.9,12.6363636 L1.1,12.6363636 C0.4928,12.6363636 0,13.1291636 0,13.7363636 L0,22.5363636 C0,23.1435636 0.4928,23.6363636 1.1,23.6363636 L9.9,23.6363636 C10.5072,23.6363636 11,23.1435636 11,22.5363636 L11,13.7363636 C11,13.1291636 10.5072,12.6363636 9.9,12.6363636 Z" id="XMLID_185_"></path>
                <path d="M22.6428571,8.63636364 L18.3571429,8.63636364 C15.4042857,8.63636364 13,11.0050303 13,13.9141414 L13,22.3585859 C13,25.267697 15.4042857,27.6363636 18.3571429,27.6363636 L22.6428571,27.6363636 C25.5957143,27.6363636 28,25.267697 28,22.3585859 L28,13.9141414 C28,11.0050303 25.5957143,8.63636364 22.6428571,8.63636364 Z" id="XMLID_186_"></path>
                <path d="M35.3125,12.6363636 L31.0625,12.6363636 C30.476,12.6363636 30,13.1092525 30,13.6919192 L30,22.1363636 C30,22.7190303 30.476,23.1919192 31.0625,23.1919192 L33.1875,23.1919192 C34.944875,23.1919192 36.375,24.612697 36.375,26.3585859 L36.375,30.5808081 C36.375,31.1634747 36.851,31.6363636 37.4375,31.6363636 L45.9375,31.6363636 C46.524,31.6363636 47,31.1634747 47,30.5808081 L47,24.2474747 C47,17.8444747 41.757625,12.6363636 35.3125,12.6363636 Z" id="XMLID_187_"></path>
                <path d="M40.5936,37.0726941 C39.828,38.1568116 36,43.6933245 36,46.2694453 C36,49.2276907 38.4684,51.6363636 41.5,51.6363636 C44.5316,51.6363636 47,49.2276907 47,46.2694453 C47,43.6933245 43.172,38.1568116 42.4064,37.0726941 C41.9928,36.4909202 41.0072,36.4909202 40.5936,37.0726941 Z" id="XMLID_188_"></path>
                <path d="M26.8333333,0.636363636 C26.0522222,0.636363636 22.8538889,0.988363636 20.5,1.55036364 C18.1461111,0.988363636 14.9477778,0.636363636 14.1666667,0.636363636 C12.4207778,0.636363636 11,1.98236364 11,3.63636364 C11,5.29036364 12.4207778,6.63636364 14.1666667,6.63636364 C14.8422222,6.63636364 17.327,6.37236364 19.5077778,5.93636364 C19.645,6.34036364 20.0292222,6.63636364 20.5,6.63636364 C20.9707778,6.63636364 21.355,6.34036364 21.4922222,5.93636364 C23.673,6.37236364 26.1577778,6.63636364 26.8333333,6.63636364 C28.5792222,6.63636364 30,5.29036364 30,3.63636364 C30,1.98236364 28.5792222,0.636363636 26.8333333,0.636363636 Z M26.8333333,4.63636364 C26.2021111,4.63636364 22.9636667,4.27836364 20.7723333,3.72236364 C20.6836667,3.70036364 20.5928889,3.68836364 20.5,3.68836364 C20.4071111,3.68836364 20.3163333,3.70036364 20.2276667,3.72236364 C18.0363333,4.27836364 14.7978889,4.63636364 14.1666667,4.63636364 C13.584,4.63636364 13.1111111,4.18836364 13.1111111,3.63636364 C13.1111111,3.08436364 13.584,2.63636364 14.1666667,2.63636364 C14.7978889,2.63636364 18.0363333,2.99436364 20.2276667,3.55036364 C20.405,3.59436364 20.595,3.59436364 20.7723333,3.55036364 C22.9636667,2.99436364 26.2021111,2.63636364 26.8333333,2.63636364 C27.416,2.63636364 27.8888889,3.08436364 27.8888889,3.63636364 C27.8888889,4.18836364 27.416,4.63636364 26.8333333,4.63636364 Z" id="XMLID_192_"></path>
            </g>
        </g>
    </g>
</svg>