<svg xmlns="http://www.w3.org/2000/svg" xmlns:xlink="http://www.w3.org/1999/xlink" width="100" height="100" viewBox="0 0 100 100"><g><g transform="translate(50 50) scale(0.69 0.69) rotate(0) translate(-50 -50)" style="fill:#283F5C"><svg fill="#283F5C" xmlns="http://www.w3.org/2000/svg" xmlns:xlink="http://www.w3.org/1999/xlink" version="1.1" x="0px" y="0px" viewBox="0 0 100 100" style="enable-background:new 0 0 100 100;" xml:space="preserve"><g><path d="M5.9,93.9c0,0.6,0.5,1.1,1.1,1.1h86.8c0.6,0,1.1-0.5,1.1-1.1s-0.5-1.1-1.1-1.1h-4.2V6.4c0-0.6-0.5-1.1-1.1-1.1H61.1   c-0.6,0-1.1,0.5-1.1,1.1v60.7c-0.1,0.1-0.1,0.2-0.2,0.2h-4.9V31c0-0.6-0.5-1.1-1.1-1.1H41v-9.6c0-0.4-0.3-0.8-0.7-1L12.9,6.5   c-0.4-0.2-0.8-0.1-1.1,0.1c-0.3,0.2-0.5,0.6-0.5,1v85.2H7.1C6.5,92.8,5.9,93.3,5.9,93.9z M38.7,29.9h-7c-0.6,0-1.1,0.5-1.1,1.1   v61.7h-17V9.3l25.1,11.8V29.9z M52.6,32.2v60.6h-4.2v-8.6c0-2.7-2.2-5-5-5c-2.7,0-5,2.2-5,5v8.6h-5.5V32.2H52.6z M40.7,84.2   c0-1.5,1.2-2.7,2.7-2.7s2.7,1.2,2.7,2.7v8.6h-5.4V84.2z M58.8,69.6c0,0.2-0.1,0.5-0.1,0.7c0,1.3,0.5,2.4,1.3,3.3   c-2.4,1.2-4,3.7-4,6.6c0,3.7,2.7,6.8,6.3,7.3v5.2h-7.4V69.6H58.8z M63.4,72.8c-1.3,0-2.4-1.1-2.4-2.4s1.1-2.4,2.4-2.4   s2.4,1.1,2.4,2.4S64.7,72.8,63.4,72.8z M68.5,80.2c0,2.8-2.3,5.1-5.1,5.1c-2.8,0-5.1-2.3-5.1-5.1c0-2.8,2.3-5.1,5.1-5.1   C66.2,75.1,68.5,77.4,68.5,80.2z M87.4,92.8h-7.2v-5.2c3.5-0.6,6.3-3.6,6.3-7.3c0-4.1-3.3-7.4-7.4-7.4s-7.4,3.3-7.4,7.4   c0,3.7,2.7,6.8,6.3,7.3v5.2H64.5v-5.2c3.5-0.6,6.3-3.6,6.3-7.3c0-2.9-1.6-5.4-4-6.6c0.8-0.8,1.3-2,1.3-3.3c0-2.6-2.1-4.7-4.7-4.7   c-0.4,0-0.8,0.1-1.1,0.2V7.6h25.1V92.8z M73.9,80.2c0-2.8,2.3-5.1,5.1-5.1c2.8,0,5.1,2.3,5.1,5.1c0,2.8-2.3,5.1-5.1,5.1   C76.2,85.4,73.9,83.1,73.9,80.2z"></path><path d="M48.8,39.1H36.7c-0.6,0-1.1-0.5-1.1-1.1s0.5-1.1,1.1-1.1h12.2c0.6,0,1.1,0.5,1.1,1.1S49.5,39.1,48.8,39.1z"></path><path d="M48.8,45H36.7c-0.6,0-1.1-0.5-1.1-1.1s0.5-1.1,1.1-1.1h12.2c0.6,0,1.1,0.5,1.1,1.1S49.5,45,48.8,45z"></path><path d="M48.8,50.9H36.7c-0.6,0-1.1-0.5-1.1-1.1s0.5-1.1,1.1-1.1h12.2c0.6,0,1.1,0.5,1.1,1.1S49.5,50.9,48.8,50.9z"></path><path d="M48.8,56.7H36.7c-0.6,0-1.1-0.5-1.1-1.1s0.5-1.1,1.1-1.1h12.2c0.6,0,1.1,0.5,1.1,1.1S49.5,56.7,48.8,56.7z"></path><path d="M48.8,62.6H36.7c-0.6,0-1.1-0.5-1.1-1.1s0.5-1.1,1.1-1.1h12.2c0.6,0,1.1,0.5,1.1,1.1S49.5,62.6,48.8,62.6z"></path><path d="M48.8,68.5H36.7c-0.6,0-1.1-0.5-1.1-1.1s0.5-1.1,1.1-1.1h12.2c0.6,0,1.1,0.5,1.1,1.1S49.5,68.5,48.8,68.5z"></path><path d="M48.8,74.4H36.7c-0.6,0-1.1-0.5-1.1-1.1s0.5-1.1,1.1-1.1h12.2c0.6,0,1.1,0.5,1.1,1.1S49.5,74.4,48.8,74.4z"></path><rect x="78.7" y="13" width="3.5" height="7.5"></rect><rect x="73" y="13" width="3.5" height="7.5"></rect><rect x="67.2" y="13" width="3.5" height="7.5"></rect><rect x="78.7" y="24.4" width="3.5" height="7.5"></rect><rect x="73" y="24.4" width="3.5" height="7.5"></rect><rect x="67.2" y="24.4" width="3.5" height="7.5"></rect><rect x="78.7" y="34.7" width="3.5" height="7.5"></rect><rect x="73" y="34.7" width="3.5" height="7.5"></rect><rect x="67.2" y="34.7" width="3.5" height="7.5"></rect><rect x="78.7" y="46.5" width="3.5" height="7.5"></rect><rect x="73" y="46.5" width="3.5" height="7.5"></rect><rect x="67.2" y="46.5" width="3.5" height="7.5"></rect><rect x="78.7" y="56.6" width="3.5" height="7.5"></rect><rect x="73" y="56.6" width="3.5" height="7.5"></rect><rect x="67.2" y="56.6" width="3.5" height="7.5"></rect><rect x="17.4" y="57.6" width="3.5" height="7.5"></rect><rect x="17.4" y="67.8" width="3.5" height="7.5"></rect><rect x="17.4" y="47.5" width="3.5" height="7.5"></rect><rect x="17.4" y="36.8" width="3.5" height="7.5"></rect><rect x="17.4" y="26.1" width="3.5" height="7.5"></rect><rect x="23" y="57.6" width="3.5" height="7.5"></rect><rect x="23" y="67.8" width="3.5" height="7.5"></rect><rect x="23" y="47.5" width="3.5" height="7.5"></rect><rect x="23" y="36.8" width="3.5" height="7.5"></rect><rect x="23" y="26.1" width="3.5" height="7.5"></rect><rect x="17.4" y="78.3" width="3.5" height="7.5"></rect><rect x="23" y="78.3" width="3.5" height="7.5"></rect></g></svg></g></g></svg>