<svg xmlns="http://www.w3.org/2000/svg" xmlns:xlink="http://www.w3.org/1999/xlink" width="100" height="100" viewBox="0 0 100 100"><g><g transform="translate(50 50) scale(0.69 0.69) rotate(0) translate(-50 -50)" style="fill:#283f5c"><svg fill="#283f5c" xmlns="http://www.w3.org/2000/svg" data-name="Your Icons" viewBox="0 0 48 48" x="0px" y="0px"><title>Artboard 16</title><path d="M27,29.9a5,5,0,0,0,5-5H29a5,5,0,0,0-4.5,2.85V23a7,7,0,1,0-1,0V30.8A5,5,0,0,0,19,27.94H16a5,5,0,0,0,5,5h2.5v5.6H20a.5.5,0,0,0-.5.5.51.51,0,0,0,.5.5h8a.5.5,0,0,0,.5-.5.5.5,0,0,0-.5-.5H24.5V29.9Zm-3.6-10a2.17,2.17,0,0,1-2.16-2.17.5.5,0,0,1,1,0,1.17,1.17,0,0,0,1.16,1.17h1.12a1.17,1.17,0,0,0,0-2.33H23.4a2.17,2.17,0,0,1,0-4.33h.06v-.63a.5.5,0,0,1,1,0v.63h.06a2.16,2.16,0,0,1,2.16,2.16.5.5,0,0,1-1,0,1.16,1.16,0,0,0-1.16-1.16H23.4a1.17,1.17,0,0,0,0,2.33h1.12a2.17,2.17,0,0,1,0,4.33h-.06v.61a.5.5,0,0,1-1,0v-.61Z"></path></svg></g></g></svg>