<svg xmlns="http://www.w3.org/2000/svg" xmlns:xlink="http://www.w3.org/1999/xlink" width="100" height="100" viewBox="0 0 100 100"><g><g transform="translate(50 50) scale(0.69 0.69) rotate(0) translate(-50 -50)" style="fill:#283f5c"><svg fill="#283f5c" xmlns="http://www.w3.org/2000/svg" xmlns:xlink="http://www.w3.org/1999/xlink" version="1.1" x="0px" y="0px" viewBox="0 0 100 100" enable-background="new 0 0 100 100" xml:space="preserve"><g><path d="M90.072,19.436h-8.054v-8.721c0-0.85-0.69-1.539-1.54-1.539h-9.126V1.539c0-0.85-0.69-1.539-1.54-1.539H9.927   C9.078,0,8.388,0.689,8.388,1.539v77.498c0,0.85,0.69,1.539,1.539,1.539h9.141v7.637c0,0.85,0.689,1.539,1.54,1.539h8.043v8.709   c0,0.85,0.688,1.539,1.539,1.539h59.883c0.851,0,1.54-0.689,1.54-1.539V20.977C91.612,20.125,90.923,19.436,90.072,19.436z    M88.533,96.92H31.729v-7.168h48.749c0.85,0,1.54-0.689,1.54-1.539V22.516h6.515V96.92z M22.146,80.576h6.504h1.539h1.54h21.136   c0.393,0,0.786-0.16,1.082-0.455l16.947-16.949c0.296-0.295,0.458-0.689,0.458-1.084V22.516v-1.539v-1.541v-7.18h7.587v7.18v1.541   v1.539v64.158h-47.21h-1.54H28.65h-6.504V80.576z M11.467,3.08h56.806v6.096v1.539v1.541v7.18v1.541v1.539v38.033H52.865   c-0.851,0-1.54,0.691-1.54,1.539v15.408H31.729h-1.54H28.65h-6.504h-1.539h-1.54h-7.601V3.08z M54.404,75.316V63.629h11.688   L54.404,75.316z"></path><polygon points="32.073,16.197 34.253,16.197 61.302,16.197 61.302,13.117 37.332,13.117 35.152,13.117 32.973,13.117    18.438,13.117 18.438,16.197 29.894,16.197  "></polygon><polygon points="20.607,27.824 22.626,27.824 38.121,27.824 40.288,27.824 42.469,27.824 61.302,27.824 61.302,24.744    45.548,24.744 43.367,24.744 41.2,24.744 25.706,24.744 23.526,24.744 21.346,24.744 18.438,24.744 18.438,27.824 19.067,27.824     "></polygon><polygon points="20.607,39.451 22.146,39.451 28.65,39.451 30.189,39.451 31.729,39.451 61.302,39.451 61.302,36.371    33.921,36.371 31.741,36.371 29.562,36.371 22.146,36.371 20.607,36.371 19.067,36.371 18.438,36.371 18.438,39.451 19.067,39.451     "></polygon><polygon points="20.607,51.078 22.146,51.078 28.65,51.078 30.189,51.078 31.729,51.078 61.302,51.078 61.302,48 31.729,48    30.189,48 28.65,48 22.146,48 20.607,48 19.067,48 18.438,48 18.438,51.078 19.067,51.078  "></polygon><polygon points="20.607,62.705 22.146,62.705 28.65,62.705 30.189,62.705 31.729,62.705 45.068,62.705 45.068,59.625    31.729,59.625 30.189,59.625 28.65,59.625 22.146,59.625 20.607,59.625 19.067,59.625 18.438,59.625 18.438,62.705 19.067,62.705     "></polygon></g></svg></g></g></svg>