<svg xmlns="http://www.w3.org/2000/svg" xmlns:xlink="http://www.w3.org/1999/xlink" width="200" height="200" viewBox="0 0 100 100"><g><g transform="translate(50 50) scale(0.69 0.69) rotate(0) translate(-50 -50)" style="fill:#ffffff"><svg fill="#ffffff" xmlns="http://www.w3.org/2000/svg" xmlns:xlink="http://www.w3.org/1999/xlink" version="1.1" x="0px" y="0px" viewBox="0 0 512 512" enable-background="new 0 0 512 512" xml:space="preserve"><g><path d="M401.827,275.926c0-40.432-16.39-77.037-42.887-103.534L255.407,275.926H401.827z M391.469,265.926h-111.92l79.138-79.139   C377.954,209.043,389.355,236.566,391.469,265.926z"></path><path d="M475.52,56.47H200.93L185.66,43.5H38.56C25.57,43.5,15,54.07,15,67.06v377.88c0,12.99,10.57,23.561,23.56,23.561h434.879   c12.99,0,23.561-10.57,23.561-23.561V237.21V99.98l0,0v-1.61V77.95C497,66.11,487.36,56.47,475.52,56.47z M487,99.98v137.23   v207.729c0,7.48-6.08,13.561-13.561,13.561H38.56c-7.48,0-13.56-6.08-13.56-13.561V67.06c0-7.479,6.08-13.56,13.56-13.56h143.42   l3.5,2.97l11.77,10l23.5,19.96h252.689C480.92,86.43,487,92.51,487,99.98L487,99.98z M487,80.74c-3.84-2.72-8.51-4.31-13.561-4.31   H224.43L212.7,66.47H475.52c6.33,0,11.48,5.15,11.48,11.48V80.74z"></path><path d="M195.662,428.096l4.654,1.819c17.548,6.862,36.083,10.342,55.091,10.342c83.494,0,151.42-67.927,151.42-151.421v-5H251.992   L195.662,428.096z M396.74,293.836c-2.646,75.671-65.029,136.421-141.333,136.421c-16.072,0-31.778-2.661-46.763-7.917   l50.178-128.504H396.74z"></path><path d="M352.629,165.426l-3.536-3.536c-14.931-14.931-32.419-26.374-51.98-34.012c-16.003-6.258-32.831-9.692-50.088-10.25v-0.09   h-5h-5v0.091c-81.187,2.648-146.42,69.509-146.42,151.329c0,40.444,15.751,78.469,44.351,107.068   c14.931,14.932,32.42,26.375,51.98,34.012l4.657,1.818L246.3,271.754L352.629,165.426z M247.024,127.625   c7.511,0.259,14.931,1.112,22.227,2.535l-22.227,22.227V127.625z M247.024,166.529l33.64-33.641   c4.325,1.228,8.599,2.658,12.809,4.304l0.003,0.001c1.128,0.44,2.246,0.896,3.359,1.364l-49.811,49.82V166.529z M247.024,202.521   l59.461-59.471c4.574,2.34,9.007,4.921,13.287,7.743l-72.749,72.739V202.521z M247.024,237.672l81.007-80.996   c3.588,2.757,7.056,5.694,10.395,8.811l-91.402,91.401V237.672z M237.024,268.018l-51.077,130.807   c-16.404-7.076-31.161-17.108-43.92-29.867c-26.711-26.712-41.422-62.226-41.422-99.998c0-76.304,60.75-138.688,136.42-141.333   V268.018z"></path><path d="M113.531,293.836h31.15V227.21h-31.15V293.836z M123.531,237.21h11.15v46.625h-11.15V237.21z"></path><path d="M183.849,207.172h-31.15v86.664h31.15V207.172z M173.849,283.836h-11.15v-66.664h11.15V283.836z"></path><path d="M223.015,185.204h-31.15v108.632h31.15V185.204z M213.015,283.836h-11.15v-88.632h11.15V283.836z"></path><rect x="130.32" y="93.373" width="13.832" height="10"></rect><rect x="57.385" y="93.373" width="61.146" height="10"></rect><path d="M300.561,361.516c9.183,2.694,10.018,5.598,10.101,8.583c0.113,4.055-2.268,7.51-5.928,8.598   c-0.528,0.157-1.063,0.271-1.591,0.339c-2.17,0.278-4.288-0.389-5.978-1.877c-1.79-1.575-2.816-3.845-2.816-6.227h-10   c0,5.254,2.263,10.259,6.209,13.732c1.888,1.662,4.08,2.869,6.411,3.604v11.477h10v-11.306c0.205-0.054,0.414-0.097,0.617-0.157   c7.934-2.358,13.309-9.949,13.071-18.462c-0.36-12.934-12.653-16.541-17.28-17.899c-8.953-2.627-9.793-4.732-10.052-7.646   c-0.422-4.73,2.522-8.933,6.845-9.772c0.224-0.044,0.446-0.079,0.671-0.106c2.16-0.268,4.265,0.406,5.942,1.894   c1.781,1.58,2.8,3.851,2.793,6.223l-0.002,0.487l10,0.041l0.002-0.494c0.015-5.247-2.23-10.255-6.158-13.738   c-1.896-1.682-4.1-2.918-6.449-3.658v-11.457h-10v11.31c-8.656,2.352-14.441,10.772-13.604,20.16   C284.273,355.365,292.166,359.052,300.561,361.516z"></path></g></svg></g></g></svg>