<svg xmlns="http://www.w3.org/2000/svg" xmlns:xlink="http://www.w3.org/1999/xlink" width="100" height="100" viewBox="0 0 100 100"><g><g transform="translate(50 50) scale(0.69 0.69) rotate(0) translate(-50 -50)" style="fill:#283f5c"><svg fill="#283f5c" xmlns="http://www.w3.org/2000/svg" xmlns:xlink="http://www.w3.org/1999/xlink" version="1.1" x="0px" y="0px" viewBox="0 0 66 66" enable-background="new 0 0 66 66" xml:space="preserve"><g><g><path d="M58.417,15.471L44.156,1.22C44.018,1.082,43.784,1,43.626,1H11.885C9.334,1,7.258,3.075,7.258,5.626v54.747    c0,2.551,2.075,4.626,4.627,4.626h42.218c2.551,0,4.626-2.075,4.626-4.626V16.193C58.759,15.978,58.761,15.815,58.417,15.471    C58.417,15.471,58.417,15.471,58.417,15.471z M44.376,3.56l11.792,11.784H44.376V3.56z M57.229,60.374    c0,1.724-1.402,3.126-3.126,3.126H11.885c-1.724,0-3.127-1.402-3.127-3.126V5.626c0-1.724,1.402-3.126,3.127-3.126h30.991v13.594    c0,0.414,0.336,0.75,0.75,0.75h13.604V60.374z"></path></g><g><path d="M12.668,7.503h25.096c0.414,0,0.75-0.336,0.75-0.75c0-0.414-0.336-0.75-0.75-0.75H12.668c-0.414,0-0.75,0.336-0.75,0.75    C11.918,7.167,12.254,7.503,12.668,7.503z"></path></g><g><path d="M12.668,12.841h25.096c0.414,0,0.75-0.336,0.75-0.75c0-0.414-0.336-0.75-0.75-0.75H12.668c-0.414,0-0.75,0.336-0.75,0.75    C11.918,12.505,12.254,12.841,12.668,12.841z"></path></g><g><path d="M41.196,21.312c0-0.414-0.336-0.75-0.75-0.75h-5.164c-0.414,0-0.75,0.336-0.75,0.75v15.614h-3.078v-9.487    c0-0.414-0.336-0.75-0.75-0.75h-5.164c-0.414,0-0.75,0.336-0.75,0.75v9.487h-3.078V21.312c0-0.414-0.336-0.75-0.75-0.75h-5.164    c-0.414,0-0.75,0.336-0.75,0.75v15.614h-2.866c-0.414,0-0.75,0.336-0.75,0.75c0,0.414,0.336,0.75,0.75,0.75    c14.476,0,25.837,0,41.62,0c0.414,0,0.75-0.336,0.75-0.75c0-0.414-0.336-0.75-0.75-0.75h-2.866v-12.55    c0-0.414-0.336-0.75-0.75-0.75h-5.164c-0.414,0-0.75,0.336-0.75,0.75v12.55h-3.078V21.312z M20.214,36.925h-3.664V22.062h3.664    V36.925z M29.955,36.925h-3.664v-8.737h3.664V36.925z M39.696,36.925h-3.664V22.062h3.664V36.925z M45.775,25.125h3.664v11.8    h-3.664V25.125z"></path></g><g><path d="M20.395,43.175c-4.157,0.601-7.358,4.182-7.358,8.498c0,4.733,3.85,8.584,8.584,8.584c4.316,0,7.897-3.2,8.498-7.358    h-9.724V43.175z"></path></g><g><path d="M22.859,41.937v8.51h8.498C30.806,46.008,27.299,42.501,22.859,41.937z"></path></g><g><path d="M53.804,43.442H42.297c-0.414,0-0.75,0.336-0.75,0.75c0,0.414,0.336,0.75,0.75,0.75h11.507c0.414,0,0.75-0.336,0.75-0.75    C54.554,43.778,54.218,43.442,53.804,43.442z"></path></g><g><path d="M53.804,48.516H42.297c-0.414,0-0.75,0.336-0.75,0.75c0,0.414,0.336,0.75,0.75,0.75h11.507c0.414,0,0.75-0.336,0.75-0.75    C54.554,48.852,54.218,48.516,53.804,48.516z"></path></g><g><path d="M53.804,53.591H42.297c-0.414,0-0.75,0.336-0.75,0.75c0,0.414,0.336,0.75,0.75,0.75h11.507c0.414,0,0.75-0.336,0.75-0.75    C54.554,53.927,54.218,53.591,53.804,53.591z"></path></g><g><path d="M53.804,58.665H42.297c-0.414,0-0.75,0.336-0.75,0.75s0.336,0.75,0.75,0.75h11.507c0.414,0,0.75-0.336,0.75-0.75    S54.218,58.665,53.804,58.665z"></path></g><g><circle cx="38.737" cy="44.192" r="1.111"></circle></g><g><circle cx="38.737" cy="49.266" r="1.111"></circle></g><g><circle cx="38.737" cy="54.341" r="1.111"></circle></g><g><circle cx="38.737" cy="59.415" r="1.111"></circle></g></g></svg></g></g></svg>