<?xml version="1.0" encoding="UTF-8"?>
<svg width="56px" height="57px" viewBox="0 0 56 57" version="1.1" xmlns="http://www.w3.org/2000/svg" xmlns:xlink="http://www.w3.org/1999/xlink">
    <!-- Generator: Sketch 54.1 (76490) - https://sketchapp.com -->
    <title>globe.1</title>
    <desc>Created with Sketch.</desc>
    <g id="Sponsor-View---Investor-Servicing" stroke="none" stroke-width="1" fill="none" fill-rule="evenodd">
        <g id="S.-Dash-/-Investor-Servicing/Distributions" transform="translate(-365.000000, -758.000000)" fill="#FFFFFF" fill-rule="nonzero">
            <g id="globe.1" transform="translate(365.000000, 758.000000)">
                <path d="M28.188663,35.3333333 C27.7567062,35.3333333 27.3456505,35.0838442 27.1459286,34.6592329 C26.4260006,33.13591 24.2058357,32.9080113 23.2211601,34.2706057 C22.8356503,34.803169 22.1087553,34.9087221 21.5955163,34.510499 C21.0822773,34.112276 20.9777717,33.3614098 21.3609591,32.8312454 C23.1050427,30.4275137 26.8672468,30.4107212 28.6415209,32.6489264 C29.9652594,32.118762 31.2913202,31.6917518 32.6011246,31.3726936 C32.5802235,31.0536354 32.5662894,30.7321783 32.5523553,30.4107212 C31.2541626,30.0940619 30.1858824,29.2520362 29.5634931,28.0789575 C25.448292,28.4124093 21.2378747,27.6759367 17.3502637,26.032667 C15.6061802,28.0957501 12.1226578,28.0861543 10.3855413,26.0206723 C7.4570602,27.2465275 4.37762644,27.9422183 1.21458813,28.0933511 L1.16581882,26.9850437 L1.15652942,26.9850437 L0,26.8914853 C0.0441246166,26.2893529 0.522528354,25.7232045 1.11008246,25.6944173 C4.30331129,25.5432845 7.40364619,24.7852214 10.3274826,23.4370206 C10.8848462,23.1803347 11.5420708,23.4154302 11.8277196,23.9743818 C12.6382191,25.5672739 15.0975859,25.5720717 15.9127302,23.9815786 C16.198379,23.4202281 16.8648929,23.1923294 17.4152895,23.4466164 C21.4492084,25.3201837 25.8965052,26.0350659 30.1858824,25.6080557 C30.7316343,25.5576781 31.2448732,25.9079225 31.4074376,26.4524804 C31.7116652,27.4912188 32.6429269,28.1533245 33.6717272,28.1509255 C33.9620207,28.1509255 34.2453472,28.2612765 34.4613256,28.4651859 C34.691238,28.6834889 34.8282566,28.9833556 34.8398683,29.3048127 C34.8747035,30.3867318 34.9002494,31.2959278 34.9931433,32.1883311 C35.0581691,32.807256 34.6540805,33.3758034 34.0618817,33.4933511 C32.2829629,33.8507922 30.4599195,34.4337332 28.6391985,35.2277802 C28.4928906,35.3021472 28.3396156,35.3333333 28.188663,35.3333333 Z" id="Path"></path>
                <path d="M53.8567305,36.3333333 C53.6629365,36.3333333 53.4691425,36.2853262 53.2961121,36.1893119 C47.6622434,33.080277 41.0917036,31.9761124 34.528085,33.247159 C34.2097091,33.3111685 33.884412,33.2357287 33.6214059,33.0459862 C33.3630138,32.8562436 33.1922905,32.5682006 33.1599915,32.2481529 C33.0607875,31.3405891 33.0284885,30.4170228 33.0008036,29.4911705 C32.9892682,29.1848391 33.1023148,28.8076401 33.3145653,28.5858927 C33.5268159,28.3641454 33.8175069,28.1538283 34.1266545,28.1492562 C35.3747802,28.1263957 36.3898917,27.102243 36.3898917,25.8700593 C36.3898917,25.7511844 36.366821,25.6368817 36.3483644,25.5225789 C36.2653099,24.985356 36.5744575,24.4641354 37.0866273,24.2743929 C42.4136556,22.3221018 46.9747361,18.6164066 49.9324018,13.8408376 C50.3522888,13.1641653 51.4781397,13.1641653 51.8980268,13.8408376 C54.5834581,18.1706258 56,23.1222211 56,28.1561144 C56,30.5770467 55.6539393,33.0459862 54.968739,35.4943511 C54.8764561,35.8326873 54.6319066,36.1092999 54.3043024,36.2441772 C54.1589569,36.3036146 54.0089972,36.3333333 53.8567305,36.3333333 Z M39.8504991,30.4421694 C44.4346503,30.4421694 48.9818883,31.4960408 53.0907828,33.5031972 C53.4922132,31.7086439 53.6929284,29.9163768 53.6929284,28.1561144 C53.6929284,24.1463738 52.710116,20.1960706 50.8390809,16.6229666 C47.7983606,20.8384521 43.5602701,24.153232 38.6900421,26.1100951 C38.5839168,28.0783885 37.1950597,29.7357784 35.33556,30.2615711 C35.3447883,30.4398834 35.3517095,30.6136236 35.3609378,30.7850777 C36.8651485,30.5564722 38.3693591,30.4421694 39.8504991,30.4421694 Z" id="Shape"></path>
                <path d="M28.2192466,28.3333333 C24.3069711,28.3333333 20.5034343,27.5099113 16.9173746,25.8840609 C16.6258626,25.7511004 16.3991311,25.5038405 16.2973333,25.1982646 C16.1932219,24.8926887 16.2186714,24.5591211 16.3690545,24.274539 C16.556455,23.9199776 16.6513121,23.5560857 16.6513121,23.1945264 C16.6513121,22.7116699 16.500929,22.2474744 16.2163578,21.8462603 C15.8600654,21.3447426 15.9526089,20.6496157 16.4292078,20.2600648 C22.0836141,15.6437693 25.5169771,8.8137981 25.8455064,1.51729879 C25.8732695,0.913144914 26.352182,0.432620983 26.9490874,0.404629297 L27.3701602,0.378970252 C31.0279411,0.134043006 34.7944606,0.88981851 38.3157398,2.28940278 C38.6234469,2.41070008 38.8617463,2.66029261 38.9751121,2.97053379 C39.0907914,3.28077496 39.0676556,3.62833839 38.9126452,3.92225109 C38.7252447,4.27914507 38.6303876,4.64303698 38.6303876,5.00692889 C38.6303876,6.00063372 39.2643104,6.88237181 40.2105675,7.20427619 C40.5483512,7.31857557 40.8144137,7.58216394 40.9347202,7.92039681 C41.0527131,8.25862967 41.008755,8.63418478 40.8190408,8.9350954 C38.1607295,13.1431788 36.4255393,17.7851332 35.6620556,22.7326636 C35.564885,23.3694745 34.9841747,23.8033456 34.3433111,23.7053747 C33.0361345,23.5071003 31.6919405,24.5941107 31.6919405,25.9983602 C31.6919405,26.2013 31.7289579,26.4159029 31.8076199,26.674826 C31.9117313,27.0107262 31.8562052,27.3722855 31.6641775,27.6661982 C31.4721498,27.9577782 31.1575019,28.1467221 30.8127775,28.1793791 C29.9567503,28.2633541 29.0984096,28.3333333 28.2192466,28.3333333 Z M18.8561604,24.1812333 C22.2085478,25.5364974 25.8246841,26.1919694 29.37604,25.961038 C29.3968623,23.5630836 31.2222824,21.5896698 33.5451236,21.3587384 C34.354879,16.884734 35.9188638,12.6556569 38.2116284,8.75781473 C37.0409534,7.89473776 36.3168007,6.51381462 36.3168007,5.00692889 C36.3168007,4.68968979 36.3515045,4.37711597 36.416285,4.06920743 C33.7186426,3.12915334 30.9030074,2.54599322 28.0896857,2.67662109 C27.4881531,9.91946967 24.089494,16.6654658 18.6248017,21.4497114 C18.8492197,21.9978819 18.964899,22.5903726 18.964899,23.1945264 C18.964899,23.5257614 18.9278816,23.8569963 18.8561604,24.1812333 Z" id="Shape"></path>
                <path d="M37.1269048,26.3333333 C36.9198193,26.3333333 36.7127338,26.2797765 36.5291807,26.172663 C36.2256121,25.9956927 36.0161733,25.6906519 35.9644019,25.3460256 C35.8090878,24.3400893 35.0207508,23.5623516 34.0017958,23.413324 C33.6911675,23.3667529 33.4134846,23.2014254 33.2299315,22.9522699 C33.0440252,22.7031144 32.9663681,22.3887593 33.013433,22.0837185 C33.8394219,16.8235103 35.7173112,11.8893 38.5976828,7.41614371 C38.8894852,6.96207528 39.4589704,6.76880512 39.9672713,6.93878972 C41.2450832,7.36491548 42.1840278,6.83866181 42.7346871,5.90956793 C42.9017675,5.62315553 43.1841568,5.42522826 43.5136111,5.35770014 C43.8407121,5.29017201 44.1819326,5.36468581 44.445496,5.56028452 C47.4529428,7.74912723 49.9379693,10.4060097 51.8252716,13.4517611 C52.0582428,13.8243301 52.0582428,14.2946984 51.8252716,14.6695959 C48.5354354,19.9763752 43.4594865,24.0932624 37.5363694,26.2611481 C37.4022345,26.3100478 37.263393,26.3333333 37.1269048,26.3333333 Z M35.5102257,21.4340513 C36.5362404,21.8671628 37.3645826,22.6472291 37.8540575,23.6275512 C42.5746665,21.6436214 46.6316604,18.2905006 49.4296684,14.0571857 C47.9518307,11.8217718 46.1115933,9.82852782 43.9419017,8.11005343 C42.9417726,9.05079008 41.5557115,9.54444397 40.1437646,9.3628166 C37.8634705,13.0885063 36.3079757,17.1401939 35.5102257,21.4340513 Z" id="Shape"></path>
                <path d="M9.82421881,49.3333333 C9.52550945,49.3333333 9.23628294,49.2236927 9.01343627,49.0184082 C3.20045738,43.6553505 0,36.4190717 0,28.6439211 C0,28.3779843 0.0165949642,28.1190459 0.0355606376,27.8577747 L0.0592677293,27.4542041 C0.0877162394,26.8103572 0.614013676,26.285482 1.29440721,26.3368032 C1.94872294,26.3647965 2.4560547,26.9083339 2.4299769,27.5521807 L2.40152839,28.0140709 C2.38730414,28.2240209 2.37070917,28.4316382 2.37070917,28.6439211 C2.37070917,35.3226658 4.95004075,41.5698466 9.66301059,46.377703 C10.8246581,45.208981 12.6406213,44.6887714 14.2692985,45.1413304 C16.1255638,42.2486851 18.4488588,39.7059566 21.19414,37.5691315 C21.006854,37.0629186 20.9096549,36.5240467 20.9096549,35.9781766 C20.9096549,34.9704163 21.2415542,34.004646 21.8674214,33.1858408 C22.2609591,32.6679639 23.0077325,32.5699872 23.5269178,32.9548957 C24.0508446,33.3421369 24.1551558,34.0722966 23.761618,34.5878406 C23.4463137,35.0007424 23.2803641,35.4812948 23.2803641,35.9781766 C23.2803641,36.4354012 23.4178652,36.8832946 23.6762725,37.2682031 C24.022396,37.7860799 23.9014899,38.4789151 23.3941581,38.8474941 C20.281417,41.1196203 17.7210511,43.9236201 15.781811,47.1848444 C15.4546531,47.7353801 14.7434403,47.9196696 14.1792116,47.6140756 C12.9464428,46.9329043 11.452896,47.4881056 10.8957794,48.6614931 C10.7369418,49.0020788 10.4192668,49.2446878 10.0470655,49.3146711 C9.97357349,49.326335 9.89771079,49.3333333 9.82421881,49.3333333 Z" id="Path"></path>
                <path d="M36.6990832,55.3333333 C36.2050928,55.3333333 35.7424287,55.0311572 35.5641102,54.5433927 C35.3400073,53.9247644 35.665318,53.2442734 36.2942521,53.0229948 C36.5569104,52.9278213 36.8195687,52.8255097 37.0749978,52.7208187 C37.0557202,52.539989 37.0436716,52.3615385 37.0436716,52.1854674 C37.0436716,51.0267291 37.4750096,49.9203363 38.2316582,49.0637742 C35.325549,44.4573732 33.4074205,39.2799308 32.6339039,33.9668661 C31.5302571,34.2357314 30.4145618,34.583115 29.2964568,35.004258 C29.3518801,35.2921581 29.3807966,35.5800582 29.3807966,35.8727169 C29.3807966,37.0671453 28.9229518,38.2139868 28.0867828,39.1014804 C27.6361672,39.5892449 26.8698797,39.610659 26.3855281,39.1657225 C25.8987669,38.7184067 25.8674407,37.9665355 26.3228757,37.4835296 C26.7421651,37.0362138 26.9734972,36.4651724 26.9734972,35.8727169 C26.9734972,35.5277127 26.8891573,35.1803292 26.7204777,34.8377043 C26.5734854,34.5426662 26.5590272,34.2048 26.6746932,33.8978653 C26.7903593,33.5909305 27.0265108,33.3458585 27.3325438,33.2197535 C29.3735675,32.3679501 31.4266396,31.7398045 33.4339273,31.3543515 C33.7712866,31.2924887 34.1062362,31.3686275 34.380943,31.5637334 C34.6508305,31.7612185 34.8291489,32.0610153 34.8628849,32.3941228 C35.5014578,38.2092281 37.4991067,43.6626739 40.8004082,48.6093204 C41.1594548,49.1470511 41.0221014,49.8703702 40.4847363,50.2391678 C39.8389342,50.6864836 39.4533808,51.4145614 39.4533808,52.1854674 C39.4533808,52.4495741 39.5039846,52.7184394 39.6100119,53.0039601 C39.8317051,53.5940363 39.5497691,54.2507339 38.9642098,54.5029439 C38.2605747,54.8098787 37.6918834,55.0549506 37.1039144,55.2619532 C36.9713804,55.3095399 36.8340269,55.3333333 36.6990832,55.3333333 Z" id="Path"></path>
                <path d="M44.6503533,50.3333333 C44.3298901,50.3333333 44.0140713,50.1992569 43.7841737,49.9405128 C43.0085598,49.0584307 41.6779408,48.9055365 40.7351287,49.5759189 C40.4820092,49.7593919 40.1592238,49.8299585 39.8526938,49.7688008 C39.5438415,49.7099953 39.2721445,49.5265223 39.1003019,49.2607215 C35.75866,44.1281801 33.6501049,38.226463 33.0068562,32.1883173 C32.9418347,31.5814448 33.345897,31.023969 33.9380573,30.9087102 C41.0695251,29.4950267 48.2544035,30.7228849 54.4035818,34.1900555 C54.8726656,34.453504 55.1025632,35.0086277 54.9562647,35.5331725 C53.3771706,41.2937564 50.0633951,46.3251524 45.3702345,50.0839981 C45.1589145,50.2510057 44.905795,50.3333333 44.6503533,50.3333333 Z M42.0634256,46.7955962 C42.9969489,46.7955962 43.904928,47.0896236 44.6712531,47.621225 C48.3449691,44.4551385 51.015496,40.3999132 52.4575805,35.8013254 C47.2767584,33.1033304 41.3783774,32.0824674 35.45213,33.0280594 C36.134856,38.0265244 37.8230934,42.7427232 40.479687,47.0802147 C40.9836038,46.8920372 41.5177092,46.7955962 42.0634256,46.7955962 Z" id="Shape"></path>
                <path d="M27.7540703,56.3333333 C23.0887846,56.3333333 18.4352563,55.1442609 14.3037509,52.8951081 C13.9698443,52.7145191 13.7488076,52.3861757 13.6994271,52.0132713 C13.6500465,51.6380216 13.7887823,51.2651172 14.0639025,51.0094784 C14.553005,50.5521428 14.8210708,49.9470527 14.8210708,49.2974017 C14.8210708,48.4577805 14.3554828,47.6791374 13.6030174,47.2616721 C13.3278973,47.1092269 13.1233207,46.8512428 13.0410198,46.5463524 C12.9587189,46.241462 13.0010451,45.9154638 13.160944,45.6457531 C15.2490355,42.0926076 18.0002372,39.0390133 21.341654,36.5647106 C21.600314,36.3723952 21.9271662,36.2949999 22.2446125,36.3512874 C22.5620589,36.4075748 22.8418819,36.5905091 23.0205925,36.8555292 C23.8271413,38.0586735 25.6894933,38.2298811 26.6982672,37.148693 C27.1426921,36.6749402 27.8857517,36.6514871 28.3607455,37.0900602 C28.8357393,37.5309786 28.8616053,38.274442 28.4195319,38.7481948 C26.7170789,40.5728464 23.7025143,40.6760401 21.8942458,39.0999914 C19.4628419,41.0419085 17.3959134,43.3379675 15.7357866,45.9412623 C16.6387451,46.8113725 17.1725253,48.0192074 17.1725253,49.2974017 C17.1725253,50.0643182 16.9891118,50.7984004 16.6410966,51.4550874 C22.7689868,54.4031427 29.8280531,54.8135721 36.4285857,52.4682615 C37.0399639,52.2478023 37.7101284,52.5691099 37.9311651,53.1788906 C38.1498504,53.7886714 37.8300525,54.4594302 37.2186744,54.6775441 C34.1312147,55.7751494 30.9449939,56.3333333 27.7540703,56.3333333 Z" id="Path"></path>
                <path d="M1.14235987,28.3333333 C0.841058228,28.3333333 0.548886936,28.2128328 0.334323644,27.9950049 C0.106064822,27.7655904 -0.0126297651,27.4481178 0.00106576418,27.1236933 C0.208781292,22.4403934 1.58974716,17.8636902 3.99559514,13.884855 C4.20331067,13.541892 4.57080738,13.3333333 4.96797772,13.3333333 L4.96797772,13.3333333 C5.36514807,13.3333333 5.73264478,13.541892 5.94036031,13.8871724 C7.42176006,16.3365776 9.31859087,18.5194912 11.5760706,20.3733457 C12.0462838,20.7603378 12.1375873,21.4485813 11.7883513,21.9468047 C11.5030278,22.3477007 11.3546596,22.8134816 11.3546596,23.2908492 C11.3546596,23.6500335 11.4459631,24.0092178 11.6262876,24.3568155 C11.7723732,24.6418456 11.7974817,24.9732221 11.6947652,25.2744735 C11.5897661,25.5780421 11.3683551,25.8236778 11.080749,25.9534477 C7.94447276,27.3739636 4.61874173,28.1734384 1.19257681,28.3333333 C1.17888128,28.3333333 1.16062058,28.3333333 1.14235987,28.3333333 Z M5.04786831,16.7073485 C3.59385962,19.5692363 2.68310692,22.706885 2.37267492,25.9256398 C4.71004526,25.6962253 6.9880683,25.1354344 9.17478781,24.2548535 C9.10859275,23.9373809 9.07207134,23.6152737 9.07207134,23.2908492 C9.07207134,22.6906638 9.18848334,22.1043823 9.40761181,21.5528606 C7.75730053,20.1022195 6.29644407,18.4777795 5.04786831,16.7073485 Z" id="Shape"></path>
                <path d="M16.887708,22.3333333 C16.8362997,22.3333333 16.7825546,22.3309931 16.7311463,22.3239722 C16.4133496,22.2795071 16.1259306,22.1063269 15.9389913,21.8442164 C15.041683,20.5921707 13.0461066,20.5874901 12.1441248,21.8442164 C11.9571855,22.1063269 11.6697665,22.2795071 11.349633,22.321632 C11.0411833,22.3614166 10.7117029,22.2748265 10.4593349,22.0712228 C7.94266538,20.0305053 5.82791524,17.6270456 4.17350298,14.9240309 C3.94216567,14.5495874 3.94216567,14.0768523 4.17350298,13.7000685 C9.04327015,5.75250343 17.4929237,0.756021878 26.7791304,0.334772847 C27.1086108,0.31839094 27.4264075,0.442425377 27.6577448,0.676452616 C27.8914189,0.908139583 28.0129294,1.2287569 27.998909,1.55639504 C27.6343774,9.54140444 23.8535313,17.020915 17.6214445,22.0712228 C17.4111378,22.2397224 17.1540964,22.3333333 16.887708,22.3333333 Z M14.0392213,18.5163491 C15.1141219,18.5163491 16.1469612,18.8931329 16.9718306,19.5601105 C21.8649652,15.2446483 24.9401157,9.23014821 25.5686988,2.76397559 C17.8177307,3.51520303 10.8262031,7.75109606 6.54996805,14.3108796 C7.81180791,16.2462848 9.34003619,18.0061697 11.1089487,19.5601105 C11.9338181,18.8931329 12.9666574,18.5163491 14.0392213,18.5163491 Z" id="Shape"></path>
                <path d="M33.5,30.3333333 C31.51775,30.3333333 29.79425,29.0530833 29.2115,27.1450833 C29.06975,26.6838333 29,26.2540833 29,25.8333333 C29,23.3515833 31.01825,21.3333333 33.5,21.3333333 C33.7295,21.3333333 33.95,21.3625833 34.17275,21.3963333 C36.119,21.6865833 37.63325,23.1940833 37.93475,25.1470833 C37.97075,25.3720833 38,25.5970833 38,25.8333333 C38,28.2655833 36.02,30.2815833 33.5855,30.3265833 L33.5,30.3333333 Z M33.5,23.5833333 C32.258,23.5833333 31.25,24.5935833 31.25,25.8333333 C31.25,26.0290833 31.286,26.2360833 31.3625,26.4858333 C31.655,27.4420833 32.5145,28.0833333 33.5,28.0833333 L33.5,28.0855833 C34.82075,27.9910833 35.75,27.0100833 35.75,25.8333333 C35.75,25.7163333 35.7275,25.6038333 35.7095,25.4913333 C35.561,24.5170833 34.80725,23.7655833 33.833,23.6215833 C33.72275,23.6035833 33.61475,23.5833333 33.5,23.5833333 Z" id="Shape"></path>
                <path d="M40.5,9.33333333 C40.032,9.33333333 39.564,9.25233333 39.06675,9.08358333 C37.233,8.46708333 36,6.75708333 36,4.83333333 C36,4.11108333 36.18,3.40458333 36.53775,2.73183333 C37.32525,1.25358333 38.84175,0.333333333 40.5,0.333333333 C42.98175,0.333333333 45,2.35158333 45,4.83333333 C45,5.62083333 44.79075,6.37908333 44.379,7.09008333 C43.56675,8.47383333 42.08175,9.33333333 40.5,9.33333333 Z M40.5,2.58333333 C39.6765,2.58333333 38.9205,3.04458333 38.5245,3.78933333 C38.34225,4.13133333 38.25,4.48233333 38.25,4.83333333 C38.25,5.79183333 38.8665,6.64233333 39.78675,6.95283333 C41.0175,7.36458333 41.9085,6.85608333 42.435,5.95833333 C42.64425,5.59833333 42.75225,5.21808333 42.75225,4.83333333 C42.75,3.59358333 41.742,2.58333333 40.5,2.58333333 Z" id="Shape"></path>
                <path d="M42.5,56.3333333 C40.6325,56.3333333 38.9405,55.1452022 38.288,53.3742995 C38.09675,52.8547745 38,52.3307319 38,51.8157245 C38,50.3452428 38.71775,48.9628545 39.92375,48.1180616 C41.7215,46.8486135 44.36075,47.1467757 45.84575,48.8137734 C46.58825,49.6472722 47,50.7134279 47,51.8157245 C47,54.3071858 44.98175,56.3333333 42.5,56.3333333 Z M42.5,49.55692 C42.041,49.55692 41.59775,49.6992247 41.21525,49.9680224 C40.61,50.3926777 40.25,51.0838718 40.25,51.8157245 C40.25,52.0664518 40.29725,52.3216967 40.39625,52.5927532 C40.727,53.4917574 41.555,54.0745289 42.5,54.0745289 C43.742,54.0745289 44.75,53.0603257 44.75,51.8157245 C44.75,51.1177539 44.43275,50.6185581 44.16725,50.3203959 C43.73075,49.8257178 43.13675,49.55692 42.5,49.55692 Z" id="Shape"></path>
                <path d="M14.5,27.3333333 C12.83275,27.3333333 11.3095,26.4063333 10.5265,24.9145833 C10.17775,24.2508333 10,23.5510833 10,22.8333333 C10,21.8973333 10.2925,20.9950833 10.84375,20.2210833 C11.69425,19.0375833 13.05775,18.3333333 14.5,18.3333333 C15.94225,18.3333333 17.31025,19.0398333 18.15625,20.2233333 C18.7075,20.9928333 19,21.8950833 19,22.8333333 C19,23.5578333 18.82,24.2620833 18.4645,24.9303333 C17.6815,26.4108333 16.16275,27.3333333 14.5,27.3333333 Z M14.5,20.5833333 C13.77325,20.5833333 13.10725,20.9275833 12.673,21.5305833 C12.39625,21.9175833 12.25,22.3698333 12.25,22.8333333 C12.25,23.1820833 12.34,23.5308333 12.51775,23.8683333 C13.303,25.3645833 15.68575,25.3668333 16.4755,23.8773333 C16.65775,23.5330833 16.75,23.1820833 16.75,22.8333333 C16.75,22.3675833 16.60375,21.9198333 16.327,21.5328333 C15.895,20.9275833 15.229,20.5833333 14.5,20.5833333 Z" id="Shape"></path>
                <path d="M25.5,40.3333333 C23.9925,40.3333333 22.59075,39.5818333 21.7515,38.3218333 C21.261,37.5770833 21,36.7175833 21,35.8333333 C21,34.8613333 21.315,33.9298333 21.909,33.1400833 C22.7685,31.9925833 24.078,31.3333333 25.5,31.3333333 C27.228,31.3333333 28.77375,32.3053333 29.53425,33.8690833 C29.84475,34.5013333 30,35.1628333 30,35.8333333 C30,36.9628333 29.5725,38.0473333 28.79175,38.8865833 C27.92325,39.8203333 26.7555,40.3333333 25.5,40.3333333 Z M25.5,33.5833333 C24.79575,33.5833333 24.141,33.9140833 23.709,34.4900833 C23.4075,34.8905833 23.25,35.3540833 23.25,35.8333333 C23.25,36.2743333 23.3805,36.7063333 23.62575,37.0775833 C24.393,38.2250833 26.17725,38.3938333 27.1425,37.3565833 C27.534,36.9358333 27.75,36.3958333 27.75,35.8355833 C27.75,35.5093333 27.67125,35.1808333 27.51375,34.8568333 C27.13125,34.0715833 26.3595,33.5833333 25.5,33.5833333 Z" id="Shape"></path>
                <path d="M12.5011253,54.3333333 C10.0187547,54.3333333 8,52.3089412 8,49.8196385 C8,49.1696665 8.14403601,48.5309787 8.4276069,47.919373 C9.48537134,45.6377003 12.4111028,44.6130916 14.6819205,45.8882104 C16.1110278,46.6871343 17,48.1924516 17,49.8196385 C17,51.0789594 16.4868717,52.2480063 15.5596399,53.1146357 C14.7224306,53.9000186 13.6354089,54.3333333 12.5011253,54.3333333 Z M12.5011253,47.5627911 C11.6346587,47.5627911 10.8379595,48.0773523 10.4688672,48.8740195 C10.3225806,49.1832076 10.2505626,49.5014231 10.2505626,49.8196385 C10.2505626,51.0631615 11.2588147,52.0764859 12.5011253,52.0764859 C13.0637659,52.0764859 13.6061515,51.8598286 14.0292573,51.4648803 C14.4951238,51.0270519 14.7516879,50.4447853 14.7516879,49.8196385 C14.7516879,49.0116872 14.3060765,48.260157 13.5858965,47.860695 C13.2348087,47.6620924 12.8702176,47.5627911 12.5011253,47.5627911 Z" id="Shape"></path>
            </g>
        </g>
    </g>
</svg>