<svg xmlns="http://www.w3.org/2000/svg" xmlns:xlink="http://www.w3.org/1999/xlink" width="100" height="100" viewBox="0 0 100 100"><g><g transform="translate(50 50) scale(0.69 0.69) rotate(0) translate(-50 -50)" style="fill:#283f5c"><svg fill="#283f5c" xmlns:x="http://ns.adobe.com/Extensibility/1.0/" xmlns:i="http://ns.adobe.com/AdobeIllustrator/10.0/" xmlns:graph="http://ns.adobe.com/Graphs/1.0/" xmlns="http://www.w3.org/2000/svg" xmlns:xlink="http://www.w3.org/1999/xlink" version="1.1" x="0px" y="0px" viewBox="0 0 64 64" enable-background="new 0 0 64 64" xml:space="preserve"><metadata><sfw xmlns="http://ns.adobe.com/SaveForWeb/1.0/"><slices></slices><sliceSourceBounds y="-8160" x="-8165" width="16389" height="16384" bottomLeftOrigin="true"></sliceSourceBounds><optimizationSettings><targetSettings targetSettingsID="0" fileFormat="PNG24Format"><PNG24Format transparency="true" filtered="false" interlaced="false" noMatteColor="false" matteColor="#FFFFFF"></PNG24Format></targetSettings></optimizationSettings></sfw></metadata><g><g><path d="M50.707,19.293l-12-12C38.52,7.105,38.266,7,38,7H14c-0.552,0-1,0.448-1,1v48c0,0.553,0.448,1,1,1h36c0.553,0,1-0.447,1-1    V20C51,19.735,50.895,19.48,50.707,19.293z M39,10.414L47.586,19H39V10.414z M15,55V9h22v11c0,0.552,0.447,1,1,1h11v34H15z"></path><path d="M22,21h8c0.552,0,1-0.448,1-1s-0.448-1-1-1h-8c-0.552,0-1,0.448-1,1S21.448,21,22,21z"></path><path d="M42,27H22c-0.552,0-1,0.448-1,1s0.448,1,1,1h20c0.553,0,1-0.448,1-1S42.553,27,42,27z"></path><path d="M42,35H22c-0.552,0-1,0.447-1,1s0.448,1,1,1h20c0.553,0,1-0.447,1-1S42.553,35,42,35z"></path><path d="M42,43H22c-0.552,0-1,0.447-1,1s0.448,1,1,1h20c0.553,0,1-0.447,1-1S42.553,43,42,43z"></path></g></g></svg></g></g></svg>