<?xml version="1.0" encoding="UTF-8"?>
<svg width="8px" height="7px" viewBox="0 0 8 7" version="1.1" xmlns="http://www.w3.org/2000/svg" xmlns:xlink="http://www.w3.org/1999/xlink">
    <!-- Generator: Sketch 54.1 (76490) - https://sketchapp.com -->
    <title>Page-1 Copy</title>
    <desc>Created with Sketch.</desc>
    <g id="Dashboard" stroke="none" stroke-width="1" fill="none" fill-rule="evenodd">
        <g id="Fund-page-Copy" transform="translate(-874.000000, -266.000000)" fill="#B9C8F0" fill-rule="nonzero">
            <g id="Group-11" transform="translate(20.500000, 86.500000)">
                <g id="Group-10" transform="translate(5.000000, 1.000000)">
                    <g id="Group-9" transform="translate(827.500000, 120.500000)">
                        <g id="Group-12" transform="translate(0.000000, 0.076921)">
                            <path d="M22.0000215,64.8664302 L22.0000215,57.9711123 C22.0000215,57.8022538 22.0868093,57.6479527 22.2301263,57.5668506 C22.3778232,57.4707763 22.5645387,57.4790946 22.7042741,57.5863986 L27.7897102,61.0238675 C27.926261,61.1037215 28.0070764,61.2580231 27.9995118,61.4218906 C28.0026964,61.5861734 27.9230764,61.740475 27.7897102,61.8265677 L22.7042741,65.2528073 C22.6314203,65.304796 22.5474202,65.3359886 22.4586387,65.3455544 C22.3762309,65.3505455 22.2954155,65.3243435 22.2285339,65.2740187 C22.085217,65.1929167 21.9984292,65.0352883 22.0000215,64.8664302 Z" id="Page-1-Copy" transform="translate(25.000000, 61.423079) rotate(-270.000000) translate(-25.000000, -61.423079) "></path>
                        </g>
                    </g>
                </g>
            </g>
        </g>
    </g>
</svg>