<svg xmlns="http://www.w3.org/2000/svg" xmlns:xlink="http://www.w3.org/1999/xlink" width="100" height="100" viewBox="0 0 100 100"><g><g transform="translate(50 50) scale(0.69 0.69) rotate(0) translate(-50 -50)" style="fill:#fff"><svg fill="#fff" xmlns="http://www.w3.org/2000/svg" xmlns:xlink="http://www.w3.org/1999/xlink" xml:space="preserve" version="1.1" style="shape-rendering:geometricPrecision;text-rendering:geometricPrecision;image-rendering:optimizeQuality;" viewBox="0 0 285 271" x="0px" y="0px" fill-rule="evenodd" clip-rule="evenodd"><defs><style type="text/css">
   
    .fil0 {fill:#fff;fill-rule:nonzero}
   
  </style></defs><g><path class="fil0" d="M55 271c-9,0 -17,-8 -17,-17l0 -100 41 0c-5,-35 52,-35 47,0l41 0 0 47c-4,-1 -8,-3 -12,-3 -19,0 -19,28 0,28 4,0 8,-2 12,-3l0 48 -112 0zm0 -9l102 0 0 -26c-34,2 -34,-50 0,-48l0 -25 -45 0c2,-4 5,-8 5,-12 0,-19 -29,-19 -29,0 0,4 3,8 5,12l-45 0 0 91c0,4 3,8 7,8z"></path><path class="fil0" d="M276 163l-29 0c0,1 0,2 0,2 0,7 -3,13 -7,17 -4,5 -10,7 -17,7 -6,0 -12,-2 -17,-7 -4,-4 -7,-10 -7,-17 0,0 0,-1 0,-2l-32 0 0 38c-4,-1 -8,-3 -12,-3 -19,0 -19,28 0,28 4,0 8,-2 12,-3l0 39 101 0c4,0 8,-4 8,-8l0 -91zm9 -9l0 100c0,9 -7,17 -17,17 -37,0 -74,0 -111,0l0 -35c-34,2 -34,-50 0,-48l0 -30 0 -4c16,0 32,0 49,0l7 0 -3 6c0,1 -1,2 -1,3l0 0c0,1 0,2 0,2 0,4 2,8 4,10 3,3 6,5 10,5 4,0 8,-2 10,-5 3,-2 4,-6 4,-10 0,0 0,-1 0,-2 0,-2 -3,-8 -3,-9l51 0z"></path><path class="fil0" d="M18 0l111 0 0 34c35,-5 35,52 0,47l0 37 -55 0c2,-4 5,-9 5,-13 0,-19 -29,-19 -29,0 0,4 3,9 5,13l-55 0c0,-34 0,-67 0,-100 0,-10 8,-18 18,-18zm101 10l-101 0c-5,0 -8,3 -8,8l0 90 31 0c-5,-35 52,-35 47,0l31 0 0 -41c4,2 8,5 13,5 19,0 19,-28 0,-28 -5,0 -9,2 -13,4l0 -38z"></path><path class="fil0" d="M234 154l42 0 0 -91c0,-4 -4,-8 -8,-8l-101 0 0 25c35,-5 35,52 0,47l0 27 39 0 7 0 -3 6c0,1 -1,2 -1,3l0 0c0,1 0,2 0,2 0,4 2,8 4,10 3,3 6,5 10,5 4,0 8,-2 10,-5 3,-2 4,-6 4,-10 0,0 0,-1 0,-2 0,-2 -3,-8 -3,-9zm13 9c0,1 0,2 0,2 0,7 -3,13 -7,17 -4,5 -10,7 -17,7 -6,0 -12,-2 -17,-7 -4,-4 -7,-10 -7,-17 0,0 0,-1 0,-2 -14,0 -28,0 -42,0l0 -5 0 -45c4,2 8,4 13,4 19,0 19,-28 0,-28 -5,0 -9,3 -13,5l0 -48c37,0 74,0 111,0 10,0 17,8 17,17 0,34 0,67 0,100l-38 0z"></path></g></svg></g></g></svg>