<svg xmlns="http://www.w3.org/2000/svg" xmlns:xlink="http://www.w3.org/1999/xlink" width="100" height="100" viewBox="0 0 100 100"><g><g transform="translate(50 50) scale(0.69 0.69) rotate(0) translate(-50 -50)" style="fill:#283f5c"><svg fill="#283f5c" xmlns="http://www.w3.org/2000/svg" xmlns:xlink="http://www.w3.org/1999/xlink" viewBox="0 0 100 100" version="1.1" x="0px" y="0px"><title>2.3</title><desc>Created with Sketch.</desc><g stroke="none" stroke-width="1" fill="none" fill-rule="evenodd"><g fill-rule="nonzero" fill="#283f5c"><path d="M15.5,19 L35.4569251,19 L35.4569251,19 C35.8078299,19 36.1476292,19.1230243 36.4172017,19.3476681 L41.5827983,23.6523319 L41.5827983,23.6523319 C41.8523708,23.8769757 42.1921701,24 42.5430749,24 L84.5,24 C85.3284271,24 86,24.6715729 86,25.5 L86,79.5 C86,80.3284271 85.3284271,81 84.5,81 L15.5,81 C14.6715729,81 14,80.3284271 14,79.5 L14,20.5 L14,20.5 C14,19.6715729 14.6715729,19 15.5,19 L15.5,19 Z M82.25,27 L41.1853876,27 L41.1853876,27 C41.0099353,27 40.8400356,26.9384878 40.7052493,26.826166 L35.122451,22.173834 L35.122451,22.173834 C34.9876648,22.0615122 34.8177651,22 34.6423127,22 L17.75,22 L17.75,22 C17.3357864,22 17,22.3357864 17,22.75 L17,35.25 C17,35.6642136 17.3357864,36 17.75,36 L82.25,36 L82.25,36 C82.6642136,36 83,35.6642136 83,35.25 L83,27.75 C83,27.3357864 82.6642136,27 82.25,27 L82.25,27 Z M82.25,78 C82.6642136,78 83,77.6642136 83,77.25 L83,39.75 C83,39.3357864 82.6642136,39 82.25,39 L17.75,39 C17.3357864,39 17,39.3357864 17,39.75 L17,77.25 C17,77.6642136 17.3357864,78 17.75,78 L82.25,78 Z"></path></g></g></svg></g></g></svg>