<?xml version="1.0" encoding="UTF-8"?>
<svg width="50px" height="41px" viewBox="0 0 50 41" version="1.1" xmlns="http://www.w3.org/2000/svg" xmlns:xlink="http://www.w3.org/1999/xlink">
    <!-- Generator: Sketch 55.2 (78181) - https://sketchapp.com -->
    <title>video-clip-4</title>
    <desc>Created with Sketch.</desc>
    <g id="New-User-Acct-Settings-Sponsor-Flow" stroke="none" stroke-width="1" fill="none" fill-rule="evenodd">
        <g id="Home-Page" transform="translate(-928.000000, -905.000000)" fill="#FFFFFF" fill-rule="nonzero">
            <g id="video-clip-4" transform="translate(928.000000, 905.000000)">
                <g id="Filled_Icons">
                    <g id="Group">
                        <path d="M45.4545455,0.00681818182 L4.54545455,0.00681818182 C2.03409091,0.00681818182 0,2.04318182 0,4.55227273 L0,36.3704545 C0,38.8818182 2.03409091,40.9159091 4.54545455,40.9159091 L45.4545455,40.9159091 C47.9636364,40.9159091 50,38.8818182 50,36.3704545 L50,4.55227273 C50,2.04090909 47.9636364,0.00681818182 45.4545455,0.00681818182 Z M25,36.3704545 C16.2272727,36.3704545 9.09090909,29.2340909 9.09090909,20.4613636 C9.09090909,11.6909091 16.2272727,4.55227273 25,4.55227273 C33.7727273,4.55227273 40.9090909,11.6909091 40.9090909,20.4613636 C40.9090909,29.2340909 33.7727273,36.3704545 25,36.3704545 Z" id="Shape"></path>
                        <path d="M25,9.09772727 C18.7340909,9.09772727 13.6363636,14.1954545 13.6363636,20.4613636 C13.6363636,26.7272727 18.7340909,31.825 25,31.825 C31.2659091,31.825 36.3636364,26.7272727 36.3636364,20.4613636 C36.3636364,14.1954545 31.2659091,9.09772727 25,9.09772727 Z M20.4545455,27.2795455 L20.4545455,13.6431818 L31.8181818,20.4613636 L20.4545455,27.2795455 Z" id="Shape"></path>
                    </g>
                </g>
            </g>
        </g>
    </g>
</svg>