<svg xmlns="http://www.w3.org/2000/svg" xmlns:xlink="http://www.w3.org/1999/xlink" width="100" height="100" viewBox="0 0 100 100"><g><g transform="translate(50 50) scale(0.69 0.69) rotate(0) translate(-50 -50)" style="fill:#283f5c"><svg fill="#283f5c" xmlns:dc="http://purl.org/dc/elements/1.1/" xmlns:cc="http://creativecommons.org/ns#" xmlns:rdf="http://www.w3.org/1999/02/22-rdf-syntax-ns#" xmlns:svg="http://www.w3.org/2000/svg" xmlns="http://www.w3.org/2000/svg" xmlns:sodipodi="http://sodipodi.sourceforge.net/DTD/sodipodi-0.dtd" xmlns:inkscape="http://www.inkscape.org/namespaces/inkscape" version="1.1" x="0px" y="0px" viewBox="0 0 100 100"><g transform="translate(0,-952.36218)"><path style="text-indent:0;text-transform:none;direction:ltr;block-progression:tb;baseline-shift:baseline;color:#000000;enable-background:accumulate;" d="m 52.61189,968.36191 c -13.3826,0 -25.0412,7.58395 -30.7188,18.68745 l -1.375,-2.4687 a 4.0004,4.0004 0 0 0 -3.625,-2.0938 4.0004,4.0004 0 0 0 -3.375,6 l 5.5,9.8125 a 4.0004,4.0004 0 0 0 5.3125,1.625 l 9.7813,-5 a 4.0004,4.0004 0 0 0 -3.25,-7.2812 c 4.7531,-6.7866 12.6868,-11.2813 21.75,-11.2813 14.6576,0 26.4062,11.6229 26.4062,26.00004 0,14.26 -11.576,25.8118 -26.0625,26.0001 a 4.0004883,4.0004883 0 1 0 0.125,8 c 18.7181,-0.2432 33.9375,-15.3921 33.9375,-34.0001 0,-18.75994 -15.4823,-33.99999 -34.4062,-33.99999 z m 0.3437,13.93745 a 4.0004,4.0004 0 0 0 -3.9375,4.0625 l 0,16.00004 a 4.0004,4.0004 0 0 0 1.5,3.125 l 10,8 a 4.0019526,4.0019526 0 1 0 5,-6.25 l -8.5,-6.8125 0,-14.06254 a 4.0004,4.0004 0 0 0 -4.0625,-4.0625 z" fill="#283f5c" fill-opacity="1" stroke="none" marker="none" visibility="visible" display="inline" overflow="visible"></path></g></svg></g></g></svg>