<?xml version="1.0" encoding="UTF-8"?>
<svg width="56px" height="56px" viewBox="0 0 56 56" version="1.1" xmlns="http://www.w3.org/2000/svg" xmlns:xlink="http://www.w3.org/1999/xlink">
    <!-- Generator: Sketch 55 (78076) - https://sketchapp.com -->
    <title>zoom-in</title>
    <desc>Created with Sketch.</desc>
    <g id="Sponsor-View---Investor-Servicing" stroke="none" stroke-width="1" fill="none" fill-rule="evenodd">
        <g id="S.-Dash-/-Investor-Servicing/Choose-Investment-" transform="translate(-1104.000000, -575.000000)" fill="#FFFFFF" fill-rule="nonzero">
            <g id="zoom-in" transform="translate(1107.000000, 578.000000)">
                <g id="Line_Icons">
                    <g id="Group">
                        <path d="M25,52.0833333 C39.957712,52.0833333 52.0833333,39.957712 52.0833333,25 C52.0833333,10.042288 39.957712,-2.08333333 25,-2.08333333 C10.042288,-2.08333333 -2.08333333,10.042288 -2.08333333,25 C-2.08333333,39.957712 10.042288,52.0833333 25,52.0833333 Z M25,47.9166667 C12.3434745,47.9166667 2.08333333,37.6565255 2.08333333,25 C2.08333333,12.3434745 12.3434745,2.08333333 25,2.08333333 C37.6565255,2.08333333 47.9166667,12.3434745 47.9166667,25 C47.9166667,37.6565255 37.6565255,47.9166667 25,47.9166667 Z" id="Oval"></path>
                        <polygon id="Path" points="27.0833333 16.6666667 22.9166667 16.6666667 22.9166667 22.9166667 16.6666667 22.9166667 16.6666667 27.0833333 22.9166667 27.0833333 22.9166667 33.3333333 27.0833333 33.3333333 27.0833333 27.0833333 33.3333333 27.0833333 33.3333333 22.9166667 27.0833333 22.9166667"></polygon>
                    </g>
                </g>
            </g>
        </g>
    </g>
</svg>