<svg xmlns="http://www.w3.org/2000/svg" xmlns:xlink="http://www.w3.org/1999/xlink" width="100" height="100" viewBox="0 0 100 100"><g><g transform="translate(50 50) scale(0.69 0.69) rotate(0) translate(-50 -50)" style="fill:#fff"><svg fill="#fff" xmlns:dc="http://purl.org/dc/elements/1.1/" xmlns:cc="http://creativecommons.org/ns#" xmlns:rdf="http://www.w3.org/1999/02/22-rdf-syntax-ns#" xmlns:svg="http://www.w3.org/2000/svg" xmlns="http://www.w3.org/2000/svg" xmlns:sodipodi="http://sodipodi.sourceforge.net/DTD/sodipodi-0.dtd" xmlns:inkscape="http://www.inkscape.org/namespaces/inkscape" version="1.1" x="0px" y="0px" viewBox="0 0 100 100"><g transform="translate(0,-952.36218)"><path style="text-indent:0;text-transform:none;direction:ltr;block-progression:tb;baseline-shift:baseline;color:#000000;enable-background:accumulate;" d="M 49.8125,965.37642 C 38.50494,965.37642 29,974.58552 29,986.0287 l 0,1.34349 -4.28125,0 C 14.896724,987.37219 7,995.52527 7,1005.4312 c 0,9.9061 7.907546,17.9341 17.71875,17.9341 l 24.28125,0 0,14.9971 a 1.0001,0.99990755 0 1 0 2,0 l 0,-14.9971 24.28125,0 c 9.811208,0 17.71875,-8.028 17.71875,-17.9341 0,-9.90593 -7.896721,-18.05901 -17.71875,-18.05901 l -4.28125,0 0,-1.34349 c 0,-11.44188 -9.473689,-20.65228 -20.78125,-20.65228 l -0.40625,0 z m 0,1.99962 0.40625,0 C 60.440789,967.37604 69,975.69113 69,986.0287 l 0,2.3433 a 1.0001,0.99990755 0 0 0 1,0.9998 l 5.28125,0 c 8.714671,0 15.71875,7.21381 15.71875,16.0594 0,8.8457 -6.993258,15.9344 -15.71875,15.9344 l -24.28125,0 0,-22.68309 13.3125,12.40389 a 1.0059819,1.0057883 0 1 0 1.375,-1.4685 l -15,-13.9973 a 1.0001,0.99990755 0 0 0 -0.84375,-0.24995 1.0001,0.99990755 0 0 0 -0.53125,0.24995 l -15,13.9973 a 1.0059819,1.0057883 0 1 0 1.375,1.4685 L 49,998.68251 l 0,22.68309 -24.28125,0 C 15.993262,1021.3656 9,1014.2769 9,1005.4312 c 0,-8.84559 7.004084,-16.0594 15.71875,-16.0594 l 5.28125,0 a 1.0001,0.99990755 0 0 0 1,-0.9998 l 0,-2.3433 c 0,-10.33627 8.590462,-18.65266 18.8125,-18.65266 z" fill="#fff" fill-opacity="1" stroke="none" marker="none" visibility="visible" display="inline" overflow="visible"></path></g></svg></g></g></svg>