<?xml version="1.0" encoding="UTF-8"?>
<svg width="8px" height="7px" viewBox="0 0 8 7" version="1.1" xmlns="http://www.w3.org/2000/svg" xmlns:xlink="http://www.w3.org/1999/xlink">
    <!-- Generator: Sketch 54.1 (76490) - https://sketchapp.com -->
    <title>Page-1</title>
    <desc>Created with Sketch.</desc>
    <g id="Dashboard" stroke="none" stroke-width="1" fill="none" fill-rule="evenodd">
        <g id="Fund-page-Copy" transform="translate(-874.000000, -227.000000)" fill="#B9C8F0" fill-rule="nonzero">
            <g id="Group-11" transform="translate(20.500000, 86.500000)">
                <g id="Group-10" transform="translate(5.000000, 1.000000)">
                    <g id="Group-9" transform="translate(827.500000, 120.500000)">
                        <g id="Group-12" transform="translate(0.000000, 0.076921)">
                            <path d="M22.0000215,25.8664302 L22.0000215,18.9711123 C22.0000215,18.8022538 22.0868093,18.6479527 22.2301263,18.5668506 C22.3778232,18.4707763 22.5645387,18.4790946 22.7042741,18.5863986 L27.7897102,22.0238675 C27.926261,22.1037215 28.0070764,22.2580231 27.9995118,22.4218906 C28.0026964,22.5861734 27.9230764,22.740475 27.7897102,22.8265677 L22.7042741,26.2528073 C22.6314203,26.304796 22.5474202,26.3359886 22.4586387,26.3455544 C22.3762309,26.3505455 22.2954155,26.3243435 22.2285339,26.2740187 C22.085217,26.1929167 21.9984292,26.0352883 22.0000215,25.8664302 Z" id="Page-1" transform="translate(25.000000, 22.423079) rotate(-90.000000) translate(-25.000000, -22.423079) "></path>
                        </g>
                    </g>
                </g>
            </g>
        </g>
    </g>
</svg>