<?xml version="1.0" encoding="UTF-8"?>
<svg width="200px" height="200px" viewBox="0 0 200 200" version="1.1" xmlns="http://www.w3.org/2000/svg" xmlns:xlink="http://www.w3.org/1999/xlink">
    <!-- Generator: Sketch 46.2 (44496) - http://www.bohemiancoding.com/sketch -->
    <title>icon-building-white</title>
    <desc>Created with Sketch.</desc>
    <defs></defs>
    <g id="Page-1" stroke="none" stroke-width="1" fill="none" fill-rule="evenodd">
        <g id="icon-building-white" fill-rule="nonzero" fill="#FFFFFF">
            <g transform="translate(46.000000, 46.000000)">
                <path d="M0,106.675585 C0,107.397993 0.612359551,108 1.34719101,108 L107.652809,108 C108.38764,108 109,107.397993 109,106.675585 C109,105.953177 108.38764,105.351171 107.652809,105.351171 L102.508989,105.351171 L102.508989,1.32441472 C102.508989,0.602006689 101.896629,0 101.161798,0 L67.6044944,0 C66.8696629,0 66.2573034,0.602006689 66.2573034,1.32441472 L66.2573034,74.4080268 C66.1348315,74.5284281 66.1348315,74.6488294 66.0123596,74.6488294 L60.011236,74.6488294 L60.011236,30.9431438 C60.011236,30.2207358 59.3988764,29.6187291 58.6640449,29.6187291 L42.9876404,29.6187291 L42.9876404,18.0602007 C42.9876404,17.5785953 42.6202247,17.09699 42.1303371,16.8561873 L8.57303371,1.44481605 C8.08314607,1.20401338 7.59325843,1.32441472 7.2258427,1.56521739 C6.85842697,1.80602007 6.61348315,2.28762542 6.61348315,2.76923077 L6.61348315,105.351171 L1.46966292,105.351171 C0.734831461,105.351171 0,105.953177 0,106.675585 Z M40.1707865,29.6187291 L31.5977528,29.6187291 C30.8629213,29.6187291 30.2505618,30.2207358 30.2505618,30.9431438 L30.2505618,105.230769 L9.43033708,105.230769 L9.43033708,4.81605351 L40.1707865,19.0234114 L40.1707865,29.6187291 Z M57.194382,32.3879599 L57.194382,105.351171 L52.0505618,105.351171 L52.0505618,94.9966555 C52.0505618,91.7458194 49.3561798,88.9765886 45.9269663,88.9765886 C42.6202247,88.9765886 39.8033708,91.6254181 39.8033708,94.9966555 L39.8033708,105.351171 L33.0674157,105.351171 L33.0674157,32.3879599 L57.194382,32.3879599 Z M42.6202247,94.9966555 C42.6202247,93.1906355 44.0898876,91.7458194 45.9269663,91.7458194 C47.7640449,91.7458194 49.2337079,93.1906355 49.2337079,94.9966555 L49.2337079,105.351171 L42.6202247,105.351171 L42.6202247,94.9966555 L42.6202247,94.9966555 Z M64.7876404,77.4180602 C64.7876404,77.6588629 64.6651685,78.0200669 64.6651685,78.2608696 C64.6651685,79.826087 65.2775281,81.1505017 66.2573034,82.2341137 C63.3179775,83.6789298 61.358427,86.6889632 61.358427,90.180602 C61.358427,94.6354515 64.6651685,98.367893 69.0741573,98.9698997 L69.0741573,105.230769 L60.011236,105.230769 L60.011236,77.4180602 L64.7876404,77.4180602 Z M70.4213483,81.270903 C68.8292135,81.270903 67.4820225,79.9464883 67.4820225,78.3812709 C67.4820225,76.8160535 68.8292135,75.4916388 70.4213483,75.4916388 C72.0134831,75.4916388 73.3606742,76.8160535 73.3606742,78.3812709 C73.3606742,79.9464883 72.0134831,81.270903 70.4213483,81.270903 Z M76.6674157,90.180602 C76.6674157,93.5518395 73.8505618,96.3210702 70.4213483,96.3210702 C66.9921348,96.3210702 64.1752809,93.5518395 64.1752809,90.180602 C64.1752809,86.8093645 66.9921348,84.0401338 70.4213483,84.0401338 C73.8505618,84.0401338 76.6674157,86.8093645 76.6674157,90.180602 Z M99.8146067,105.351171 L90.9966292,105.351171 L90.9966292,99.090301 C95.2831461,98.367893 98.7123596,94.7558528 98.7123596,90.3010033 C98.7123596,85.3645485 94.6707865,81.3913043 89.6494382,81.3913043 C84.6280899,81.3913043 80.5865169,85.3645485 80.5865169,90.3010033 C80.5865169,94.7558528 83.8932584,98.4882943 88.3022472,99.090301 L88.3022472,105.351171 L71.7685393,105.351171 L71.7685393,99.090301 C76.0550562,98.367893 79.4842697,94.7558528 79.4842697,90.3010033 C79.4842697,86.8093645 77.5247191,83.7993311 74.5853933,82.3545151 C75.5651685,81.3913043 76.1775281,79.9464883 76.1775281,78.3812709 C76.1775281,75.2508361 73.605618,72.722408 70.4213483,72.722408 C69.9314607,72.722408 69.441573,72.8428094 69.0741573,72.9632107 L69.0741573,2.76923077 L99.8146067,2.76923077 L99.8146067,105.351171 L99.8146067,105.351171 Z M83.2808989,90.180602 C83.2808989,86.8093645 86.0977528,84.0401338 89.5269663,84.0401338 C92.9561798,84.0401338 95.7730337,86.8093645 95.7730337,90.180602 C95.7730337,93.5518395 92.9561798,96.3210702 89.5269663,96.3210702 C86.0977528,96.4414716 83.2808989,93.6722408 83.2808989,90.180602 Z" id="Shape"></path>
                <path d="M53.5,41 L38.375,41 C37.625,41 37,40.3181818 37,39.5 C37,38.6818182 37.625,38 38.375,38 L53.625,38 C54.375,38 55,38.6818182 55,39.5 C55,40.3181818 54.375,41 53.5,41 Z" id="Shape"></path>
                <path d="M53.5,48 L38.375,48 C37.625,48 37,47.3181818 37,46.5 C37,45.6818182 37.625,45 38.375,45 L53.625,45 C54.375,45 55,45.6818182 55,46.5 C55,47.3181818 54.375,48 53.5,48 Z" id="Shape"></path>
                <path d="M53.5,55 L38.375,55 C37.625,55 37,54.3181818 37,53.5 C37,52.6818182 37.625,52 38.375,52 L53.625,52 C54.375,52 55,52.6818182 55,53.5 C55,54.3181818 54.375,55 53.5,55 Z" id="Shape"></path>
                <path d="M53.5,62 L38.375,62 C37.625,62 37,61.3181818 37,60.5 C37,59.6818182 37.625,59 38.375,59 L53.625,59 C54.375,59 55,59.6818182 55,60.5 C55,61.3181818 54.375,62 53.5,62 Z" id="Shape"></path>
                <path d="M53.5,69 L38.375,69 C37.625,69 37,68.3181818 37,67.5 C37,66.6818182 37.625,66 38.375,66 L53.625,66 C54.375,66 55,66.6818182 55,67.5 C55,68.3181818 54.375,69 53.5,69 Z" id="Shape"></path>
                <path d="M53.5,77 L38.375,77 C37.625,77 37,76.3181818 37,75.5 C37,74.6818182 37.625,74 38.375,74 L53.625,74 C54.375,74 55,74.6818182 55,75.5 C55,76.3181818 54.375,77 53.5,77 Z" id="Shape"></path>
                <path d="M53.5,84 L38.375,84 C37.625,84 37,83.3181818 37,82.5 C37,81.6818182 37.625,81 38.375,81 L53.625,81 C54.375,81 55,81.6818182 55,82.5 C55,83.3181818 54.375,84 53.5,84 Z" id="Shape"></path>
                <rect id="Rectangle-path" x="89" y="10" width="4" height="9"></rect>
                <rect id="Rectangle-path" x="82" y="10" width="4" height="9"></rect>
                <rect id="Rectangle-path" x="75" y="10" width="4" height="9"></rect>
                <rect id="Rectangle-path" x="89" y="23" width="4" height="9"></rect>
                <rect id="Rectangle-path" x="82" y="23" width="4" height="9"></rect>
                <rect id="Rectangle-path" x="75" y="23" width="4" height="9"></rect>
                <rect id="Rectangle-path" x="89" y="36" width="4" height="9"></rect>
                <rect id="Rectangle-path" x="82" y="36" width="4" height="9"></rect>
                <rect id="Rectangle-path" x="75" y="36" width="4" height="9"></rect>
                <rect id="Rectangle-path" x="89" y="50" width="4" height="9"></rect>
                <rect id="Rectangle-path" x="82" y="50" width="4" height="9"></rect>
                <rect id="Rectangle-path" x="75" y="50" width="4" height="9"></rect>
                <rect id="Rectangle-path" x="89" y="62" width="4" height="9"></rect>
                <rect id="Rectangle-path" x="82" y="62" width="4" height="9"></rect>
                <rect id="Rectangle-path" x="75" y="62" width="4" height="9"></rect>
                <rect id="Rectangle-path" x="14" y="63" width="4" height="9"></rect>
                <rect id="Rectangle-path" x="14" y="75" width="4" height="9"></rect>
                <rect id="Rectangle-path" x="14" y="51" width="4" height="9"></rect>
                <rect id="Rectangle-path" x="14" y="38" width="4" height="9"></rect>
                <rect id="Rectangle-path" x="14" y="25" width="4" height="9"></rect>
                <rect id="Rectangle-path" x="21" y="63" width="4" height="9"></rect>
                <rect id="Rectangle-path" x="21" y="75" width="4" height="9"></rect>
                <rect id="Rectangle-path" x="21" y="51" width="4" height="9"></rect>
                <rect id="Rectangle-path" x="21" y="38" width="4" height="9"></rect>
                <rect id="Rectangle-path" x="21" y="25" width="4" height="9"></rect>
                <rect id="Rectangle-path" x="14" y="88" width="4" height="9"></rect>
                <rect id="Rectangle-path" x="21" y="88" width="4" height="9"></rect>
            </g>
        </g>
    </g>
</svg>