<?xml version="1.0" encoding="UTF-8"?>
<svg width="40px" height="33px" viewBox="0 0 40 33" version="1.1" xmlns="http://www.w3.org/2000/svg" xmlns:xlink="http://www.w3.org/1999/xlink">
    <!-- Generator: Sketch 55.2 (78181) - https://sketchapp.com -->
    <title>twitter</title>
    <desc>Created with Sketch.</desc>
    <g id="New-User-Acct-Settings-Sponsor-Flow" stroke="none" stroke-width="1" fill="none" fill-rule="evenodd">
        <g id="Home-Page" transform="translate(-771.000000, -5702.000000)" fill="#283F5C" fill-rule="nonzero">
            <g id="twitter" transform="translate(771.000000, 5702.000000)">
                <path d="M40,3.97656655 C38.5282564,4.6292605 36.946633,5.07038856 35.2865869,5.26878645 C36.9810161,4.25309458 38.2821609,2.64484264 38.894912,0.728605758 C37.3093383,1.66894739 35.5530195,2.35192775 33.6837484,2.72004656 C32.186693,1.12510892 30.0539156,0.1284375 27.6936245,0.1284375 C23.1613445,0.1284375 19.4868869,3.80274892 19.4868869,8.33473619 C19.4868869,8.97791992 19.5596034,9.60427788 19.6994769,10.2048851 C12.8790373,9.86266333 6.83214456,6.59553578 2.78459344,1.63061388 C2.0782033,2.84265528 1.67350672,4.25236303 1.67350672,5.75629514 C1.67350672,8.60336344 3.12242584,11.1152329 5.32440836,12.5868303 C3.97907752,12.5442537 2.71377884,12.1751108 1.60722777,11.5604577 C1.60664253,11.5946945 1.60664253,11.6290776 1.60664253,11.663607 C1.60664253,15.6397583 4.43542192,18.9566317 8.18961922,19.7104266 C7.50093273,19.8979975 6.77596108,19.9982206 6.02743334,19.9982206 C5.49866491,19.9982206 4.98452759,19.9468653 4.48355828,19.8510316 C5.52778083,23.1114289 8.55846958,25.4840102 12.14953,25.5502891 C9.34094152,27.7512473 5.80240681,29.0632194 1.95764292,29.0632194 C1.29529244,29.0632194 0.642013241,29.0244469 0,28.9486577 C3.63173489,31.277053 7.94542595,32.6355519 12.579831,32.6355519 C27.6744577,32.6355519 35.9287464,20.1307784 35.9287464,9.28634378 C35.9287464,8.93051513 35.9208456,8.5765885 35.9050441,8.22471022 C37.5083214,7.0676818 38.8997403,5.62227414 40,3.97656655" id="Path"></path>
            </g>
        </g>
    </g>
</svg>