<?xml version="1.0" encoding="UTF-8"?>
<svg width="40px" height="40px" viewBox="0 0 40 40" version="1.1" xmlns="http://www.w3.org/2000/svg" xmlns:xlink="http://www.w3.org/1999/xlink">
    <!-- Generator: Sketch 55.2 (78181) - https://sketchapp.com -->
    <title>facebook</title>
    <desc>Created with Sketch.</desc>
    <g id="New-User-Acct-Settings-Sponsor-Flow" stroke="none" stroke-width="1" fill="none" fill-rule="evenodd">
        <g id="Home-Page" transform="translate(-519.000000, -5721.000000)" fill-rule="nonzero">
            <g id="facebook" transform="translate(519.000000, 5721.000000)">
                <path d="M37.7923438,40.0001562 C39.0114063,40.0001562 40,39.0117188 40,37.7925 L40,2.20765625 C40,0.98828125 39.0114063,0 37.7923438,0 L2.20765625,0 C0.988125,0 0,0.98828125 0,2.20765625 L0,37.7925 C0,39.0117188 0.988125,40.0001562 2.20765625,40.0001562 L37.7923438,40.0001562" id="Path" fill="#283F5C"></path>
                <path d="M27.5992187,40.0001562 L27.5992187,24.51 L32.79875,24.51 L33.5771875,18.4732812 L27.5992187,18.4732812 L27.5992187,14.6189063 C27.5992187,12.8710938 28.0846875,11.68 30.5910937,11.68 L33.7878125,11.6785938 L33.7878125,6.279375 C33.2346875,6.20578125 31.3371875,6.04140625 29.1296875,6.04140625 C24.520625,6.04140625 21.3653125,8.8546875 21.3653125,14.02125 L21.3653125,18.4732812 L16.1525,18.4732812 L16.1525,24.51 L21.3653125,24.51 L21.3653125,40.0001562 L27.5992187,40.0001562" id="Path" fill="#FFFFFF"></path>
            </g>
        </g>
    </g>
</svg>