<?xml version="1.0" encoding="UTF-8"?>
<svg width="40px" height="40px" viewBox="0 0 40 40" version="1.1" xmlns="http://www.w3.org/2000/svg" xmlns:xlink="http://www.w3.org/1999/xlink">
    <!-- Generator: Sketch 55.2 (78181) - https://sketchapp.com -->
    <title>instagram-new</title>
    <desc>Created with Sketch.</desc>
    <g id="New-User-Acct-Settings-Sponsor-Flow" stroke="none" stroke-width="1" fill="none" fill-rule="evenodd">
        <g id="Home-Page" transform="translate(-758.000000, -5625.000000)" fill="#283F5C" fill-rule="nonzero">
            <g id="instagram-new" transform="translate(758.000000, 5625.000000)">
                <path d="M19.960396,3.6039604 C25.2910891,3.6039604 25.9168317,3.62772277 28.0237624,3.72277228 C29.9722772,3.80990099 31.0257426,4.13465347 31.7306931,4.41188119 C32.6653465,4.77623762 33.3306931,5.2039604 34.0277228,5.9009901 C34.7247525,6.5980198 35.160396,7.26336634 35.5168317,8.1980198 C35.7861386,8.9029703 36.1188119,9.95643564 36.2059406,11.9049505 C36.3009901,14.0118812 36.3247525,14.6376238 36.3247525,19.9683168 C36.3247525,25.2990099 36.3009901,25.9247525 36.2059406,28.0316832 C36.1188119,29.980198 35.7940594,31.0336634 35.5168317,31.7386139 C35.1524752,32.6732673 34.7247525,33.3386139 34.0277228,34.0356436 C33.3306931,34.7326733 32.6653465,35.1683168 31.7306931,35.5247525 C31.0257426,35.7940594 29.9722772,36.1267327 28.0237624,36.2138614 C25.9168317,36.3089109 25.2910891,36.3326733 19.960396,36.3326733 C14.629703,36.3326733 14.0039604,36.3089109 11.8970297,36.2138614 C9.94851485,36.1267327 8.8950495,35.8019802 8.19009901,35.5247525 C7.25544554,35.160396 6.59009901,34.7326733 5.89306931,34.0356436 C5.1960396,33.3386139 4.76039604,32.6732673 4.4039604,31.7386139 C4.13465347,31.0336634 3.8019802,29.980198 3.71485149,28.0316832 C3.61980198,25.9247525 3.5960396,25.2990099 3.5960396,19.9683168 C3.5960396,14.6376238 3.61980198,14.0118812 3.71485149,11.9049505 C3.8019802,9.95643564 4.12673267,8.9029703 4.4039604,8.1980198 C4.76831683,7.26336634 5.1960396,6.5980198 5.89306931,5.9009901 C6.59009901,5.2039604 7.25544554,4.76831683 8.19009901,4.41188119 C8.8950495,4.14257426 9.94851485,3.80990099 11.8970297,3.72277228 C14.0039604,3.61980198 14.629703,3.6039604 19.960396,3.6039604 L19.960396,3.6039604 Z M19.960396,0.00792079208 C14.5425743,0.00792079208 13.8613861,0.0316831683 11.7306931,0.126732673 C9.60792079,0.221782178 8.15841584,0.562376238 6.89108911,1.05346535 C5.57623762,1.56039604 4.46732673,2.24950495 3.35841584,3.35841584 C2.24950495,4.46732673 1.56831683,5.58415842 1.05346535,6.89108911 C0.562376238,8.15841584 0.221782178,9.60792079 0.126732673,11.7386139 C0.0316831683,13.8613861 0.00792079208,14.5425743 0.00792079208,19.960396 C0.00792079208,25.3782178 0.0316831683,26.0594059 0.126732673,28.190099 C0.221782178,30.3128713 0.562376238,31.7623762 1.05346535,33.0376238 C1.56039604,34.3524752 2.24950495,35.4613861 3.35841584,36.570297 C4.46732673,37.6792079 5.58415842,38.360396 6.89108911,38.8752475 C8.15841584,39.3663366 9.60792079,39.7069307 11.7386139,39.8019802 C13.8693069,39.8970297 14.5425743,39.9207921 19.9683168,39.9207921 C25.3940594,39.9207921 26.0673267,39.8970297 28.1980198,39.8019802 C30.3207921,39.7069307 31.770297,39.3663366 33.0455446,38.8752475 C34.360396,38.3683168 35.4693069,37.6792079 36.5782178,36.570297 C37.6871287,35.4613861 38.3683168,34.3445545 38.8831683,33.0376238 C39.3742574,31.770297 39.7148515,30.3207921 39.809901,28.190099 C39.9049505,26.0594059 39.9287129,25.3861386 39.9287129,19.960396 C39.9287129,14.5346535 39.9049505,13.8613861 39.809901,11.7306931 C39.7148515,9.60792079 39.3742574,8.15841584 38.8831683,6.88316832 C38.3762376,5.56831683 37.6871287,4.45940594 36.5782178,3.35049505 C35.4693069,2.24158416 34.3524752,1.56039604 33.0455446,1.04554455 C31.7782178,0.554455446 30.3287129,0.213861386 28.1980198,0.118811881 C26.0594059,0.0316831683 25.3782178,0.00792079208 19.960396,0.00792079208 L19.960396,0.00792079208 Z" id="Shape"></path>
                <path d="M19.960396,9.71089109 C14.3049505,9.71089109 9.71089109,14.2970297 9.71089109,19.960396 C9.71089109,25.6237624 14.3049505,30.209901 19.960396,30.209901 C25.6158416,30.209901 30.209901,25.6158416 30.209901,19.960396 C30.209901,14.3049505 25.6158416,9.71089109 19.960396,9.71089109 Z M19.960396,26.6138614 C16.2851485,26.6138614 13.3069307,23.6356436 13.3069307,19.960396 C13.3069307,16.2851485 16.2851485,13.3069307 19.960396,13.3069307 C23.6356436,13.3069307 26.6138614,16.2851485 26.6138614,19.960396 C26.6138614,23.6356436 23.6356436,26.6138614 19.960396,26.6138614 Z" id="Shape"></path>
                <circle id="Oval" cx="30.6138614" cy="9.30693069" r="2.39207921"></circle>
            </g>
        </g>
    </g>
</svg>